{"glyphs":{"0":{"ha":564,"x_min":54,"x_max":535,"o":"m 231 -17 q 136 9 178 -17 q 74 88 94 35 q 65 222 54 142 l 118 593 q 203 774 135 715 q 353 832 271 832 q 485 773 435 832 q 518 593 535 714 l 465 222 q 419 87 454 140 q 335 8 385 33 q 231 -17 286 -17 m 235 8 q 363 65 307 8 q 432 222 418 121 l 483 592 q 458 751 499 694 q 347 807 418 807 q 222 751 278 807 q 150 592 165 694 l 100 222 q 125 65 85 121 q 235 8 165 8 z "},"1":{"ha":315,"x_min":104,"x_max":274,"o":"m 124 0 l 229 751 l 104 751 l 107 772 l 199 772 q 231 781 222 772 q 249 821 240 790 l 274 821 l 157 0 l 124 0 z "},"2":{"ha":511,"x_min":26,"x_max":500,"o":"m 26 0 q 37 74 32 38 q 47 150 42 111 q 83 253 57 215 q 153 317 110 292 q 251 369 196 343 q 345 423 303 390 q 416 501 388 456 q 453 604 444 547 l 456 622 q 436 751 467 704 q 324 797 406 797 q 203 758 251 797 q 144 636 156 718 l 133 561 l 100 561 l 110 633 q 182 779 125 732 q 328 826 239 826 q 435 802 397 826 q 487 732 474 778 q 490 618 500 686 q 456 509 482 560 q 388 419 429 458 q 292 354 346 381 q 197 309 242 333 q 122 248 153 285 q 82 151 92 211 q 73 92 78 122 q 64 32 68 63 l 418 32 l 413 0 l 26 0 z "},"3":{"ha":542,"x_min":40,"x_max":515,"o":"m 219 -11 q 104 17 144 -11 q 52 92 64 44 q 47 194 40 139 l 58 268 l 94 268 l 82 183 q 108 63 72 107 q 222 17 144 19 q 347 60 296 17 q 410 182 399 104 l 419 256 q 390 371 431 329 q 276 415 350 413 l 185 415 l 189 447 l 282 447 q 353 463 318 447 q 414 507 388 478 q 446 555 433 529 q 463 610 458 581 l 468 651 q 445 756 476 713 q 333 799 414 799 q 208 756 253 799 q 156 650 164 713 l 149 590 l 111 590 l 117 639 q 182 776 129 726 q 336 826 235 826 q 476 776 438 826 q 503 639 515 726 l 500 613 q 446 494 490 539 q 347 431 401 450 q 439 365 413 415 q 454 244 465 315 l 447 194 q 415 92 440 139 q 343 17 390 44 q 219 -11 296 -11 z "},"4":{"ha":475,"x_min":3,"x_max":432,"o":"m 282 0 l 307 169 l 3 169 l 7 194 l 411 821 l 432 821 l 344 196 l 424 196 l 419 169 l 340 169 l 315 0 l 282 0 m 43 196 l 311 196 l 385 724 l 43 196 z "},"5":{"ha":549,"x_min":46,"x_max":515,"o":"m 229 -11 q 122 8 165 -11 q 63 75 79 26 q 58 213 46 124 l 61 240 l 96 240 l 93 217 q 110 65 78 111 q 235 18 142 18 q 367 72 322 18 q 425 225 411 126 l 439 331 q 440 427 447 383 q 400 497 432 471 q 301 522 368 522 q 191 490 240 522 q 121 406 142 458 l 90 406 l 149 821 l 515 821 l 510 789 l 178 789 l 133 469 q 210 529 165 510 q 307 549 254 549 q 444 503 399 549 q 474 333 490 457 l 458 228 q 409 76 444 128 q 326 7 374 25 q 229 -11 279 -11 z "},"6":{"ha":557,"x_min":53,"x_max":526,"o":"m 231 -11 q 115 17 154 -11 q 64 92 75 44 q 61 194 53 139 l 121 622 q 197 770 135 717 q 351 824 260 824 q 483 776 440 824 q 513 631 526 729 l 504 579 l 471 579 l 479 636 q 456 756 490 718 q 347 794 421 794 q 218 747 269 794 q 156 629 167 699 l 125 413 q 204 477 157 453 q 307 501 251 501 q 438 448 389 501 q 475 306 486 394 l 460 194 q 426 92 451 139 q 354 17 401 44 q 231 -11 307 -11 m 233 15 q 360 60 307 15 q 426 193 413 104 l 442 304 q 413 428 453 386 q 299 472 372 469 q 176 431 228 472 q 113 315 124 389 l 96 193 q 120 63 83 108 q 233 15 157 18 z "},"7":{"ha":388,"x_min":35,"x_max":413,"o":"m 35 0 l 376 792 l 85 792 l 88 821 l 413 821 l 407 789 l 68 0 l 35 0 z "},"8":{"ha":549,"x_min":47,"x_max":518,"o":"m 226 -11 q 111 17 151 -11 q 59 92 71 44 q 54 194 47 139 l 61 244 q 85 323 68 286 q 131 386 101 360 q 172 413 149 401 q 222 431 194 425 q 181 453 200 439 q 149 485 163 467 q 123 540 131 508 q 121 614 115 572 l 124 639 q 158 740 132 697 q 231 804 185 782 q 343 826 276 826 q 450 804 411 826 q 503 740 489 782 q 510 639 518 697 l 507 614 q 478 528 500 565 q 424 468 456 492 q 354 431 392 444 q 410 406 388 422 q 447 365 433 389 q 463 310 460 340 q 461 244 467 281 l 454 194 q 422 92 447 139 q 350 17 397 46 q 226 -11 303 -11 m 229 15 q 354 59 303 15 q 417 179 406 103 l 426 256 q 398 370 438 329 q 286 414 358 411 q 163 372 215 414 q 99 256 110 329 l 89 179 q 115 62 79 106 q 229 15 151 18 m 290 447 q 408 494 357 447 q 469 611 460 542 l 475 653 q 452 757 483 714 q 340 800 421 800 q 216 757 260 800 q 164 653 172 714 l 158 611 q 188 494 149 540 q 290 447 228 447 z "},"9":{"ha":556,"x_min":47,"x_max":521,"o":"m 222 -11 q 90 36 133 -11 q 61 182 47 83 l 69 238 l 103 238 l 94 176 q 118 57 83 96 q 225 18 153 18 q 356 66 303 18 q 418 183 408 114 l 449 401 q 370 336 417 360 q 267 313 324 313 q 172 337 213 313 q 111 406 131 361 q 99 508 92 450 l 114 618 q 147 722 122 675 q 220 796 172 768 q 343 824 268 824 q 459 796 419 824 q 510 722 499 768 q 513 618 521 675 l 453 190 q 376 42 439 96 q 222 -11 314 -11 m 275 340 q 398 383 344 340 q 461 499 451 425 l 478 619 q 454 750 490 706 q 340 797 418 794 q 214 753 267 797 q 147 619 161 708 l 132 508 q 162 385 121 428 q 275 340 203 343 z "},"\r":{"ha":833,"x_min":0,"x_max":0,"o":""}," ":{"ha":276,"x_min":0,"x_max":0,"o":""}," ":{"ha":276,"x_min":0,"x_max":0,"o":""},"A":{"ha":489,"x_min":-25,"x_max":415,"o":"m -25 0 l 299 821 l 326 821 l 415 0 l 382 0 l 357 219 l 94 219 l 7 0 l -25 0 m 101 243 l 356 243 l 300 742 l 101 243 z "},"А":{"ha":489,"x_min":-25,"x_max":415,"o":"m -25 0 l 299 821 l 326 821 l 415 0 l 382 0 l 357 219 l 94 219 l 7 0 l -25 0 m 101 243 l 356 243 l 300 742 l 101 243 z "},"Æ":{"ha":731,"x_min":-37,"x_max":719,"o":"m -37 0 l 385 821 l 719 821 l 715 794 l 413 794 l 367 446 l 629 446 l 625 419 l 364 419 l 314 26 l 622 26 l 617 0 l 276 0 l 304 219 l 107 219 l -7 0 l -37 0 m 117 243 l 308 243 l 374 728 l 376 742 l 372 731 l 117 243 z "},"Á":{"ha":489,"x_min":-25,"x_max":424,"o":"m -25 0 l 299 821 l 326 821 l 415 0 l 382 0 l 357 219 l 94 219 l 7 0 l -25 0 m 101 243 l 356 243 l 300 742 l 101 243 m 250 879 l 376 983 l 424 983 l 281 879 l 250 879 z "},"Ă":{"ha":489,"x_min":-25,"x_max":457,"o":"m -25 0 l 299 821 l 326 821 l 415 0 l 382 0 l 357 219 l 94 219 l 7 0 l -25 0 m 101 243 l 356 243 l 300 742 l 101 243 m 317 871 q 262 882 283 871 q 229 910 240 893 q 214 947 218 928 q 211 983 210 967 l 238 983 q 261 917 239 939 q 321 894 283 894 q 390 916 361 894 q 431 983 419 938 l 457 983 q 435 935 451 961 q 390 890 418 908 q 317 871 361 871 z "},"Ắ":{"ha":489,"x_min":-25,"x_max":418,"o":"m -25 0 l 299 821 l 326 821 l 415 0 l 382 0 l 357 219 l 94 219 l 7 0 l -25 0 m 101 243 l 356 243 l 300 742 l 101 243 m 317 868 q 267 881 283 868 q 244 913 250 894 q 240 949 239 932 l 267 949 q 281 904 267 918 q 319 890 294 890 q 366 904 347 890 q 392 949 385 918 l 418 949 q 388 895 413 922 q 317 868 364 868 m 307 960 l 367 1046 l 407 1046 l 328 960 l 307 960 z "},"Ặ":{"ha":489,"x_min":-25,"x_max":457,"o":"m -25 0 l 299 821 l 326 821 l 415 0 l 382 0 l 357 219 l 94 219 l 7 0 l -25 0 m 101 243 l 356 243 l 300 742 l 101 243 m 196 -128 q 174 -119 183 -128 q 165 -97 165 -110 q 174 -76 165 -85 q 196 -68 183 -68 q 217 -76 208 -68 q 226 -97 226 -85 q 217 -119 226 -110 q 196 -128 208 -128 m 317 871 q 262 882 283 871 q 229 910 240 893 q 214 947 218 928 q 211 983 210 967 l 238 983 q 261 917 239 939 q 321 894 283 894 q 390 916 361 894 q 431 983 419 938 l 457 983 q 435 935 451 961 q 390 890 418 908 q 317 871 361 871 z "},"Ằ":{"ha":489,"x_min":-25,"x_max":418,"o":"m -25 0 l 299 821 l 326 821 l 415 0 l 382 0 l 357 219 l 94 219 l 7 0 l -25 0 m 101 243 l 356 243 l 300 742 l 101 243 m 317 868 q 267 881 283 868 q 244 913 250 894 q 240 949 239 932 l 267 949 q 281 904 267 918 q 319 890 294 890 q 366 904 347 890 q 392 949 385 918 l 418 949 q 388 895 413 922 q 317 868 364 868 m 340 960 l 279 1046 l 318 1046 l 361 960 l 340 960 z "},"Ẳ":{"ha":489,"x_min":-25,"x_max":418,"o":"m -25 0 l 299 821 l 326 821 l 415 0 l 382 0 l 357 219 l 94 219 l 7 0 l -25 0 m 101 243 l 356 243 l 300 742 l 101 243 m 317 868 q 267 881 283 868 q 244 913 250 894 q 240 949 239 932 l 267 949 q 281 904 267 918 q 319 890 294 890 q 366 904 347 890 q 392 949 385 918 l 418 949 q 388 895 413 922 q 317 868 364 868 m 322 956 l 324 974 q 337 992 325 988 q 360 1003 349 997 q 371 1024 371 1008 l 371 1026 q 367 1049 371 1038 q 344 1060 363 1060 q 314 1036 321 1060 l 293 1040 q 350 1078 307 1078 q 386 1063 378 1078 q 394 1025 394 1047 l 394 1024 q 387 997 394 1006 q 369 985 379 989 q 352 978 360 982 q 344 968 344 975 l 344 956 l 322 956 z "},"Ẵ":{"ha":489,"x_min":-25,"x_max":436,"o":"m -25 0 l 299 821 l 326 821 l 415 0 l 382 0 l 357 219 l 94 219 l 7 0 l -25 0 m 101 243 l 356 243 l 300 742 l 101 243 m 317 868 q 267 881 283 868 q 244 913 250 894 q 240 949 239 932 l 267 949 q 281 904 267 918 q 319 890 294 890 q 366 904 347 890 q 392 949 385 918 l 418 949 q 388 895 413 922 q 317 868 364 868 m 376 969 q 356 974 363 969 q 338 988 349 979 q 322 999 332 993 q 301 1006 313 1006 q 280 997 289 1006 q 265 971 271 988 l 247 971 q 268 1010 253 994 q 306 1026 283 1026 q 328 1021 318 1026 q 347 1007 338 1015 q 365 997 357 1000 q 381 993 372 993 q 401 1000 392 993 q 415 1025 410 1007 l 436 1025 q 414 985 431 1001 q 376 969 397 969 z "},"Ǎ":{"ha":489,"x_min":-25,"x_max":469,"o":"m -25 0 l 299 821 l 326 821 l 415 0 l 382 0 l 357 219 l 94 219 l 7 0 l -25 0 m 101 243 l 356 243 l 300 742 l 101 243 m 300 872 l 199 986 l 229 986 l 321 896 l 440 986 l 469 986 l 335 872 l 300 872 z "},"Â":{"ha":489,"x_min":-25,"x_max":454,"o":"m -25 0 l 299 821 l 326 821 l 415 0 l 382 0 l 357 219 l 94 219 l 7 0 l -25 0 m 101 243 l 356 243 l 300 742 l 101 243 m 183 872 l 318 986 l 353 986 l 454 872 l 425 872 l 331 963 l 214 872 l 183 872 z "},"Ấ":{"ha":489,"x_min":-25,"x_max":518,"o":"m -25 0 l 299 821 l 326 821 l 415 0 l 382 0 l 357 219 l 94 219 l 7 0 l -25 0 m 101 243 l 356 243 l 300 742 l 101 243 m 221 871 l 317 953 l 346 953 l 417 871 l 389 871 l 328 931 l 250 871 l 221 871 m 418 919 l 479 1006 l 518 1006 l 439 919 l 418 919 z "},"Ậ":{"ha":489,"x_min":-25,"x_max":454,"o":"m -25 0 l 299 821 l 326 821 l 415 0 l 382 0 l 357 219 l 94 219 l 7 0 l -25 0 m 101 243 l 356 243 l 300 742 l 101 243 m 196 -128 q 174 -119 183 -128 q 165 -97 165 -110 q 174 -76 165 -85 q 196 -68 183 -68 q 217 -76 208 -68 q 226 -97 226 -85 q 217 -119 226 -110 q 196 -128 208 -128 m 183 872 l 318 986 l 353 986 l 454 872 l 425 872 l 331 963 l 214 872 l 183 872 z "},"Ầ":{"ha":489,"x_min":-25,"x_max":472,"o":"m -25 0 l 299 821 l 326 821 l 415 0 l 382 0 l 357 219 l 94 219 l 7 0 l -25 0 m 101 243 l 356 243 l 300 742 l 101 243 m 221 871 l 317 953 l 346 953 l 417 871 l 389 871 l 328 931 l 250 871 l 221 871 m 451 919 l 390 1006 l 431 1006 l 472 919 l 451 919 z "},"Ẩ":{"ha":489,"x_min":-25,"x_max":506,"o":"m -25 0 l 299 821 l 326 821 l 415 0 l 382 0 l 357 219 l 94 219 l 7 0 l -25 0 m 101 243 l 356 243 l 300 742 l 101 243 m 221 871 l 317 953 l 346 953 l 417 871 l 389 871 l 328 931 l 250 871 l 221 871 m 433 915 l 436 933 q 450 952 439 947 q 472 963 461 957 q 483 983 483 968 l 483 988 q 480 1008 483 996 q 457 1021 476 1021 q 425 997 433 1021 l 404 1001 q 425 1028 411 1018 q 461 1038 439 1038 q 497 1023 489 1038 q 506 986 506 1008 l 506 983 q 498 957 506 965 q 481 945 490 949 q 463 938 471 942 q 456 928 456 935 l 456 915 l 433 915 z "},"Ẫ":{"ha":489,"x_min":-25,"x_max":428,"o":"m -25 0 l 299 821 l 326 821 l 415 0 l 382 0 l 357 219 l 94 219 l 7 0 l -25 0 m 101 243 l 356 243 l 300 742 l 101 243 m 221 871 l 317 953 l 346 953 l 417 871 l 389 871 l 328 931 l 250 871 l 221 871 m 368 975 q 349 978 357 975 q 331 992 342 982 q 315 1003 324 997 q 293 1010 306 1010 q 273 1002 282 1010 q 258 976 264 994 l 239 976 q 260 1016 244 1000 q 297 1032 275 1032 q 319 1026 310 1032 q 339 1013 329 1019 q 356 1001 349 1006 q 372 997 363 997 q 393 1004 383 997 q 408 1029 403 1011 l 428 1029 q 415 1001 424 1014 q 394 982 406 989 q 368 975 382 975 z "},"Ä":{"ha":489,"x_min":-25,"x_max":415,"o":"m -25 0 l 299 821 l 326 821 l 415 0 l 382 0 l 357 219 l 94 219 l 7 0 l -25 0 m 101 243 l 356 243 l 300 742 l 101 243 m 269 893 q 248 902 257 893 q 239 924 239 911 q 248 944 239 936 q 269 953 257 953 q 291 944 282 953 q 300 924 300 936 q 291 902 300 911 q 269 893 282 893 m 381 893 q 359 902 368 893 q 350 924 350 911 q 359 944 350 936 q 381 953 368 953 q 402 944 393 953 q 411 924 411 936 q 402 902 411 911 q 381 893 393 893 z "},"Ạ":{"ha":489,"x_min":-25,"x_max":415,"o":"m -25 0 l 299 821 l 326 821 l 415 0 l 382 0 l 357 219 l 94 219 l 7 0 l -25 0 m 101 243 l 356 243 l 300 742 l 101 243 m 196 -128 q 174 -119 183 -128 q 165 -97 165 -110 q 174 -76 165 -85 q 196 -68 183 -68 q 217 -76 208 -68 q 226 -97 226 -85 q 217 -119 226 -110 q 196 -128 208 -128 z "},"À":{"ha":489,"x_min":-25,"x_max":415,"o":"m -25 0 l 299 821 l 326 821 l 415 0 l 382 0 l 357 219 l 94 219 l 7 0 l -25 0 m 101 243 l 356 243 l 300 742 l 101 243 m 333 879 l 204 983 l 251 983 l 364 879 l 333 879 z "},"Ả":{"ha":489,"x_min":-25,"x_max":415,"o":"m -25 0 l 299 821 l 326 821 l 415 0 l 382 0 l 357 219 l 94 219 l 7 0 l -25 0 m 101 243 l 356 243 l 300 742 l 101 243 m 306 861 l 308 888 q 328 913 311 907 q 360 928 344 919 q 376 958 376 936 l 376 963 q 369 997 376 981 q 336 1013 363 1013 q 289 978 301 1013 l 265 983 q 293 1020 275 1007 q 342 1033 311 1033 q 390 1014 378 1033 q 401 961 401 994 l 401 958 q 391 922 401 933 q 366 904 381 910 q 340 894 351 899 q 329 879 329 889 l 328 861 l 306 861 z "},"Ā":{"ha":489,"x_min":-25,"x_max":446,"o":"m -25 0 l 299 821 l 326 821 l 415 0 l 382 0 l 357 219 l 94 219 l 7 0 l -25 0 m 101 243 l 356 243 l 300 742 l 101 243 m 206 910 l 208 933 l 446 933 l 443 910 l 206 910 z "},"Ą":{"ha":489,"x_min":-25,"x_max":421,"o":"m -25 0 l 299 821 l 326 821 l 415 0 l 382 0 l 357 219 l 94 219 l 7 0 l -25 0 m 101 243 l 356 243 l 300 742 l 101 243 m 369 -179 q 315 -159 338 -179 q 297 -104 293 -139 q 333 -38 304 -64 q 389 0 363 -12 l 418 0 q 356 -46 379 -19 q 328 -100 332 -72 q 340 -142 324 -128 q 374 -156 356 -156 q 399 -152 388 -156 q 415 -146 410 -149 l 421 -165 q 398 -175 411 -171 q 369 -179 385 -179 z "},"Å":{"ha":489,"x_min":-25,"x_max":436,"o":"m -25 0 l 299 821 l 326 821 l 415 0 l 382 0 l 357 219 l 94 219 l 7 0 l -25 0 m 101 243 l 356 243 l 300 742 l 101 243 m 314 846 q 245 874 269 846 q 226 942 221 903 q 265 1010 232 982 q 342 1039 297 1039 q 413 1010 390 1039 q 431 942 436 982 q 390 874 425 903 q 314 846 356 846 m 318 871 q 376 891 353 871 q 403 942 399 911 q 390 994 407 975 q 338 1014 372 1014 q 281 994 303 1014 q 254 942 258 975 q 267 891 250 911 q 318 871 283 871 z "},"Ã":{"ha":489,"x_min":-25,"x_max":456,"o":"m -25 0 l 299 821 l 326 821 l 415 0 l 382 0 l 357 219 l 94 219 l 7 0 l -25 0 m 101 243 l 356 243 l 300 742 l 101 243 m 375 890 q 349 895 358 890 q 322 914 339 900 q 300 931 313 921 q 271 940 288 940 q 241 929 254 940 q 219 892 228 918 l 194 892 q 224 944 203 924 q 275 965 244 965 q 306 957 292 965 q 333 938 319 949 q 356 922 346 928 q 379 917 365 917 q 409 926 396 917 q 431 963 422 936 l 456 963 q 426 911 447 932 q 375 890 406 890 z "},"B":{"ha":578,"x_min":60,"x_max":543,"o":"m 60 0 l 175 821 l 401 821 q 503 791 463 821 q 532 686 543 761 l 518 582 q 496 512 513 542 q 460 464 479 482 q 405 438 435 443 q 358 432 375 432 l 358 436 q 418 430 390 436 q 460 406 446 424 q 482 356 475 385 q 483 290 489 328 l 467 167 q 430 59 457 94 q 363 12 403 24 q 274 0 324 0 l 60 0 m 96 25 l 275 25 q 349 35 317 25 q 403 77 382 46 q 433 171 425 108 l 451 293 q 421 393 463 368 q 314 418 379 418 l 151 418 l 96 25 m 156 444 l 318 444 q 433 481 392 444 q 483 578 475 517 l 499 681 q 476 767 507 739 q 397 796 444 796 l 204 796 l 156 444 z "},"Б":{"ha":531,"x_min":60,"x_max":519,"o":"m 60 0 l 176 821 l 519 821 l 515 793 l 206 793 l 179 604 l 329 604 q 431 583 397 604 q 474 521 465 561 q 474 422 482 481 l 442 196 q 422 110 435 147 q 386 49 408 74 q 329 13 364 25 q 246 0 294 0 l 60 0 m 247 25 q 340 48 307 25 q 388 110 372 71 q 408 196 403 149 l 439 413 q 442 492 446 454 q 413 555 439 531 q 321 579 386 579 l 175 579 l 99 25 l 247 25 z "},"C":{"ha":558,"x_min":57,"x_max":531,"o":"m 232 -17 q 137 -4 178 -17 q 76 47 96 8 q 68 167 57 86 l 138 651 q 179 770 149 732 q 255 820 210 808 q 354 832 300 832 q 451 819 410 832 q 511 769 492 807 q 519 651 531 731 l 501 526 l 468 526 l 485 649 q 480 753 496 719 q 430 798 464 788 q 350 808 396 808 q 265 798 303 808 q 203 753 228 788 q 168 649 179 719 l 101 168 q 106 63 92 97 q 156 19 121 29 q 236 8 190 8 q 321 19 283 8 q 383 63 358 29 q 418 168 408 97 l 431 265 l 464 265 l 450 167 q 409 46 439 85 q 334 -5 379 7 q 232 -17 289 -17 z "},"Ć":{"ha":558,"x_min":57,"x_max":531,"o":"m 232 -17 q 137 -4 178 -17 q 76 47 96 8 q 68 167 57 86 l 138 651 q 179 770 149 732 q 255 820 210 808 q 354 832 300 832 q 451 819 410 832 q 511 769 492 807 q 519 651 531 731 l 501 526 l 468 526 l 485 649 q 480 753 496 719 q 430 798 464 788 q 350 808 396 808 q 265 798 303 808 q 203 753 228 788 q 168 649 179 719 l 101 168 q 106 63 92 97 q 156 19 121 29 q 236 8 190 8 q 321 19 283 8 q 383 63 358 29 q 418 168 408 97 l 431 265 l 464 265 l 450 167 q 409 46 439 85 q 334 -5 379 7 q 232 -17 289 -17 m 285 879 l 411 983 l 458 983 l 315 879 l 285 879 z "},"Č":{"ha":558,"x_min":57,"x_max":531,"o":"m 232 -17 q 137 -4 178 -17 q 76 47 96 8 q 68 167 57 86 l 138 651 q 179 770 149 732 q 255 820 210 808 q 354 832 300 832 q 451 819 410 832 q 511 769 492 807 q 519 651 531 731 l 501 526 l 468 526 l 485 649 q 480 753 496 719 q 430 798 464 788 q 350 808 396 808 q 265 798 303 808 q 203 753 228 788 q 168 649 179 719 l 101 168 q 106 63 92 97 q 156 19 121 29 q 236 8 190 8 q 321 19 283 8 q 383 63 358 29 q 418 168 408 97 l 431 265 l 464 265 l 450 167 q 409 46 439 85 q 334 -5 379 7 q 232 -17 289 -17 m 335 872 l 233 986 l 264 986 l 356 896 l 475 986 l 504 986 l 369 872 l 335 872 z "},"Ç":{"ha":558,"x_min":57,"x_max":531,"o":"m 232 -17 q 137 -4 178 -17 q 76 47 96 8 q 68 167 57 86 l 138 651 q 179 770 149 732 q 255 820 210 808 q 354 832 300 832 q 451 819 410 832 q 511 769 492 807 q 519 651 531 731 l 501 526 l 468 526 l 485 649 q 480 753 496 719 q 430 798 464 788 q 350 808 396 808 q 265 798 303 808 q 203 753 228 788 q 168 649 179 719 l 101 168 q 106 63 92 97 q 156 19 121 29 q 236 8 190 8 q 321 19 283 8 q 383 63 358 29 q 418 168 408 97 l 431 265 l 464 265 l 450 167 q 409 46 439 85 q 334 -5 379 7 q 232 -17 289 -17 m 199 -186 q 167 -181 181 -186 q 143 -169 154 -175 l 154 -150 q 176 -160 161 -156 q 200 -165 192 -165 q 249 -151 232 -165 q 267 -119 265 -137 q 224 -75 274 -75 q 202 -79 214 -75 q 179 -90 190 -83 l 164 -81 l 219 0 l 243 0 l 194 -69 l 188 -68 q 211 -59 199 -61 q 233 -57 224 -57 q 281 -76 265 -57 q 293 -115 296 -94 q 264 -167 289 -147 q 199 -186 239 -186 z "},"Ċ":{"ha":558,"x_min":57,"x_max":531,"o":"m 232 -17 q 137 -4 178 -17 q 76 47 96 8 q 68 167 57 86 l 138 651 q 179 770 149 732 q 255 820 210 808 q 354 832 300 832 q 451 819 410 832 q 511 769 492 807 q 519 651 531 731 l 501 526 l 468 526 l 485 649 q 480 753 496 719 q 430 798 464 788 q 350 808 396 808 q 265 798 303 808 q 203 753 228 788 q 168 649 179 719 l 101 168 q 106 63 92 97 q 156 19 121 29 q 236 8 190 8 q 321 19 283 8 q 383 63 358 29 q 418 168 408 97 l 431 265 l 464 265 l 450 167 q 409 46 439 85 q 334 -5 379 7 q 232 -17 289 -17 m 361 894 q 340 903 349 894 q 331 925 331 913 q 340 946 331 938 q 361 954 349 954 q 383 946 374 954 q 392 925 392 938 q 383 903 392 913 q 361 894 374 894 z "},"Ч":{"ha":521,"x_min":56,"x_max":479,"o":"m 329 0 l 363 236 q 298 203 340 219 q 207 188 256 188 q 98 213 131 188 q 60 281 65 238 q 63 375 56 324 l 126 821 l 160 821 l 96 372 q 108 256 86 296 q 214 217 129 217 q 319 238 283 217 q 367 268 354 258 l 446 821 l 479 821 l 363 0 l 329 0 z "},"D":{"ha":586,"x_min":60,"x_max":544,"o":"m 60 0 l 176 821 l 392 821 q 477 806 442 821 q 528 753 513 792 q 533 642 544 714 l 469 181 q 432 69 460 108 q 364 15 404 29 q 274 0 324 0 l 60 0 m 97 25 l 278 25 q 381 58 339 25 q 436 183 422 90 l 500 636 q 480 763 514 729 q 385 796 446 796 l 204 796 l 97 25 z "},"Ď":{"ha":586,"x_min":60,"x_max":544,"o":"m 60 0 l 176 821 l 392 821 q 477 806 442 821 q 528 753 513 792 q 533 642 544 714 l 469 181 q 432 69 460 108 q 364 15 404 29 q 274 0 324 0 l 60 0 m 97 25 l 278 25 q 381 58 339 25 q 436 183 422 90 l 500 636 q 480 763 514 729 q 385 796 446 796 l 204 796 l 97 25 m 349 872 l 247 986 l 278 986 l 369 896 l 489 986 l 518 986 l 383 872 l 349 872 z "},"Đ":{"ha":594,"x_min":25,"x_max":542,"o":"m 57 0 l 174 821 l 389 821 q 474 806 439 821 q 526 753 510 792 q 531 642 542 714 l 467 181 q 429 69 457 108 q 361 15 401 29 q 271 0 321 0 l 57 0 m 25 386 l 28 415 l 251 415 l 249 386 l 25 386 m 94 25 l 274 25 q 378 58 336 25 q 433 183 419 90 l 497 636 q 478 763 511 729 q 382 796 444 796 l 201 796 l 94 25 z "},"Д":{"ha":726,"x_min":-14,"x_max":628,"o":"m -14 -142 l 11 25 l 74 25 q 131 54 108 28 q 169 153 154 81 q 198 287 183 219 q 226 421 213 354 q 254 555 240 488 q 282 689 268 622 q 310 821 296 756 l 628 821 l 517 25 l 628 25 l 603 -142 l 569 -142 l 590 -1 l 40 -1 l 19 -142 l -14 -142 m 150 25 l 482 25 l 589 793 l 338 793 l 207 161 q 188 89 199 129 q 150 25 176 49 z "},"Δ":{"ha":703,"x_min":67,"x_max":633,"o":"m 67 0 l 336 813 l 376 813 l 633 0 l 67 0 m 118 35 l 579 35 l 354 760 l 118 35 z "},"Ђ":{"ha":596,"x_min":79,"x_max":544,"o":"m 124 0 l 236 793 l 79 793 l 83 821 l 433 821 l 429 793 l 271 793 l 232 524 q 290 576 250 551 q 393 600 331 600 q 502 576 469 600 q 540 509 535 551 q 536 414 544 467 l 514 249 q 483 120 503 169 q 434 44 463 71 q 370 9 406 18 q 293 0 335 0 q 283 0 288 0 q 272 0 278 0 l 276 25 q 288 25 282 25 q 299 25 293 25 q 422 81 381 25 q 479 246 464 136 l 501 414 q 492 533 513 492 q 385 574 471 574 q 278 540 317 574 q 226 475 239 507 l 158 0 l 124 0 z "},"Ѕ":{"ha":503,"x_min":36,"x_max":482,"o":"m 211 -8 q 108 14 149 -8 q 51 88 67 36 q 50 231 36 140 l 57 275 l 88 275 l 81 231 q 81 102 68 149 q 128 37 94 56 q 208 18 161 18 q 320 60 269 18 q 386 207 371 101 q 380 311 396 275 q 328 368 364 347 q 242 410 293 389 q 169 449 203 426 q 117 510 135 471 q 108 615 100 550 q 143 728 118 682 q 211 797 168 774 q 318 821 254 821 q 442 774 401 821 q 471 646 482 728 l 460 561 q 444 561 453 561 q 429 561 436 561 l 440 643 q 417 754 450 714 q 314 794 385 794 q 194 750 236 794 q 139 617 153 706 q 149 522 131 557 q 200 466 167 486 q 272 431 233 446 q 367 380 332 406 q 415 315 403 354 q 418 208 428 276 q 376 81 407 128 q 301 13 344 33 q 211 -8 258 -8 z "},"Џ":{"ha":561,"x_min":60,"x_max":519,"o":"m 197 -137 l 215 0 l 60 0 l 175 821 l 210 821 l 99 26 l 375 26 l 486 821 l 519 821 l 404 0 l 246 0 l 228 -137 l 197 -137 z "},"E":{"ha":485,"x_min":60,"x_max":514,"o":"m 60 0 l 176 821 l 514 821 l 508 794 l 206 794 l 157 446 l 390 446 l 388 419 l 153 419 l 99 26 l 401 26 l 397 0 l 60 0 z "},"É":{"ha":485,"x_min":60,"x_max":514,"o":"m 60 0 l 176 821 l 514 821 l 508 794 l 206 794 l 157 446 l 390 446 l 388 419 l 153 419 l 99 26 l 401 26 l 397 0 l 60 0 m 281 879 l 407 983 l 454 983 l 311 879 l 281 879 z "},"Ě":{"ha":485,"x_min":60,"x_max":514,"o":"m 60 0 l 176 821 l 514 821 l 508 794 l 206 794 l 157 446 l 390 446 l 388 419 l 153 419 l 99 26 l 401 26 l 397 0 l 60 0 m 331 872 l 229 986 l 260 986 l 351 896 l 471 986 l 500 986 l 365 872 l 331 872 z "},"Ê":{"ha":485,"x_min":60,"x_max":514,"o":"m 60 0 l 176 821 l 514 821 l 508 794 l 206 794 l 157 446 l 390 446 l 388 419 l 153 419 l 99 26 l 401 26 l 397 0 l 60 0 m 214 872 l 349 986 l 383 986 l 485 872 l 456 872 l 361 963 l 244 872 l 214 872 z "},"Ế":{"ha":485,"x_min":60,"x_max":549,"o":"m 60 0 l 176 821 l 514 821 l 508 794 l 206 794 l 157 446 l 390 446 l 388 419 l 153 419 l 99 26 l 401 26 l 397 0 l 60 0 m 251 871 l 347 953 l 376 953 l 447 871 l 419 871 l 358 931 l 281 871 l 251 871 m 449 919 l 510 1006 l 549 1006 l 469 919 l 449 919 z "},"Ệ":{"ha":485,"x_min":60,"x_max":514,"o":"m 60 0 l 176 821 l 514 821 l 508 794 l 206 794 l 157 446 l 390 446 l 388 419 l 153 419 l 99 26 l 401 26 l 397 0 l 60 0 m 181 -128 q 159 -119 168 -128 q 150 -97 150 -110 q 159 -76 150 -85 q 181 -68 168 -68 q 202 -76 193 -68 q 211 -97 211 -85 q 202 -119 211 -110 q 181 -128 193 -128 m 214 872 l 349 986 l 383 986 l 485 872 l 456 872 l 361 963 l 244 872 l 214 872 z "},"Ề":{"ha":485,"x_min":60,"x_max":514,"o":"m 60 0 l 176 821 l 514 821 l 508 794 l 206 794 l 157 446 l 390 446 l 388 419 l 153 419 l 99 26 l 401 26 l 397 0 l 60 0 m 251 871 l 347 953 l 376 953 l 447 871 l 419 871 l 358 931 l 281 871 l 251 871 m 482 919 l 421 1006 l 461 1006 l 503 919 l 482 919 z "},"Ể":{"ha":485,"x_min":60,"x_max":536,"o":"m 60 0 l 176 821 l 514 821 l 508 794 l 206 794 l 157 446 l 390 446 l 388 419 l 153 419 l 99 26 l 401 26 l 397 0 l 60 0 m 251 871 l 347 953 l 376 953 l 447 871 l 419 871 l 358 931 l 281 871 l 251 871 m 464 915 l 467 933 q 481 952 469 947 q 503 963 492 957 q 514 983 514 968 l 514 988 q 510 1008 514 996 q 488 1021 507 1021 q 456 997 464 1021 l 435 1001 q 456 1028 442 1018 q 492 1038 469 1038 q 528 1023 519 1038 q 536 986 536 1008 l 536 983 q 528 957 536 965 q 511 945 521 949 q 494 938 501 942 q 486 928 486 935 l 486 915 l 464 915 z "},"Ễ":{"ha":485,"x_min":60,"x_max":514,"o":"m 60 0 l 176 821 l 514 821 l 508 794 l 206 794 l 157 446 l 390 446 l 388 419 l 153 419 l 99 26 l 401 26 l 397 0 l 60 0 m 251 871 l 347 953 l 376 953 l 447 871 l 419 871 l 358 931 l 281 871 l 251 871 m 399 975 q 380 978 388 975 q 361 992 372 982 q 345 1003 354 997 q 324 1010 336 1010 q 303 1002 313 1010 q 289 976 294 994 l 269 976 q 290 1016 275 1000 q 328 1032 306 1032 q 350 1026 340 1032 q 369 1013 360 1019 q 386 1001 379 1006 q 403 997 393 997 q 424 1004 414 997 q 439 1029 433 1011 l 458 1029 q 445 1001 454 1014 q 424 982 436 989 q 399 975 413 975 z "},"Ë":{"ha":485,"x_min":60,"x_max":514,"o":"m 60 0 l 176 821 l 514 821 l 508 794 l 206 794 l 157 446 l 390 446 l 388 419 l 153 419 l 99 26 l 401 26 l 397 0 l 60 0 m 300 893 q 278 902 288 893 q 269 924 269 911 q 278 944 269 936 q 300 953 288 953 q 322 944 313 953 q 331 924 331 936 q 322 902 331 911 q 300 893 313 893 m 411 893 q 390 902 399 893 q 381 924 381 911 q 390 944 381 936 q 411 953 399 953 q 433 944 424 953 q 442 924 442 936 q 433 902 442 911 q 411 893 424 893 z "},"Ė":{"ha":485,"x_min":60,"x_max":514,"o":"m 60 0 l 176 821 l 514 821 l 508 794 l 206 794 l 157 446 l 390 446 l 388 419 l 153 419 l 99 26 l 401 26 l 397 0 l 60 0 m 357 894 q 335 903 344 894 q 326 925 326 913 q 335 946 326 938 q 357 954 344 954 q 378 946 369 954 q 388 925 388 938 q 378 903 388 913 q 357 894 369 894 z "},"Ẹ":{"ha":485,"x_min":60,"x_max":514,"o":"m 60 0 l 176 821 l 514 821 l 508 794 l 206 794 l 157 446 l 390 446 l 388 419 l 153 419 l 99 26 l 401 26 l 397 0 l 60 0 m 181 -128 q 159 -119 168 -128 q 150 -97 150 -110 q 159 -76 150 -85 q 181 -68 168 -68 q 202 -76 193 -68 q 211 -97 211 -85 q 202 -119 211 -110 q 181 -128 193 -128 z "},"Ф":{"ha":608,"x_min":44,"x_max":583,"o":"m 239 -1 l 251 83 l 228 83 q 86 129 128 83 q 58 276 44 175 l 97 546 q 165 692 111 646 q 319 739 219 739 l 343 739 l 356 821 l 390 821 l 378 739 l 396 739 q 540 696 496 739 q 568 542 583 653 l 532 281 q 461 125 517 167 q 303 83 406 83 l 286 83 l 274 -1 l 239 -1 m 232 108 l 254 108 l 340 714 l 318 714 q 191 673 238 714 q 131 542 144 632 l 94 281 q 116 149 81 190 q 232 108 151 108 m 306 108 q 436 145 388 108 q 499 282 485 182 l 535 539 q 511 676 550 638 q 390 714 472 714 l 375 714 l 289 108 l 306 108 z "},"È":{"ha":485,"x_min":60,"x_max":514,"o":"m 60 0 l 176 821 l 514 821 l 508 794 l 206 794 l 157 446 l 390 446 l 388 419 l 153 419 l 99 26 l 401 26 l 397 0 l 60 0 m 364 879 l 235 983 l 282 983 l 394 879 l 364 879 z "},"Ẻ":{"ha":485,"x_min":60,"x_max":514,"o":"m 60 0 l 176 821 l 514 821 l 508 794 l 206 794 l 157 446 l 390 446 l 388 419 l 153 419 l 99 26 l 401 26 l 397 0 l 60 0 m 336 861 l 339 888 q 358 913 342 907 q 391 928 375 919 q 407 958 407 936 l 407 963 q 400 997 407 981 q 367 1013 393 1013 q 319 978 332 1013 l 296 983 q 324 1020 306 1007 q 372 1033 342 1033 q 420 1014 408 1033 q 432 961 432 994 l 432 958 q 422 922 432 933 q 397 904 411 910 q 371 894 382 899 q 360 879 360 889 l 358 861 l 336 861 z "},"Л":{"ha":594,"x_min":-31,"x_max":553,"o":"m -31 0 l -26 25 q 21 48 1 25 q 53 128 40 71 l 197 821 l 553 821 l 436 0 l 401 0 l 513 793 l 225 793 l 83 115 q 74 83 81 101 q 56 47 67 64 q 26 16 44 29 q -17 0 8 3 l -31 0 z "},"М":{"ha":732,"x_min":60,"x_max":690,"o":"m 60 0 l 176 821 l 208 821 l 325 53 l 664 821 l 690 821 l 574 0 l 542 0 l 640 701 l 332 0 l 303 0 l 192 701 l 93 0 l 60 0 z "},"Ē":{"ha":485,"x_min":60,"x_max":514,"o":"m 60 0 l 176 821 l 514 821 l 508 794 l 206 794 l 157 446 l 390 446 l 388 419 l 153 419 l 99 26 l 401 26 l 397 0 l 60 0 m 236 910 l 239 933 l 476 933 l 474 910 l 236 910 z "},"Н":{"ha":601,"x_min":60,"x_max":560,"o":"m 60 0 l 176 821 l 210 821 l 157 446 l 474 446 l 528 821 l 560 821 l 443 0 l 411 0 l 469 418 l 153 418 l 93 0 l 60 0 z "},"Ŋ":{"ha":601,"x_min":60,"x_max":560,"o":"m 292 -228 q 269 -228 279 -228 q 244 -226 258 -228 l 249 -199 l 296 -200 q 363 -183 340 -201 q 393 -112 386 -164 l 410 1 l 197 731 l 93 0 l 60 0 l 176 821 l 207 821 l 422 75 l 528 821 l 560 821 l 435 -62 q 415 -160 428 -124 q 374 -212 401 -196 q 292 -228 346 -228 z "},"Ę":{"ha":485,"x_min":60,"x_max":514,"o":"m 60 0 l 176 821 l 514 821 l 508 794 l 206 794 l 157 446 l 390 446 l 388 419 l 153 419 l 99 26 l 401 26 l 397 0 l 60 0 m 344 -165 q 290 -145 313 -165 q 272 -90 268 -125 q 308 -24 279 -50 q 364 14 338 1 l 393 14 q 331 -32 354 -6 q 303 -86 307 -58 q 315 -128 299 -114 q 349 -142 331 -142 q 374 -138 363 -142 q 390 -132 385 -135 l 396 -151 q 373 -161 386 -157 q 344 -165 360 -165 z "},"Р":{"ha":526,"x_min":60,"x_max":544,"o":"m 60 0 l 176 821 l 404 821 q 505 791 465 821 q 533 686 544 761 l 511 529 q 488 451 506 488 q 428 393 469 415 q 311 371 386 371 l 147 371 l 94 0 l 60 0 m 150 396 l 313 396 q 427 431 385 396 q 479 536 469 467 l 499 679 q 476 767 507 739 q 399 796 444 796 l 206 796 l 150 396 z "},"Э":{"ha":567,"x_min":50,"x_max":528,"o":"m 232 -17 q 133 -5 175 -17 q 70 46 90 7 q 61 168 50 85 l 76 268 l 111 268 l 96 163 q 102 61 86 94 q 153 17 118 28 q 235 7 189 7 q 317 17 281 7 q 380 61 354 28 q 414 163 406 94 l 449 401 l 214 401 l 217 429 l 451 429 l 482 649 q 476 750 492 717 q 428 794 461 783 q 347 806 394 806 q 263 796 300 806 q 200 754 225 786 q 165 654 175 722 l 147 522 l 113 522 l 129 649 q 172 767 142 728 q 248 819 203 807 q 349 832 293 832 q 447 819 404 832 q 508 768 489 807 q 517 649 528 729 l 449 168 q 407 48 438 88 q 331 -4 376 8 q 232 -17 286 -17 z "},"С":{"ha":558,"x_min":57,"x_max":531,"o":"m 232 -17 q 137 -4 178 -17 q 76 47 96 8 q 68 167 57 86 l 138 651 q 179 770 149 732 q 255 820 210 808 q 354 832 300 832 q 451 819 410 832 q 511 769 492 807 q 519 651 531 731 l 501 526 l 468 526 l 485 649 q 480 753 496 719 q 430 798 464 788 q 350 808 396 808 q 265 798 303 808 q 203 753 228 788 q 168 649 179 719 l 101 168 q 106 63 92 97 q 156 19 121 29 q 236 8 190 8 q 321 19 283 8 q 383 63 358 29 q 418 168 408 97 l 431 265 l 464 265 l 450 167 q 409 46 439 85 q 334 -5 379 7 q 232 -17 289 -17 z "},"Ð":{"ha":594,"x_min":25,"x_max":542,"o":"m 57 0 l 174 821 l 389 821 q 474 806 439 821 q 526 753 510 792 q 531 642 542 714 l 467 181 q 429 69 457 108 q 361 15 401 29 q 271 0 321 0 l 57 0 m 25 386 l 28 415 l 251 415 l 249 386 l 25 386 m 94 25 l 274 25 q 378 58 336 25 q 433 183 419 90 l 497 636 q 478 763 511 729 q 382 796 444 796 l 201 796 l 94 25 z "},"Ẽ":{"ha":485,"x_min":60,"x_max":514,"o":"m 60 0 l 176 821 l 514 821 l 508 794 l 206 794 l 157 446 l 390 446 l 388 419 l 153 419 l 99 26 l 401 26 l 397 0 l 60 0 m 406 890 q 379 895 389 890 q 353 914 369 900 q 331 931 343 921 q 301 940 318 940 q 272 929 285 940 q 250 892 258 918 l 225 892 q 254 944 233 924 q 306 965 275 965 q 336 957 322 965 q 364 938 350 949 q 386 922 376 928 q 410 917 396 917 q 440 926 426 917 q 461 963 453 936 l 486 963 q 457 911 478 932 q 406 890 436 890 z "},"F":{"ha":469,"x_min":60,"x_max":514,"o":"m 60 0 l 176 821 l 514 821 l 508 794 l 206 794 l 157 446 l 390 446 l 388 419 l 153 419 l 94 0 l 60 0 z "},"G":{"ha":564,"x_min":57,"x_max":531,"o":"m 229 -17 q 136 -4 176 -17 q 76 47 96 8 q 68 165 57 86 l 138 651 q 178 770 149 732 q 254 820 208 808 q 356 832 300 832 q 452 819 411 832 q 512 769 493 807 q 519 651 531 731 l 506 556 l 472 556 l 485 647 q 481 752 496 718 q 431 797 465 786 q 350 807 397 807 q 265 797 303 807 q 203 752 228 786 q 168 647 178 718 l 101 168 q 106 63 92 97 q 156 19 121 29 q 236 8 190 8 q 356 50 306 8 q 418 168 407 92 l 443 346 l 308 346 l 311 371 l 479 371 l 428 0 l 404 0 l 415 89 q 396 63 406 76 q 378 40 386 50 q 314 -3 350 11 q 229 -17 278 -17 z "},"Ğ":{"ha":564,"x_min":57,"x_max":531,"o":"m 229 -17 q 136 -4 176 -17 q 76 47 96 8 q 68 165 57 86 l 138 651 q 178 770 149 732 q 254 820 208 808 q 356 832 300 832 q 452 819 411 832 q 512 769 493 807 q 519 651 531 731 l 506 556 l 472 556 l 485 647 q 481 752 496 718 q 431 797 465 786 q 350 807 397 807 q 265 797 303 807 q 203 752 228 786 q 168 647 178 718 l 101 168 q 106 63 92 97 q 156 19 121 29 q 236 8 190 8 q 356 50 306 8 q 418 168 407 92 l 443 346 l 308 346 l 311 371 l 479 371 l 428 0 l 404 0 l 415 89 q 396 63 406 76 q 378 40 386 50 q 314 -3 350 11 q 229 -17 278 -17 m 354 871 q 299 882 321 871 q 267 910 278 893 q 251 947 256 928 q 249 983 247 967 l 275 983 q 299 917 276 939 q 358 894 321 894 q 428 916 399 894 q 468 983 457 938 l 494 983 q 472 935 489 961 q 427 890 456 908 q 354 871 399 871 z "},"Ģ":{"ha":564,"x_min":57,"x_max":531,"o":"m 229 -17 q 136 -4 176 -17 q 76 47 96 8 q 68 165 57 86 l 138 651 q 178 770 149 732 q 254 820 208 808 q 356 832 300 832 q 452 819 411 832 q 512 769 493 807 q 519 651 531 731 l 506 556 l 472 556 l 485 647 q 481 752 496 718 q 431 797 465 786 q 350 807 397 807 q 265 797 303 807 q 203 752 228 786 q 168 647 178 718 l 101 168 q 106 63 92 97 q 156 19 121 29 q 236 8 190 8 q 356 50 306 8 q 418 168 407 92 l 443 346 l 308 346 l 311 371 l 479 371 l 428 0 l 404 0 l 415 89 q 396 63 406 76 q 378 40 386 50 q 314 -3 350 11 q 229 -17 278 -17 m 168 -185 q 201 -133 190 -154 q 213 -101 213 -111 q 209 -90 213 -94 q 201 -81 206 -86 q 197 -65 197 -75 q 205 -49 197 -57 q 224 -40 213 -40 q 242 -47 235 -40 q 249 -65 249 -54 q 239 -100 249 -79 q 215 -143 229 -121 q 186 -185 201 -165 l 168 -185 z "},"Ġ":{"ha":564,"x_min":57,"x_max":531,"o":"m 229 -17 q 136 -4 176 -17 q 76 47 96 8 q 68 165 57 86 l 138 651 q 178 770 149 732 q 254 820 208 808 q 356 832 300 832 q 452 819 411 832 q 512 769 493 807 q 519 651 531 731 l 506 556 l 472 556 l 485 647 q 481 752 496 718 q 431 797 465 786 q 350 807 397 807 q 265 797 303 807 q 203 752 228 786 q 168 647 178 718 l 101 168 q 106 63 92 97 q 156 19 121 29 q 236 8 190 8 q 356 50 306 8 q 418 168 407 92 l 443 346 l 308 346 l 311 371 l 479 371 l 428 0 l 404 0 l 415 89 q 396 63 406 76 q 378 40 386 50 q 314 -3 350 11 q 229 -17 278 -17 m 364 894 q 342 903 351 894 q 333 925 333 913 q 342 946 333 938 q 364 954 351 954 q 385 946 376 954 q 394 925 394 938 q 385 903 394 913 q 364 894 376 894 z "},"Г":{"ha":486,"x_min":60,"x_max":518,"o":"m 60 0 l 176 821 l 518 821 l 513 793 l 206 793 l 94 0 l 60 0 z "},"ẞ":{"ha":1054,"x_min":64,"x_max":988,"o":"m 701 -8 q 610 14 647 -8 q 558 88 572 36 q 556 231 543 140 q 559 253 557 235 q 563 275 561 271 l 593 275 q 590 253 592 271 q 586 231 588 235 q 588 102 575 149 q 631 37 600 56 q 704 18 661 18 q 825 60 774 18 q 892 207 876 101 q 885 311 901 275 q 834 368 869 347 q 747 410 799 389 q 674 449 708 426 q 623 510 640 471 q 614 615 606 550 q 649 728 624 682 q 717 797 674 774 q 824 821 760 821 q 947 774 907 821 q 976 646 988 728 l 965 561 q 950 561 958 561 q 935 561 942 561 l 946 643 q 924 754 957 714 q 819 794 890 794 q 700 750 742 794 q 644 617 658 706 q 654 522 636 557 q 706 466 672 486 q 778 431 739 446 q 873 380 838 406 q 921 315 908 354 q 924 208 933 276 q 845 40 907 88 q 701 -8 783 -8 m 222 -8 q 131 14 168 -8 q 79 88 94 36 q 76 231 64 140 q 80 253 78 235 q 83 275 82 271 l 115 275 q 112 253 114 271 q 108 231 110 235 q 109 102 97 149 q 152 37 121 56 q 226 18 183 18 q 347 60 294 18 q 413 207 399 101 q 407 311 422 275 q 356 368 392 347 q 269 410 321 389 q 195 449 229 426 q 144 510 161 471 q 135 615 126 550 q 169 728 144 682 q 238 797 194 774 q 344 821 281 821 q 469 774 428 821 q 499 646 510 728 l 488 561 q 472 561 479 561 q 456 561 464 561 l 467 643 q 444 754 478 714 q 342 794 411 794 q 221 750 263 794 q 167 617 179 706 q 176 522 158 557 q 226 466 193 486 q 299 431 260 446 q 394 380 358 406 q 442 315 429 354 q 446 208 456 276 q 367 40 429 88 q 222 -8 304 -8 z "},"Ѓ":{"ha":486,"x_min":60,"x_max":518,"o":"m 60 0 l 176 821 l 518 821 l 513 793 l 206 793 l 94 0 l 60 0 m 294 879 l 421 983 l 468 983 l 325 879 l 294 879 z "},"H":{"ha":601,"x_min":60,"x_max":560,"o":"m 60 0 l 176 821 l 210 821 l 157 446 l 474 446 l 528 821 l 560 821 l 443 0 l 411 0 l 469 418 l 153 418 l 93 0 l 60 0 z "},"Х":{"ha":399,"x_min":-19,"x_max":435,"o":"m -19 0 l 179 414 l 113 821 l 144 821 l 210 422 l 404 821 l 435 821 l 238 413 l 315 0 l 282 0 l 207 400 l 15 0 l -19 0 z "},"Ъ":{"ha":533,"x_min":53,"x_max":475,"o":"m 53 0 l 165 793 l 67 793 l 72 821 l 204 821 l 174 604 l 322 604 q 424 583 390 604 q 467 521 458 561 q 467 422 475 481 l 435 196 q 415 110 428 147 q 379 49 401 74 q 322 13 357 25 q 239 0 288 0 l 53 0 m 92 25 l 240 25 q 333 48 300 25 q 381 110 365 71 q 401 199 396 150 q 417 305 410 251 q 432 411 425 358 q 436 492 439 454 q 407 555 433 531 q 315 579 381 579 l 169 579 q 131 301 151 440 q 92 25 111 163 z "},"Ħ":{"ha":600,"x_min":50,"x_max":586,"o":"m 50 660 l 58 681 l 586 681 l 581 660 l 50 660 m 60 0 l 176 821 l 210 821 l 157 446 l 474 446 l 528 821 l 560 821 l 443 0 l 411 0 l 469 418 l 153 418 l 93 0 l 60 0 z "},"I":{"ha":251,"x_min":60,"x_max":210,"o":"m 60 0 l 176 821 l 210 821 l 93 0 l 60 0 z "},"І":{"ha":251,"x_min":60,"x_max":210,"o":"m 60 0 l 176 821 l 210 821 l 93 0 l 60 0 z "},"Я":{"ha":578,"x_min":14,"x_max":535,"o":"m 421 0 l 388 0 l 443 399 l 303 399 q 243 381 268 399 q 201 335 218 363 q 171 279 185 308 l 47 0 l 14 0 l 142 282 q 197 377 171 346 q 268 407 224 408 l 269 404 q 153 439 197 404 q 121 550 110 474 l 140 686 q 199 791 151 761 q 307 821 247 821 l 535 821 l 421 0 m 446 422 l 500 796 l 306 796 q 221 768 260 796 q 174 681 182 740 l 157 561 q 178 453 146 485 q 282 422 211 422 l 446 422 z "},"Í":{"ha":251,"x_min":60,"x_max":306,"o":"m 60 0 l 176 821 l 210 821 l 93 0 l 60 0 m 132 879 l 258 983 l 306 983 l 163 879 l 132 879 z "},"Ǐ":{"ha":251,"x_min":60,"x_max":351,"o":"m 60 0 l 176 821 l 210 821 l 93 0 l 60 0 m 182 872 l 81 986 l 111 986 l 203 896 l 322 986 l 351 986 l 217 872 l 182 872 z "},"Î":{"ha":251,"x_min":60,"x_max":336,"o":"m 60 0 l 176 821 l 210 821 l 93 0 l 60 0 m 65 872 l 200 986 l 235 986 l 336 872 l 307 872 l 213 963 l 96 872 l 65 872 z "},"Ï":{"ha":251,"x_min":60,"x_max":293,"o":"m 60 0 l 176 821 l 210 821 l 93 0 l 60 0 m 151 893 q 130 902 139 893 q 121 924 121 911 q 130 944 121 936 q 151 953 139 953 q 173 944 164 953 q 182 924 182 936 q 173 902 182 911 q 151 893 164 893 m 263 893 q 241 902 250 893 q 232 924 232 911 q 241 944 232 936 q 263 953 250 953 q 284 944 275 953 q 293 924 293 936 q 284 902 293 911 q 263 893 275 893 z "},"İ":{"ha":251,"x_min":60,"x_max":239,"o":"m 60 0 l 176 821 l 210 821 l 93 0 l 60 0 m 208 894 q 187 903 196 894 q 178 925 178 913 q 187 946 178 938 q 208 954 196 954 q 230 946 221 954 q 239 925 239 938 q 230 903 239 913 q 208 894 221 894 z "},"Ị":{"ha":251,"x_min":33,"x_max":210,"o":"m 60 0 l 176 821 l 210 821 l 93 0 l 60 0 m 64 -128 q 42 -119 51 -128 q 33 -97 33 -110 q 42 -76 33 -85 q 64 -68 51 -68 q 85 -76 76 -68 q 94 -97 94 -85 q 85 -119 94 -110 q 64 -128 76 -128 z "},"Е":{"ha":485,"x_min":60,"x_max":514,"o":"m 60 0 l 176 821 l 514 821 l 508 794 l 206 794 l 157 446 l 390 446 l 388 419 l 153 419 l 99 26 l 401 26 l 397 0 l 60 0 z "},"Ѐ":{"ha":485,"x_min":60,"x_max":514,"o":"m 60 0 l 176 821 l 514 821 l 508 794 l 206 794 l 157 446 l 390 446 l 388 419 l 153 419 l 99 26 l 401 26 l 397 0 l 60 0 m 368 879 l 239 983 l 286 983 l 399 879 l 368 879 z "},"Ì":{"ha":251,"x_min":60,"x_max":246,"o":"m 60 0 l 176 821 l 210 821 l 93 0 l 60 0 m 215 879 l 86 983 l 133 983 l 246 879 l 215 879 z "},"Ỉ":{"ha":251,"x_min":60,"x_max":283,"o":"m 60 0 l 176 821 l 210 821 l 93 0 l 60 0 m 188 861 l 190 888 q 210 913 193 907 q 242 928 226 919 q 258 958 258 936 l 258 963 q 251 997 258 981 q 218 1013 244 1013 q 171 978 183 1013 l 147 983 q 175 1020 157 1007 q 224 1033 193 1033 q 272 1014 260 1033 q 283 961 283 994 l 283 958 q 273 922 283 933 q 248 904 263 910 q 222 894 233 899 q 211 879 211 889 l 210 861 l 188 861 z "},"И":{"ha":606,"x_min":60,"x_max":564,"o":"m 60 0 l 176 821 l 210 821 l 104 74 l 531 821 l 564 821 l 447 0 l 414 0 l 518 732 l 97 0 l 60 0 z "},"Ѝ":{"ha":606,"x_min":60,"x_max":564,"o":"m 60 0 l 176 821 l 210 821 l 104 74 l 531 821 l 564 821 l 447 0 l 414 0 l 518 732 l 97 0 l 60 0 m 401 879 l 272 983 l 319 983 l 432 879 l 401 879 z "},"Й":{"ha":606,"x_min":60,"x_max":564,"o":"m 60 0 l 176 821 l 210 821 l 104 74 l 531 821 l 564 821 l 447 0 l 414 0 l 518 732 l 97 0 l 60 0 m 385 871 q 330 882 351 871 q 297 910 308 893 q 282 947 286 928 q 279 983 278 967 l 306 983 q 329 917 307 939 q 389 894 351 894 q 458 916 429 894 q 499 983 488 938 l 525 983 q 503 935 519 961 q 458 890 486 908 q 385 871 429 871 z "},"Ī":{"ha":251,"x_min":60,"x_max":328,"o":"m 60 0 l 176 821 l 210 821 l 93 0 l 60 0 m 88 910 l 90 933 l 328 933 l 325 910 l 88 910 z "},"Ё":{"ha":485,"x_min":60,"x_max":514,"o":"m 60 0 l 176 821 l 514 821 l 508 794 l 206 794 l 157 446 l 390 446 l 388 419 l 153 419 l 99 26 l 401 26 l 397 0 l 60 0 m 304 893 q 283 902 292 893 q 274 924 274 911 q 283 944 274 936 q 304 953 292 953 q 326 944 317 953 q 335 924 335 936 q 326 902 335 911 q 304 893 317 893 m 415 893 q 394 902 403 893 q 385 924 385 911 q 394 944 385 936 q 415 953 403 953 q 437 944 428 953 q 446 924 446 936 q 437 902 446 911 q 415 893 428 893 z "},"Į":{"ha":251,"x_min":-29,"x_max":210,"o":"m 60 0 l 176 821 l 210 821 l 93 0 l 60 0 m 47 -179 q -7 -159 15 -179 q -25 -104 -29 -139 q 11 -38 -18 -64 q 67 0 40 -12 l 96 0 q 33 -46 57 -19 q 6 -100 10 -72 q 17 -142 1 -128 q 51 -156 33 -156 q 76 -152 65 -156 q 93 -146 88 -149 l 99 -165 q 76 -175 89 -171 q 47 -179 63 -179 z "},"Ĩ":{"ha":251,"x_min":60,"x_max":338,"o":"m 60 0 l 176 821 l 210 821 l 93 0 l 60 0 m 257 890 q 231 895 240 890 q 204 914 221 900 q 182 931 194 921 q 153 940 169 940 q 123 929 136 940 q 101 892 110 918 l 76 892 q 106 944 85 924 q 157 965 126 965 q 188 957 174 965 q 215 938 201 949 q 238 922 228 928 q 261 917 247 917 q 291 926 278 917 q 313 963 304 936 l 338 963 q 308 911 329 932 q 257 890 288 890 z "},"Ю":{"ha":875,"x_min":60,"x_max":835,"o":"m 533 -17 q 438 -4 479 -17 q 376 48 396 8 q 368 169 357 88 l 403 418 l 153 418 l 94 0 l 60 0 l 175 821 l 210 821 l 158 446 l 407 446 l 435 649 q 478 769 447 731 q 554 820 508 808 q 656 832 600 832 q 753 819 711 832 q 815 768 794 807 q 822 649 835 729 l 757 169 q 713 47 744 86 q 636 -5 682 7 q 533 -17 590 -17 m 539 8 q 622 19 585 8 q 685 62 660 29 q 719 163 710 94 l 789 653 q 782 753 799 721 q 731 797 765 786 q 651 807 697 807 q 569 797 607 807 q 506 753 532 786 q 471 653 481 721 l 401 163 q 409 62 393 94 q 459 19 425 29 q 539 8 493 8 z "},"J":{"ha":279,"x_min":-36,"x_max":246,"o":"m 11 -1 q -12 -1 -1 -1 q -36 0 -22 -1 l -32 28 l 15 26 q 83 44 60 25 q 113 114 106 63 l 213 821 l 246 821 l 154 164 q 133 66 146 103 q 93 14 121 29 q 11 -1 65 -1 z "},"Ј":{"ha":279,"x_min":-36,"x_max":246,"o":"m 11 -1 q -12 -1 -1 -1 q -36 0 -22 -1 l -32 28 l 15 26 q 83 44 60 25 q 113 114 106 63 l 213 821 l 246 821 l 154 164 q 133 66 146 103 q 93 14 121 29 q 11 -1 65 -1 z "},"K":{"ha":485,"x_min":60,"x_max":521,"o":"m 374 0 l 182 428 l 482 821 l 521 821 l 218 425 l 414 0 l 374 0 m 60 0 l 176 821 l 210 821 l 93 0 l 60 0 z "},"К":{"ha":496,"x_min":60,"x_max":533,"o":"m 60 0 l 176 821 l 210 821 l 156 436 l 207 436 l 493 821 l 533 821 l 239 425 l 425 0 l 382 0 l 206 408 l 151 408 l 93 0 l 60 0 z "},"Ķ":{"ha":485,"x_min":60,"x_max":521,"o":"m 374 0 l 182 428 l 482 821 l 521 821 l 218 425 l 414 0 l 374 0 m 60 0 l 176 821 l 210 821 l 93 0 l 60 0 m 164 -185 q 197 -133 186 -154 q 208 -101 208 -111 q 205 -90 208 -94 q 197 -81 201 -86 q 193 -65 193 -75 q 201 -49 193 -57 q 219 -40 208 -40 q 238 -47 231 -40 q 244 -65 244 -54 q 235 -100 244 -79 q 211 -143 225 -121 q 182 -185 197 -165 l 164 -185 z "},"Ќ":{"ha":496,"x_min":60,"x_max":533,"o":"m 60 0 l 176 821 l 210 821 l 156 436 l 207 436 l 493 821 l 533 821 l 239 425 l 425 0 l 382 0 l 206 408 l 151 408 l 93 0 l 60 0 m 290 879 l 417 983 l 464 983 l 321 879 l 290 879 z "},"L":{"ha":411,"x_min":60,"x_max":358,"o":"m 60 0 l 176 821 l 210 821 l 99 26 l 358 26 l 354 0 l 60 0 z "},"Ĺ":{"ha":411,"x_min":60,"x_max":358,"o":"m 60 0 l 176 821 l 210 821 l 99 26 l 358 26 l 354 0 l 60 0 m 171 879 l 297 983 l 344 983 l 201 879 l 171 879 z "},"Ľ":{"ha":411,"x_min":60,"x_max":425,"o":"m 60 0 l 176 821 l 210 821 l 99 26 l 358 26 l 354 0 l 60 0 m 353 681 l 396 843 l 425 843 l 372 681 l 353 681 z "},"Ļ":{"ha":411,"x_min":60,"x_max":358,"o":"m 60 0 l 176 821 l 210 821 l 99 26 l 358 26 l 354 0 l 60 0 m 147 -185 q 181 -133 169 -154 q 192 -101 192 -111 q 188 -90 192 -94 q 181 -81 185 -86 q 176 -65 176 -75 q 184 -49 176 -57 q 203 -40 192 -40 q 221 -47 214 -40 q 228 -65 228 -54 q 218 -100 228 -79 q 194 -143 208 -121 q 165 -185 181 -165 l 147 -185 z "},"Љ":{"ha":882,"x_min":-31,"x_max":822,"o":"m -31 0 l -26 25 q 21 48 1 25 q 53 128 40 71 l 197 821 l 553 821 l 436 0 l 401 0 l 513 793 l 225 793 l 83 115 q 74 83 81 101 q 56 47 67 64 q 26 16 44 29 q -17 0 8 3 l -31 0 m 439 25 l 588 25 q 680 48 647 25 q 728 110 713 71 q 750 199 743 150 q 765 305 757 251 q 779 413 772 358 q 783 492 786 454 q 753 555 779 531 q 663 579 726 579 l 515 579 q 478 301 497 440 q 439 25 458 163 m 401 0 l 517 818 l 550 818 l 521 604 l 669 604 q 772 583 738 604 q 814 521 806 561 q 814 422 822 481 l 782 196 q 762 110 775 147 q 726 49 749 74 q 669 13 704 25 q 586 0 635 0 l 401 0 z "},"Ł":{"ha":518,"x_min":40,"x_max":397,"o":"m 99 0 l 135 247 l 40 207 l 44 239 l 139 279 l 215 821 l 249 821 l 174 293 l 336 364 l 332 333 l 169 263 l 136 26 l 397 26 l 392 0 l 99 0 z "},"M":{"ha":732,"x_min":60,"x_max":690,"o":"m 60 0 l 176 821 l 208 821 l 325 53 l 664 821 l 690 821 l 574 0 l 542 0 l 640 701 l 332 0 l 303 0 l 192 701 l 93 0 l 60 0 z "},"N":{"ha":601,"x_min":60,"x_max":560,"o":"m 60 0 l 176 821 l 207 821 l 422 75 l 528 821 l 560 821 l 443 0 l 410 0 l 197 731 l 93 0 l 60 0 z "},"Ń":{"ha":601,"x_min":60,"x_max":560,"o":"m 60 0 l 176 821 l 207 821 l 422 75 l 528 821 l 560 821 l 443 0 l 410 0 l 197 731 l 93 0 l 60 0 m 307 879 l 433 983 l 481 983 l 338 879 l 307 879 z "},"Ň":{"ha":601,"x_min":60,"x_max":560,"o":"m 60 0 l 176 821 l 207 821 l 422 75 l 528 821 l 560 821 l 443 0 l 410 0 l 197 731 l 93 0 l 60 0 m 357 872 l 256 986 l 286 986 l 378 896 l 497 986 l 526 986 l 392 872 l 357 872 z "},"Ņ":{"ha":601,"x_min":60,"x_max":560,"o":"m 60 0 l 176 821 l 207 821 l 422 75 l 528 821 l 560 821 l 443 0 l 410 0 l 197 731 l 93 0 l 60 0 m 188 -185 q 221 -133 210 -154 q 232 -101 232 -111 q 228 -90 232 -94 q 221 -81 225 -86 q 217 -65 217 -75 q 224 -49 217 -57 q 243 -40 232 -40 q 261 -47 254 -40 q 268 -65 268 -54 q 258 -100 268 -79 q 235 -143 249 -121 q 206 -185 221 -165 l 188 -185 z "},"Њ":{"ha":882,"x_min":60,"x_max":835,"o":"m 60 0 l 176 821 l 210 821 l 157 444 l 475 444 l 529 821 l 564 821 l 533 604 l 681 604 q 783 583 749 604 q 826 521 817 561 q 825 422 835 481 l 793 196 q 773 110 786 147 q 738 49 760 74 q 681 13 715 25 q 597 0 646 0 l 413 0 l 471 417 l 153 417 l 93 0 l 60 0 m 451 25 l 599 25 q 691 48 658 25 q 739 110 724 71 q 760 199 754 150 l 790 410 q 794 492 797 454 q 764 555 790 531 q 674 579 738 579 l 528 579 l 451 25 z "},"Ñ":{"ha":601,"x_min":60,"x_max":560,"o":"m 60 0 l 176 821 l 207 821 l 422 75 l 528 821 l 560 821 l 443 0 l 410 0 l 197 731 l 93 0 l 60 0 m 435 906 q 408 910 418 906 q 382 929 399 915 q 360 946 372 936 q 331 956 347 956 q 301 944 314 956 q 279 907 288 933 l 254 907 q 283 960 263 939 q 335 981 304 981 q 365 972 351 981 q 393 953 379 964 q 415 938 406 943 q 439 932 425 932 q 469 942 456 932 q 490 978 482 951 l 515 978 q 486 926 507 947 q 435 906 465 906 z "},"O":{"ha":569,"x_min":57,"x_max":531,"o":"m 232 -17 q 136 -4 178 -17 q 76 47 94 8 q 68 167 57 86 l 138 651 q 179 770 149 732 q 255 820 210 808 q 354 832 300 832 q 451 819 410 832 q 511 769 492 807 q 519 651 531 731 l 451 167 q 410 46 440 85 q 334 -5 379 7 q 232 -17 289 -17 m 236 8 q 321 19 283 8 q 383 63 358 29 q 418 168 408 97 l 485 647 q 479 752 494 718 q 430 797 464 786 q 350 807 396 807 q 265 797 303 807 q 203 752 228 786 q 168 647 178 718 l 101 168 q 107 63 92 97 q 156 19 122 29 q 236 8 190 8 z "},"О":{"ha":569,"x_min":57,"x_max":531,"o":"m 232 -17 q 136 -4 178 -17 q 76 47 94 8 q 68 167 57 86 l 138 651 q 179 770 149 732 q 255 820 210 808 q 354 832 300 832 q 451 819 410 832 q 511 769 492 807 q 519 651 531 731 l 451 167 q 410 46 440 85 q 334 -5 379 7 q 232 -17 289 -17 m 236 8 q 321 19 283 8 q 383 63 358 29 q 418 168 408 97 l 485 647 q 479 752 494 718 q 430 797 464 786 q 350 807 396 807 q 265 797 303 807 q 203 752 228 786 q 168 647 178 718 l 101 168 q 107 63 92 97 q 156 19 122 29 q 236 8 190 8 z "},"Œ":{"ha":818,"x_min":57,"x_max":847,"o":"m 232 -17 q 137 -4 178 -17 q 76 47 96 8 q 68 167 57 86 l 136 651 q 178 770 147 732 q 254 820 208 808 q 354 832 300 832 q 451 819 410 832 q 511 769 492 807 q 519 651 531 731 l 450 167 q 409 46 439 85 q 334 -5 379 7 q 232 -17 289 -17 m 236 8 q 321 19 283 8 q 383 63 358 29 q 418 168 408 97 l 485 647 q 480 752 496 718 q 430 797 464 786 q 349 807 396 807 q 265 797 303 807 q 203 752 228 786 q 168 647 178 718 l 101 168 q 106 63 92 97 q 156 19 121 29 q 236 8 190 8 m 394 0 l 510 821 l 847 821 l 843 794 l 540 794 l 490 446 l 725 446 l 721 419 l 486 419 l 431 26 l 735 26 l 732 0 l 394 0 z "},"Ó":{"ha":569,"x_min":57,"x_max":531,"o":"m 232 -17 q 136 -4 178 -17 q 76 47 94 8 q 68 167 57 86 l 138 651 q 179 770 149 732 q 255 820 210 808 q 354 832 300 832 q 451 819 410 832 q 511 769 492 807 q 519 651 531 731 l 451 167 q 410 46 440 85 q 334 -5 379 7 q 232 -17 289 -17 m 236 8 q 321 19 283 8 q 383 63 358 29 q 418 168 408 97 l 485 647 q 479 752 494 718 q 430 797 464 786 q 350 807 396 807 q 265 797 303 807 q 203 752 228 786 q 168 647 178 718 l 101 168 q 107 63 92 97 q 156 19 122 29 q 236 8 190 8 m 290 879 l 417 983 l 464 983 l 321 879 l 290 879 z "},"Ǒ":{"ha":569,"x_min":57,"x_max":531,"o":"m 232 -17 q 136 -4 178 -17 q 76 47 94 8 q 68 167 57 86 l 138 651 q 179 770 149 732 q 255 820 210 808 q 354 832 300 832 q 451 819 410 832 q 511 769 492 807 q 519 651 531 731 l 451 167 q 410 46 440 85 q 334 -5 379 7 q 232 -17 289 -17 m 236 8 q 321 19 283 8 q 383 63 358 29 q 418 168 408 97 l 485 647 q 479 752 494 718 q 430 797 464 786 q 350 807 396 807 q 265 797 303 807 q 203 752 228 786 q 168 647 178 718 l 101 168 q 107 63 92 97 q 156 19 122 29 q 236 8 190 8 m 340 872 l 239 986 l 269 986 l 361 896 l 481 986 l 510 986 l 375 872 l 340 872 z "},"Ô":{"ha":569,"x_min":57,"x_max":531,"o":"m 232 -17 q 136 -4 178 -17 q 76 47 94 8 q 68 167 57 86 l 138 651 q 179 770 149 732 q 255 820 210 808 q 354 832 300 832 q 451 819 410 832 q 511 769 492 807 q 519 651 531 731 l 451 167 q 410 46 440 85 q 334 -5 379 7 q 232 -17 289 -17 m 236 8 q 321 19 283 8 q 383 63 358 29 q 418 168 408 97 l 485 647 q 479 752 494 718 q 430 797 464 786 q 350 807 396 807 q 265 797 303 807 q 203 752 228 786 q 168 647 178 718 l 101 168 q 107 63 92 97 q 156 19 122 29 q 236 8 190 8 m 224 872 l 358 986 l 393 986 l 494 872 l 465 872 l 371 963 l 254 872 l 224 872 z "},"Ố":{"ha":569,"x_min":57,"x_max":558,"o":"m 232 -17 q 136 -4 178 -17 q 76 47 94 8 q 68 167 57 86 l 138 651 q 179 770 149 732 q 255 820 210 808 q 354 832 300 832 q 451 819 410 832 q 511 769 492 807 q 519 651 531 731 l 451 167 q 410 46 440 85 q 334 -5 379 7 q 232 -17 289 -17 m 236 8 q 321 19 283 8 q 383 63 358 29 q 418 168 408 97 l 485 647 q 479 752 494 718 q 430 797 464 786 q 350 807 396 807 q 265 797 303 807 q 203 752 228 786 q 168 647 178 718 l 101 168 q 107 63 92 97 q 156 19 122 29 q 236 8 190 8 m 261 871 l 357 953 l 386 953 l 457 871 l 429 871 l 368 931 l 290 871 l 261 871 m 458 919 l 519 1006 l 558 1006 l 479 919 l 458 919 z "},"Ộ":{"ha":569,"x_min":57,"x_max":531,"o":"m 232 -17 q 136 -4 178 -17 q 76 47 94 8 q 68 167 57 86 l 138 651 q 179 770 149 732 q 255 820 210 808 q 354 832 300 832 q 451 819 410 832 q 511 769 492 807 q 519 651 531 731 l 451 167 q 410 46 440 85 q 334 -5 379 7 q 232 -17 289 -17 m 236 8 q 321 19 283 8 q 383 63 358 29 q 418 168 408 97 l 485 647 q 479 752 494 718 q 430 797 464 786 q 350 807 396 807 q 265 797 303 807 q 203 752 228 786 q 168 647 178 718 l 101 168 q 107 63 92 97 q 156 19 122 29 q 236 8 190 8 m 222 -128 q 201 -119 210 -128 q 192 -97 192 -110 q 201 -76 192 -85 q 222 -68 210 -68 q 244 -76 235 -68 q 253 -97 253 -85 q 244 -119 253 -110 q 222 -128 235 -128 m 224 872 l 358 986 l 393 986 l 494 872 l 465 872 l 371 963 l 254 872 l 224 872 z "},"Ồ":{"ha":569,"x_min":57,"x_max":531,"o":"m 232 -17 q 136 -4 178 -17 q 76 47 94 8 q 68 167 57 86 l 138 651 q 179 770 149 732 q 255 820 210 808 q 354 832 300 832 q 451 819 410 832 q 511 769 492 807 q 519 651 531 731 l 451 167 q 410 46 440 85 q 334 -5 379 7 q 232 -17 289 -17 m 236 8 q 321 19 283 8 q 383 63 358 29 q 418 168 408 97 l 485 647 q 479 752 494 718 q 430 797 464 786 q 350 807 396 807 q 265 797 303 807 q 203 752 228 786 q 168 647 178 718 l 101 168 q 107 63 92 97 q 156 19 122 29 q 236 8 190 8 m 261 871 l 357 953 l 386 953 l 457 871 l 429 871 l 368 931 l 290 871 l 261 871 m 492 919 l 431 1006 l 471 1006 l 513 919 l 492 919 z "},"Ổ":{"ha":569,"x_min":57,"x_max":546,"o":"m 232 -17 q 136 -4 178 -17 q 76 47 94 8 q 68 167 57 86 l 138 651 q 179 770 149 732 q 255 820 210 808 q 354 832 300 832 q 451 819 410 832 q 511 769 492 807 q 519 651 531 731 l 451 167 q 410 46 440 85 q 334 -5 379 7 q 232 -17 289 -17 m 236 8 q 321 19 283 8 q 383 63 358 29 q 418 168 408 97 l 485 647 q 479 752 494 718 q 430 797 464 786 q 350 807 396 807 q 265 797 303 807 q 203 752 228 786 q 168 647 178 718 l 101 168 q 107 63 92 97 q 156 19 122 29 q 236 8 190 8 m 261 871 l 357 953 l 386 953 l 457 871 l 429 871 l 368 931 l 290 871 l 261 871 m 474 915 l 476 933 q 490 952 479 947 q 513 963 501 957 q 524 983 524 968 l 524 988 q 520 1008 524 996 q 497 1021 517 1021 q 465 997 474 1021 l 444 1001 q 465 1028 451 1018 q 501 1038 479 1038 q 538 1023 529 1038 q 546 986 546 1008 l 546 983 q 538 957 546 965 q 521 945 531 949 q 503 938 511 942 q 496 928 496 935 l 496 915 l 474 915 z "},"Ỗ":{"ha":569,"x_min":57,"x_max":531,"o":"m 232 -17 q 136 -4 178 -17 q 76 47 94 8 q 68 167 57 86 l 138 651 q 179 770 149 732 q 255 820 210 808 q 354 832 300 832 q 451 819 410 832 q 511 769 492 807 q 519 651 531 731 l 451 167 q 410 46 440 85 q 334 -5 379 7 q 232 -17 289 -17 m 236 8 q 321 19 283 8 q 383 63 358 29 q 418 168 408 97 l 485 647 q 479 752 494 718 q 430 797 464 786 q 350 807 396 807 q 265 797 303 807 q 203 752 228 786 q 168 647 178 718 l 101 168 q 107 63 92 97 q 156 19 122 29 q 236 8 190 8 m 261 871 l 357 953 l 386 953 l 457 871 l 429 871 l 368 931 l 290 871 l 261 871 m 408 975 q 390 978 397 975 q 371 992 382 982 q 355 1003 364 997 q 333 1010 346 1010 q 313 1002 322 1010 q 299 976 304 994 l 279 976 q 300 1016 285 1000 q 338 1032 315 1032 q 360 1026 350 1032 q 379 1013 369 1019 q 396 1001 389 1006 q 413 997 403 997 q 433 1004 424 997 q 449 1029 443 1011 l 468 1029 q 455 1001 464 1014 q 434 982 446 989 q 408 975 422 975 z "},"Ö":{"ha":569,"x_min":57,"x_max":531,"o":"m 232 -17 q 136 -4 178 -17 q 76 47 94 8 q 68 167 57 86 l 138 651 q 179 770 149 732 q 255 820 210 808 q 354 832 300 832 q 451 819 410 832 q 511 769 492 807 q 519 651 531 731 l 451 167 q 410 46 440 85 q 334 -5 379 7 q 232 -17 289 -17 m 236 8 q 321 19 283 8 q 383 63 358 29 q 418 168 408 97 l 485 647 q 479 752 494 718 q 430 797 464 786 q 350 807 396 807 q 265 797 303 807 q 203 752 228 786 q 168 647 178 718 l 101 168 q 107 63 92 97 q 156 19 122 29 q 236 8 190 8 m 310 893 q 288 902 297 893 q 279 924 279 911 q 288 944 279 936 q 310 953 297 953 q 331 944 322 953 q 340 924 340 936 q 331 902 340 911 q 310 893 322 893 m 421 893 q 399 902 408 893 q 390 924 390 911 q 399 944 390 936 q 421 953 408 953 q 442 944 433 953 q 451 924 451 936 q 442 902 451 911 q 421 893 433 893 z "},"Ọ":{"ha":569,"x_min":57,"x_max":531,"o":"m 232 -17 q 136 -4 178 -17 q 76 47 94 8 q 68 167 57 86 l 138 651 q 179 770 149 732 q 255 820 210 808 q 354 832 300 832 q 451 819 410 832 q 511 769 492 807 q 519 651 531 731 l 451 167 q 410 46 440 85 q 334 -5 379 7 q 232 -17 289 -17 m 236 8 q 321 19 283 8 q 383 63 358 29 q 418 168 408 97 l 485 647 q 479 752 494 718 q 430 797 464 786 q 350 807 396 807 q 265 797 303 807 q 203 752 228 786 q 168 647 178 718 l 101 168 q 107 63 92 97 q 156 19 122 29 q 236 8 190 8 m 222 -128 q 201 -119 210 -128 q 192 -97 192 -110 q 201 -76 192 -85 q 222 -68 210 -68 q 244 -76 235 -68 q 253 -97 253 -85 q 244 -119 253 -110 q 222 -128 235 -128 z "},"Ò":{"ha":569,"x_min":57,"x_max":531,"o":"m 232 -17 q 136 -4 178 -17 q 76 47 94 8 q 68 167 57 86 l 138 651 q 179 770 149 732 q 255 820 210 808 q 354 832 300 832 q 451 819 410 832 q 511 769 492 807 q 519 651 531 731 l 451 167 q 410 46 440 85 q 334 -5 379 7 q 232 -17 289 -17 m 236 8 q 321 19 283 8 q 383 63 358 29 q 418 168 408 97 l 485 647 q 479 752 494 718 q 430 797 464 786 q 350 807 396 807 q 265 797 303 807 q 203 752 228 786 q 168 647 178 718 l 101 168 q 107 63 92 97 q 156 19 122 29 q 236 8 190 8 m 374 879 l 244 983 l 292 983 l 404 879 l 374 879 z "},"Ỏ":{"ha":569,"x_min":57,"x_max":531,"o":"m 232 -17 q 136 -4 178 -17 q 76 47 94 8 q 68 167 57 86 l 138 651 q 179 770 149 732 q 255 820 210 808 q 354 832 300 832 q 451 819 410 832 q 511 769 492 807 q 519 651 531 731 l 451 167 q 410 46 440 85 q 334 -5 379 7 q 232 -17 289 -17 m 236 8 q 321 19 283 8 q 383 63 358 29 q 418 168 408 97 l 485 647 q 479 752 494 718 q 430 797 464 786 q 350 807 396 807 q 265 797 303 807 q 203 752 228 786 q 168 647 178 718 l 101 168 q 107 63 92 97 q 156 19 122 29 q 236 8 190 8 m 346 861 l 349 888 q 368 913 351 907 q 401 928 385 919 q 417 958 417 936 l 417 963 q 410 997 417 981 q 376 1013 403 1013 q 329 978 342 1013 l 306 983 q 333 1020 315 1007 q 382 1033 351 1033 q 430 1014 418 1033 q 442 961 442 994 l 442 958 q 431 922 442 933 q 406 904 421 910 q 381 894 392 899 q 369 879 369 889 l 368 861 l 346 861 z "},"Ơ":{"ha":569,"x_min":57,"x_max":565,"o":"m 232 -17 q 136 -4 178 -17 q 76 47 94 8 q 68 167 57 86 l 138 651 q 179 770 149 732 q 255 820 210 808 q 354 832 300 832 q 451 819 410 832 q 511 769 492 807 q 519 651 531 731 l 451 167 q 410 46 440 85 q 334 -5 379 7 q 232 -17 289 -17 m 236 8 q 321 19 283 8 q 383 63 358 29 q 418 168 408 97 l 485 647 q 479 752 494 718 q 430 797 464 786 q 350 807 396 807 q 265 797 303 807 q 203 752 228 786 q 168 647 178 718 l 101 168 q 107 63 92 97 q 156 19 122 29 q 236 8 190 8 m 444 797 l 442 821 l 454 821 q 533 882 525 821 l 536 903 l 565 903 l 564 889 q 526 821 558 846 q 444 797 493 796 z "},"Ớ":{"ha":569,"x_min":57,"x_max":565,"o":"m 232 -17 q 136 -4 178 -17 q 76 47 94 8 q 68 167 57 86 l 138 651 q 179 770 149 732 q 255 820 210 808 q 354 832 300 832 q 451 819 410 832 q 511 769 492 807 q 519 651 531 731 l 451 167 q 410 46 440 85 q 334 -5 379 7 q 232 -17 289 -17 m 236 8 q 321 19 283 8 q 383 63 358 29 q 418 168 408 97 l 485 647 q 479 752 494 718 q 430 797 464 786 q 350 807 396 807 q 265 797 303 807 q 203 752 228 786 q 168 647 178 718 l 101 168 q 107 63 92 97 q 156 19 122 29 q 236 8 190 8 m 444 797 l 442 821 l 454 821 q 533 882 525 821 l 536 903 l 565 903 l 564 889 q 526 821 558 846 q 444 797 493 796 m 290 879 l 417 983 l 464 983 l 321 879 l 290 879 z "},"Ợ":{"ha":569,"x_min":57,"x_max":565,"o":"m 232 -17 q 136 -4 178 -17 q 76 47 94 8 q 68 167 57 86 l 138 651 q 179 770 149 732 q 255 820 210 808 q 354 832 300 832 q 451 819 410 832 q 511 769 492 807 q 519 651 531 731 l 451 167 q 410 46 440 85 q 334 -5 379 7 q 232 -17 289 -17 m 236 8 q 321 19 283 8 q 383 63 358 29 q 418 168 408 97 l 485 647 q 479 752 494 718 q 430 797 464 786 q 350 807 396 807 q 265 797 303 807 q 203 752 228 786 q 168 647 178 718 l 101 168 q 107 63 92 97 q 156 19 122 29 q 236 8 190 8 m 444 797 l 442 821 l 454 821 q 533 882 525 821 l 536 903 l 565 903 l 564 889 q 526 821 558 846 q 444 797 493 796 m 222 -128 q 201 -119 210 -128 q 192 -97 192 -110 q 201 -76 192 -85 q 222 -68 210 -68 q 244 -76 235 -68 q 253 -97 253 -85 q 244 -119 253 -110 q 222 -128 235 -128 z "},"Ờ":{"ha":569,"x_min":57,"x_max":565,"o":"m 232 -17 q 136 -4 178 -17 q 76 47 94 8 q 68 167 57 86 l 138 651 q 179 770 149 732 q 255 820 210 808 q 354 832 300 832 q 451 819 410 832 q 511 769 492 807 q 519 651 531 731 l 451 167 q 410 46 440 85 q 334 -5 379 7 q 232 -17 289 -17 m 236 8 q 321 19 283 8 q 383 63 358 29 q 418 168 408 97 l 485 647 q 479 752 494 718 q 430 797 464 786 q 350 807 396 807 q 265 797 303 807 q 203 752 228 786 q 168 647 178 718 l 101 168 q 107 63 92 97 q 156 19 122 29 q 236 8 190 8 m 444 797 l 442 821 l 454 821 q 533 882 525 821 l 536 903 l 565 903 l 564 889 q 526 821 558 846 q 444 797 493 796 m 374 879 l 244 983 l 292 983 l 404 879 l 374 879 z "},"Ở":{"ha":569,"x_min":57,"x_max":565,"o":"m 232 -17 q 136 -4 178 -17 q 76 47 94 8 q 68 167 57 86 l 138 651 q 179 770 149 732 q 255 820 210 808 q 354 832 300 832 q 451 819 410 832 q 511 769 492 807 q 519 651 531 731 l 451 167 q 410 46 440 85 q 334 -5 379 7 q 232 -17 289 -17 m 236 8 q 321 19 283 8 q 383 63 358 29 q 418 168 408 97 l 485 647 q 479 752 494 718 q 430 797 464 786 q 350 807 396 807 q 265 797 303 807 q 203 752 228 786 q 168 647 178 718 l 101 168 q 107 63 92 97 q 156 19 122 29 q 236 8 190 8 m 444 797 l 442 821 l 454 821 q 533 882 525 821 l 536 903 l 565 903 l 564 889 q 526 821 558 846 q 444 797 493 796 m 346 861 l 349 888 q 368 913 351 907 q 401 928 385 919 q 417 958 417 936 l 417 963 q 410 997 417 981 q 376 1013 403 1013 q 329 978 342 1013 l 306 983 q 333 1020 315 1007 q 382 1033 351 1033 q 430 1014 418 1033 q 442 961 442 994 l 442 958 q 431 922 442 933 q 406 904 421 910 q 381 894 392 899 q 369 879 369 889 l 368 861 l 346 861 z "},"Ỡ":{"ha":569,"x_min":57,"x_max":565,"o":"m 232 -17 q 136 -4 178 -17 q 76 47 94 8 q 68 167 57 86 l 138 651 q 179 770 149 732 q 255 820 210 808 q 354 832 300 832 q 451 819 410 832 q 511 769 492 807 q 519 651 531 731 l 451 167 q 410 46 440 85 q 334 -5 379 7 q 232 -17 289 -17 m 236 8 q 321 19 283 8 q 383 63 358 29 q 418 168 408 97 l 485 647 q 479 752 494 718 q 430 797 464 786 q 350 807 396 807 q 265 797 303 807 q 203 752 228 786 q 168 647 178 718 l 101 168 q 107 63 92 97 q 156 19 122 29 q 236 8 190 8 m 444 797 l 442 821 l 454 821 q 533 882 525 821 l 536 903 l 565 903 l 564 889 q 526 821 558 846 q 444 797 493 796 m 415 890 q 389 895 399 890 q 363 914 379 900 q 340 931 353 921 q 311 940 328 940 q 281 929 294 940 q 260 892 268 918 l 235 892 q 264 944 243 924 q 315 965 285 965 q 346 957 332 965 q 374 938 360 949 q 396 922 386 928 q 419 917 406 917 q 449 926 436 917 q 471 963 463 936 l 496 963 q 467 911 488 932 q 415 890 446 890 z "},"Ő":{"ha":569,"x_min":57,"x_max":531,"o":"m 232 -17 q 136 -4 178 -17 q 76 47 94 8 q 68 167 57 86 l 138 651 q 179 770 149 732 q 255 820 210 808 q 354 832 300 832 q 451 819 410 832 q 511 769 492 807 q 519 651 531 731 l 451 167 q 410 46 440 85 q 334 -5 379 7 q 232 -17 289 -17 m 236 8 q 321 19 283 8 q 383 63 358 29 q 418 168 408 97 l 485 647 q 479 752 494 718 q 430 797 464 786 q 350 807 396 807 q 265 797 303 807 q 203 752 228 786 q 168 647 178 718 l 101 168 q 107 63 92 97 q 156 19 122 29 q 236 8 190 8 m 292 872 l 356 993 l 397 993 l 313 872 l 292 872 m 367 872 l 431 993 l 472 993 l 388 872 l 367 872 z "},"Ō":{"ha":569,"x_min":57,"x_max":531,"o":"m 232 -17 q 136 -4 178 -17 q 76 47 94 8 q 68 167 57 86 l 138 651 q 179 770 149 732 q 255 820 210 808 q 354 832 300 832 q 451 819 410 832 q 511 769 492 807 q 519 651 531 731 l 451 167 q 410 46 440 85 q 334 -5 379 7 q 232 -17 289 -17 m 236 8 q 321 19 283 8 q 383 63 358 29 q 418 168 408 97 l 485 647 q 479 752 494 718 q 430 797 464 786 q 350 807 396 807 q 265 797 303 807 q 203 752 228 786 q 168 647 178 718 l 101 168 q 107 63 92 97 q 156 19 122 29 q 236 8 190 8 m 246 910 l 249 933 l 486 933 l 483 910 l 246 910 z "},"Ω":{"ha":833,"x_min":67,"x_max":764,"o":"m 67 0 l 68 33 l 304 28 l 300 31 q 167 178 211 103 q 110 318 124 253 q 97 422 97 383 q 119 574 97 507 q 184 687 142 640 q 286 758 226 733 q 419 783 346 783 q 551 758 493 783 q 651 687 610 733 q 715 574 693 640 q 738 425 738 508 q 722 320 738 385 q 663 181 707 256 q 532 31 619 106 l 528 28 l 764 33 l 764 0 l 464 0 l 465 19 q 586 131 540 74 q 656 244 632 189 q 689 348 681 300 q 697 431 697 396 q 665 603 699 529 q 568 719 631 678 q 418 760 506 760 q 269 718 332 760 q 171 599 206 676 q 135 413 136 521 q 144 340 135 385 q 176 240 153 294 q 246 129 200 186 q 364 19 292 72 l 364 0 l 67 0 z "},"Ø":{"ha":593,"x_min":-6,"x_max":568,"o":"m -6 -19 l 535 821 l 568 821 l 28 -19 l -6 -19 m 235 -17 q 140 -4 181 -17 q 79 47 99 8 q 71 167 60 86 l 139 651 q 181 770 150 732 q 257 820 211 808 q 357 832 303 832 q 453 819 413 832 q 514 769 494 807 q 522 651 533 731 l 453 167 q 412 46 442 85 q 337 -5 382 7 q 235 -17 292 -17 m 239 8 q 324 19 286 8 q 386 63 361 29 q 421 168 411 97 l 488 647 q 483 752 499 718 q 433 797 467 786 q 353 807 399 807 q 268 797 306 807 q 206 752 231 786 q 171 647 182 718 l 104 168 q 109 63 94 97 q 158 19 124 29 q 239 8 193 8 z "},"Õ":{"ha":569,"x_min":57,"x_max":531,"o":"m 232 -17 q 136 -4 178 -17 q 76 47 94 8 q 68 167 57 86 l 138 651 q 179 770 149 732 q 255 820 210 808 q 354 832 300 832 q 451 819 410 832 q 511 769 492 807 q 519 651 531 731 l 451 167 q 410 46 440 85 q 334 -5 379 7 q 232 -17 289 -17 m 236 8 q 321 19 283 8 q 383 63 358 29 q 418 168 408 97 l 485 647 q 479 752 494 718 q 430 797 464 786 q 350 807 396 807 q 265 797 303 807 q 203 752 228 786 q 168 647 178 718 l 101 168 q 107 63 92 97 q 156 19 122 29 q 236 8 190 8 m 415 890 q 389 895 399 890 q 363 914 379 900 q 340 931 353 921 q 311 940 328 940 q 281 929 294 940 q 260 892 268 918 l 235 892 q 264 944 243 924 q 315 965 285 965 q 346 957 332 965 q 374 938 360 949 q 396 922 386 928 q 419 917 406 917 q 449 926 436 917 q 471 963 463 936 l 496 963 q 467 911 488 932 q 415 890 446 890 z "},"P":{"ha":526,"x_min":60,"x_max":544,"o":"m 60 0 l 176 821 l 404 821 q 505 791 465 821 q 533 686 544 761 l 511 529 q 488 451 506 488 q 428 393 469 415 q 311 371 386 371 l 147 371 l 94 0 l 60 0 m 150 396 l 313 396 q 427 431 385 396 q 479 536 469 467 l 499 679 q 476 767 507 739 q 399 796 444 796 l 206 796 l 150 396 z "},"П":{"ha":578,"x_min":60,"x_max":536,"o":"m 60 0 l 176 821 l 536 821 l 419 0 l 383 0 l 496 793 l 207 793 l 96 0 l 60 0 z "},"Q":{"ha":569,"x_min":57,"x_max":531,"o":"m 363 -156 l 299 -12 q 267 -15 283 -14 q 232 -17 251 -17 q 137 -4 178 -17 q 76 47 96 8 q 68 167 57 86 l 138 651 q 179 770 149 732 q 255 820 210 808 q 354 832 300 832 q 451 819 410 832 q 511 769 492 807 q 519 651 531 731 l 451 167 q 410 47 440 85 q 333 -4 379 8 l 396 -137 l 363 -156 m 236 8 q 322 19 285 8 q 383 63 358 29 q 418 168 408 97 l 485 647 q 480 752 496 718 q 430 797 464 786 q 350 807 396 807 q 265 797 303 807 q 203 752 228 786 q 168 647 179 718 l 101 168 q 106 63 92 97 q 156 19 121 29 q 236 8 190 8 z "},"R":{"ha":569,"x_min":60,"x_max":544,"o":"m 60 0 l 176 821 l 404 821 q 505 791 465 821 q 533 686 544 761 l 514 550 q 451 439 504 474 q 325 404 397 404 l 326 407 q 389 377 371 408 q 418 282 407 346 l 467 0 l 433 0 l 388 279 q 374 335 383 308 q 344 381 364 363 q 290 399 325 399 l 150 399 l 93 0 l 60 0 m 153 422 l 317 422 q 431 453 389 422 q 482 561 472 485 l 499 681 q 476 768 507 740 q 399 796 444 796 l 204 796 l 153 422 z "},"Ŕ":{"ha":569,"x_min":60,"x_max":544,"o":"m 60 0 l 176 821 l 404 821 q 505 791 465 821 q 533 686 544 761 l 514 550 q 451 439 504 474 q 325 404 397 404 l 326 407 q 389 377 371 408 q 418 282 407 346 l 467 0 l 433 0 l 388 279 q 374 335 383 308 q 344 381 364 363 q 290 399 325 399 l 150 399 l 93 0 l 60 0 m 153 422 l 317 422 q 431 453 389 422 q 482 561 472 485 l 499 681 q 476 768 507 740 q 399 796 444 796 l 204 796 l 153 422 m 290 879 l 417 983 l 464 983 l 321 879 l 290 879 z "},"Ř":{"ha":569,"x_min":60,"x_max":544,"o":"m 60 0 l 176 821 l 404 821 q 505 791 465 821 q 533 686 544 761 l 514 550 q 451 439 504 474 q 325 404 397 404 l 326 407 q 389 377 371 408 q 418 282 407 346 l 467 0 l 433 0 l 388 279 q 374 335 383 308 q 344 381 364 363 q 290 399 325 399 l 150 399 l 93 0 l 60 0 m 153 422 l 317 422 q 431 453 389 422 q 482 561 472 485 l 499 681 q 476 768 507 740 q 399 796 444 796 l 204 796 l 153 422 m 340 872 l 239 986 l 269 986 l 361 896 l 481 986 l 510 986 l 375 872 l 340 872 z "},"Ŗ":{"ha":569,"x_min":60,"x_max":544,"o":"m 60 0 l 176 821 l 404 821 q 505 791 465 821 q 533 686 544 761 l 514 550 q 451 439 504 474 q 325 404 397 404 l 326 407 q 389 377 371 408 q 418 282 407 346 l 467 0 l 433 0 l 388 279 q 374 335 383 308 q 344 381 364 363 q 290 399 325 399 l 150 399 l 93 0 l 60 0 m 153 422 l 317 422 q 431 453 389 422 q 482 561 472 485 l 499 681 q 476 768 507 740 q 399 796 444 796 l 204 796 l 153 422 m 203 -185 q 236 -133 225 -154 q 247 -101 247 -111 q 244 -90 247 -94 q 236 -81 240 -86 q 232 -65 232 -75 q 240 -49 232 -57 q 258 -40 247 -40 q 276 -47 269 -40 q 283 -65 283 -54 q 274 -100 283 -79 q 250 -143 264 -121 q 221 -185 236 -165 l 203 -185 z "},"S":{"ha":503,"x_min":36,"x_max":482,"o":"m 211 -8 q 108 14 149 -8 q 51 88 67 36 q 50 231 36 140 l 57 275 l 88 275 l 81 231 q 81 102 68 149 q 128 37 94 56 q 208 18 161 18 q 320 60 269 18 q 386 207 371 101 q 380 311 396 275 q 328 368 364 347 q 242 410 293 389 q 169 449 203 426 q 117 510 135 471 q 108 615 100 550 q 143 728 118 682 q 211 797 168 774 q 318 821 254 821 q 442 774 401 821 q 471 646 482 728 l 460 561 q 444 561 453 561 q 429 561 436 561 l 440 643 q 417 754 450 714 q 314 794 385 794 q 194 750 236 794 q 139 617 153 706 q 149 522 131 557 q 200 466 167 486 q 272 431 233 446 q 367 380 332 406 q 415 315 403 354 q 418 208 428 276 q 376 81 407 128 q 301 13 344 33 q 211 -8 258 -8 z "},"Š":{"ha":503,"x_min":36,"x_max":490,"o":"m 211 -8 q 108 14 149 -8 q 51 88 67 36 q 50 231 36 140 l 57 275 l 88 275 l 81 231 q 81 102 68 149 q 128 37 94 56 q 208 18 161 18 q 320 60 269 18 q 386 207 371 101 q 380 311 396 275 q 328 368 364 347 q 242 410 293 389 q 169 449 203 426 q 117 510 135 471 q 108 615 100 550 q 143 728 118 682 q 211 797 168 774 q 318 821 254 821 q 442 774 401 821 q 471 646 482 728 l 460 561 q 444 561 453 561 q 429 561 436 561 l 440 643 q 417 754 450 714 q 314 794 385 794 q 194 750 236 794 q 139 617 153 706 q 149 522 131 557 q 200 466 167 486 q 272 431 233 446 q 367 380 332 406 q 415 315 403 354 q 418 208 428 276 q 376 81 407 128 q 301 13 344 33 q 211 -8 258 -8 m 321 872 l 219 986 l 250 986 l 342 896 l 461 986 l 490 986 l 356 872 l 321 872 z "},"Ş":{"ha":503,"x_min":36,"x_max":482,"o":"m 211 -8 q 108 14 149 -8 q 51 88 67 36 q 50 231 36 140 l 57 275 l 88 275 l 81 231 q 81 102 68 149 q 128 37 94 56 q 208 18 161 18 q 320 60 269 18 q 386 207 371 101 q 380 311 396 275 q 328 368 364 347 q 242 410 293 389 q 169 449 203 426 q 117 510 135 471 q 108 615 100 550 q 143 728 118 682 q 211 797 168 774 q 318 821 254 821 q 442 774 401 821 q 471 646 482 728 l 460 561 q 444 561 453 561 q 429 561 436 561 l 440 643 q 417 754 450 714 q 314 794 385 794 q 194 750 236 794 q 139 617 153 706 q 149 522 131 557 q 200 466 167 486 q 272 431 233 446 q 367 380 332 406 q 415 315 403 354 q 418 208 428 276 q 376 81 407 128 q 301 13 344 33 q 211 -8 258 -8 m 178 -186 q 147 -181 160 -186 q 122 -169 133 -175 l 133 -150 q 156 -160 140 -156 q 179 -165 171 -165 q 228 -151 211 -165 q 246 -119 244 -137 q 203 -75 253 -75 q 181 -79 193 -75 q 158 -90 169 -83 l 143 -81 l 199 0 l 222 0 l 174 -69 l 167 -68 q 190 -59 178 -61 q 213 -57 203 -57 q 260 -76 244 -57 q 272 -115 275 -94 q 243 -167 268 -147 q 178 -186 218 -186 z "},"Ș":{"ha":503,"x_min":36,"x_max":482,"o":"m 211 -8 q 108 14 149 -8 q 51 88 67 36 q 50 231 36 140 l 57 275 l 88 275 l 81 231 q 81 102 68 149 q 128 37 94 56 q 208 18 161 18 q 320 60 269 18 q 386 207 371 101 q 380 311 396 275 q 328 368 364 347 q 242 410 293 389 q 169 449 203 426 q 117 510 135 471 q 108 615 100 550 q 143 728 118 682 q 211 797 168 774 q 318 821 254 821 q 442 774 401 821 q 471 646 482 728 l 460 561 q 444 561 453 561 q 429 561 436 561 l 440 643 q 417 754 450 714 q 314 794 385 794 q 194 750 236 794 q 139 617 153 706 q 149 522 131 557 q 200 466 167 486 q 272 431 233 446 q 367 380 332 406 q 415 315 403 354 q 418 208 428 276 q 376 81 407 128 q 301 13 344 33 q 211 -8 258 -8 m 144 -185 q 178 -133 167 -154 q 189 -101 189 -111 q 185 -90 189 -94 q 178 -81 182 -86 q 174 -65 174 -75 q 181 -49 174 -57 q 200 -40 189 -40 q 218 -47 211 -40 q 225 -65 225 -54 q 215 -100 225 -79 q 192 -143 206 -121 q 163 -185 178 -165 l 144 -185 z "},"Ш":{"ha":892,"x_min":60,"x_max":850,"o":"m 60 0 l 176 821 l 211 821 l 99 26 l 383 26 l 496 821 l 531 821 l 418 26 l 703 26 l 815 821 l 850 821 l 733 0 l 60 0 z "},"Щ":{"ha":822,"x_min":18,"x_max":807,"o":"m 663 -104 l 678 0 l 18 0 l 133 821 l 168 821 l 56 26 l 340 26 l 453 821 l 488 821 l 375 26 l 660 26 l 772 821 l 807 821 l 694 25 l 714 25 l 696 -104 l 663 -104 z "},"Ь":{"ha":511,"x_min":42,"x_max":463,"o":"m 42 0 l 156 818 l 189 818 l 160 604 l 308 604 q 410 583 376 604 q 453 521 444 561 q 454 422 463 481 l 422 196 q 402 110 415 147 q 367 49 389 74 q 310 13 344 25 q 226 0 276 0 l 42 0 m 78 25 l 226 25 q 340 65 303 25 q 390 196 376 106 l 419 413 q 423 492 426 454 q 392 555 419 531 q 301 579 365 579 l 156 579 l 78 25 z "},"T":{"ha":364,"x_min":81,"x_max":414,"o":"m 114 0 l 226 794 l 81 794 l 85 821 l 414 821 l 408 794 l 260 794 l 147 0 l 114 0 z "},"Ŧ":{"ha":397,"x_min":81,"x_max":414,"o":"m 114 597 l 118 626 l 332 626 l 331 597 l 114 597 m 114 0 l 226 794 l 81 794 l 85 821 l 414 821 l 408 794 l 260 794 l 147 0 l 114 0 z "},"Ť":{"ha":364,"x_min":81,"x_max":414,"o":"m 114 0 l 226 794 l 81 794 l 85 821 l 414 821 l 408 794 l 260 794 l 147 0 l 114 0 m 238 872 l 136 986 l 167 986 l 258 896 l 378 986 l 407 986 l 272 872 l 238 872 z "},"Ţ":{"ha":364,"x_min":44,"x_max":414,"o":"m 114 0 l 226 794 l 81 794 l 85 821 l 414 821 l 408 794 l 260 794 l 147 0 l 114 0 m 100 -186 q 69 -181 82 -186 q 44 -169 56 -175 l 56 -150 q 78 -160 63 -156 q 101 -165 93 -165 q 150 -151 133 -165 q 168 -119 167 -137 q 125 -75 175 -75 q 103 -79 115 -75 q 81 -90 92 -83 l 65 -81 l 121 0 l 144 0 l 96 -69 l 89 -68 q 113 -59 100 -61 q 135 -57 125 -57 q 182 -76 167 -57 q 194 -115 197 -94 q 165 -167 190 -147 q 100 -186 140 -186 z "},"Ț":{"ha":364,"x_min":67,"x_max":414,"o":"m 114 0 l 226 794 l 81 794 l 85 821 l 414 821 l 408 794 l 260 794 l 147 0 l 114 0 m 67 -185 q 100 -133 89 -154 q 111 -101 111 -111 q 108 -90 111 -94 q 100 -81 104 -86 q 96 -65 96 -75 q 103 -49 96 -57 q 122 -40 111 -40 q 140 -47 133 -40 q 147 -65 147 -54 q 138 -100 147 -79 q 114 -143 128 -121 q 85 -185 100 -165 l 67 -185 z "},"Т":{"ha":364,"x_min":81,"x_max":414,"o":"m 114 0 l 226 794 l 81 794 l 85 821 l 414 821 l 408 794 l 260 794 l 147 0 l 114 0 z "},"Þ":{"ha":513,"x_min":10,"x_max":471,"o":"m 10 0 l 126 821 l 161 821 l 138 658 l 331 658 q 431 628 392 658 q 460 524 471 597 l 438 367 q 414 289 432 325 q 355 230 396 253 q 239 207 314 207 l 74 207 l 44 0 l 10 0 m 78 232 l 240 232 q 355 267 314 232 q 406 372 396 303 l 426 515 q 403 605 435 576 q 326 633 372 633 l 133 633 l 78 232 z "},"Ц":{"ha":557,"x_min":60,"x_max":535,"o":"m 390 -104 l 406 0 l 60 0 l 175 821 l 211 821 l 99 28 l 388 28 l 499 821 l 535 821 l 422 26 l 442 26 l 424 -104 l 390 -104 z "},"Ћ":{"ha":603,"x_min":79,"x_max":544,"o":"m 125 0 l 236 793 l 79 793 l 85 821 l 435 821 l 431 793 l 271 793 l 233 525 q 292 577 251 553 q 393 601 332 601 q 503 575 471 601 q 540 506 535 549 q 538 414 544 463 l 479 0 l 444 0 l 503 415 q 505 497 510 461 q 473 553 500 533 q 386 574 446 574 q 278 541 318 574 q 228 476 239 508 l 160 0 l 125 0 z "},"U":{"ha":581,"x_min":65,"x_max":547,"o":"m 240 -17 q 169 -10 203 -17 q 112 14 136 -4 q 76 66 88 32 q 74 156 65 100 l 167 821 l 200 821 l 107 157 q 116 63 99 94 q 168 19 133 31 q 243 8 203 8 q 322 19 285 8 q 387 63 360 31 q 422 157 414 94 l 515 821 l 547 821 l 454 156 q 426 66 446 100 q 378 14 407 32 q 313 -10 349 -4 q 240 -17 278 -17 z "},"У":{"ha":444,"x_min":-1,"x_max":472,"o":"m 44 -6 q 19 -3 31 -6 q -1 0 8 -1 l 1 25 q 19 22 8 24 q 43 21 29 21 q 81 28 61 21 q 121 53 101 35 q 153 86 136 67 q 168 132 171 106 l 100 821 l 136 821 l 196 181 l 193 181 l 439 821 l 472 821 l 219 158 q 147 32 185 69 q 44 -6 110 -6 z "},"Ú":{"ha":581,"x_min":65,"x_max":547,"o":"m 240 -17 q 169 -10 203 -17 q 112 14 136 -4 q 76 66 88 32 q 74 156 65 100 l 167 821 l 200 821 l 107 157 q 116 63 99 94 q 168 19 133 31 q 243 8 203 8 q 322 19 285 8 q 387 63 360 31 q 422 157 414 94 l 515 821 l 547 821 l 454 156 q 426 66 446 100 q 378 14 407 32 q 313 -10 349 -4 q 240 -17 278 -17 m 296 879 l 422 983 l 469 983 l 326 879 l 296 879 z "},"Ǔ":{"ha":581,"x_min":65,"x_max":547,"o":"m 240 -17 q 169 -10 203 -17 q 112 14 136 -4 q 76 66 88 32 q 74 156 65 100 l 167 821 l 200 821 l 107 157 q 116 63 99 94 q 168 19 133 31 q 243 8 203 8 q 322 19 285 8 q 387 63 360 31 q 422 157 414 94 l 515 821 l 547 821 l 454 156 q 426 66 446 100 q 378 14 407 32 q 313 -10 349 -4 q 240 -17 278 -17 m 346 872 l 244 986 l 275 986 l 367 896 l 486 986 l 515 986 l 381 872 l 346 872 z "},"Û":{"ha":581,"x_min":65,"x_max":547,"o":"m 240 -17 q 169 -10 203 -17 q 112 14 136 -4 q 76 66 88 32 q 74 156 65 100 l 167 821 l 200 821 l 107 157 q 116 63 99 94 q 168 19 133 31 q 243 8 203 8 q 322 19 285 8 q 387 63 360 31 q 422 157 414 94 l 515 821 l 547 821 l 454 156 q 426 66 446 100 q 378 14 407 32 q 313 -10 349 -4 q 240 -17 278 -17 m 229 872 l 364 986 l 399 986 l 500 872 l 471 872 l 376 963 l 260 872 l 229 872 z "},"Ü":{"ha":581,"x_min":65,"x_max":547,"o":"m 240 -17 q 169 -10 203 -17 q 112 14 136 -4 q 76 66 88 32 q 74 156 65 100 l 167 821 l 200 821 l 107 157 q 116 63 99 94 q 168 19 133 31 q 243 8 203 8 q 322 19 285 8 q 387 63 360 31 q 422 157 414 94 l 515 821 l 547 821 l 454 156 q 426 66 446 100 q 378 14 407 32 q 313 -10 349 -4 q 240 -17 278 -17 m 315 893 q 294 902 303 893 q 285 924 285 911 q 294 944 285 936 q 315 953 303 953 q 337 944 328 953 q 346 924 346 936 q 337 902 346 911 q 315 893 328 893 m 426 893 q 405 902 414 893 q 396 924 396 911 q 405 944 396 936 q 426 953 414 953 q 448 944 439 953 q 457 924 457 936 q 448 902 457 911 q 426 893 439 893 z "},"Ǘ":{"ha":581,"x_min":65,"x_max":547,"o":"m 240 -17 q 169 -10 203 -17 q 112 14 136 -4 q 76 66 88 32 q 74 156 65 100 l 167 821 l 200 821 l 107 157 q 116 63 99 94 q 168 19 133 31 q 243 8 203 8 q 322 19 285 8 q 387 63 360 31 q 422 157 414 94 l 515 821 l 547 821 l 454 156 q 426 66 446 100 q 378 14 407 32 q 313 -10 349 -4 q 240 -17 278 -17 m 315 893 q 294 902 303 893 q 285 924 285 911 q 294 944 285 936 q 315 953 303 953 q 337 944 328 953 q 346 924 346 936 q 337 902 346 911 q 315 893 328 893 m 426 893 q 405 902 414 893 q 396 924 396 911 q 405 944 396 936 q 426 953 414 953 q 448 944 439 953 q 457 924 457 936 q 448 902 457 911 q 426 893 439 893 m 313 975 l 439 1079 l 486 1079 l 343 975 l 313 975 z "},"Ǚ":{"ha":581,"x_min":65,"x_max":547,"o":"m 240 -17 q 169 -10 203 -17 q 112 14 136 -4 q 76 66 88 32 q 74 156 65 100 l 167 821 l 200 821 l 107 157 q 116 63 99 94 q 168 19 133 31 q 243 8 203 8 q 322 19 285 8 q 387 63 360 31 q 422 157 414 94 l 515 821 l 547 821 l 454 156 q 426 66 446 100 q 378 14 407 32 q 313 -10 349 -4 q 240 -17 278 -17 m 315 893 q 294 902 303 893 q 285 924 285 911 q 294 944 285 936 q 315 953 303 953 q 337 944 328 953 q 346 924 346 936 q 337 902 346 911 q 315 893 328 893 m 426 893 q 405 902 414 893 q 396 924 396 911 q 405 944 396 936 q 426 953 414 953 q 448 944 439 953 q 457 924 457 936 q 448 902 457 911 q 426 893 439 893 m 363 968 l 261 1082 l 292 1082 l 383 992 l 503 1082 l 532 1082 l 397 968 l 363 968 z "},"Ǜ":{"ha":581,"x_min":65,"x_max":547,"o":"m 240 -17 q 169 -10 203 -17 q 112 14 136 -4 q 76 66 88 32 q 74 156 65 100 l 167 821 l 200 821 l 107 157 q 116 63 99 94 q 168 19 133 31 q 243 8 203 8 q 322 19 285 8 q 387 63 360 31 q 422 157 414 94 l 515 821 l 547 821 l 454 156 q 426 66 446 100 q 378 14 407 32 q 313 -10 349 -4 q 240 -17 278 -17 m 315 893 q 294 902 303 893 q 285 924 285 911 q 294 944 285 936 q 315 953 303 953 q 337 944 328 953 q 346 924 346 936 q 337 902 346 911 q 315 893 328 893 m 426 893 q 405 902 414 893 q 396 924 396 911 q 405 944 396 936 q 426 953 414 953 q 448 944 439 953 q 457 924 457 936 q 448 902 457 911 q 426 893 439 893 m 396 975 l 267 1079 l 314 1079 l 426 975 l 396 975 z "},"Ǖ":{"ha":581,"x_min":65,"x_max":547,"o":"m 240 -17 q 169 -10 203 -17 q 112 14 136 -4 q 76 66 88 32 q 74 156 65 100 l 167 821 l 200 821 l 107 157 q 116 63 99 94 q 168 19 133 31 q 243 8 203 8 q 322 19 285 8 q 387 63 360 31 q 422 157 414 94 l 515 821 l 547 821 l 454 156 q 426 66 446 100 q 378 14 407 32 q 313 -10 349 -4 q 240 -17 278 -17 m 315 893 q 294 902 303 893 q 285 924 285 911 q 294 944 285 936 q 315 953 303 953 q 337 944 328 953 q 346 924 346 936 q 337 902 346 911 q 315 893 328 893 m 426 893 q 405 902 414 893 q 396 924 396 911 q 405 944 396 936 q 426 953 414 953 q 448 944 439 953 q 457 924 457 936 q 448 902 457 911 q 426 893 439 893 m 268 1006 l 271 1029 l 508 1029 l 506 1006 l 268 1006 z "},"Ụ":{"ha":581,"x_min":65,"x_max":547,"o":"m 240 -17 q 169 -10 203 -17 q 112 14 136 -4 q 76 66 88 32 q 74 156 65 100 l 167 821 l 200 821 l 107 157 q 116 63 99 94 q 168 19 133 31 q 243 8 203 8 q 322 19 285 8 q 387 63 360 31 q 422 157 414 94 l 515 821 l 547 821 l 454 156 q 426 66 446 100 q 378 14 407 32 q 313 -10 349 -4 q 240 -17 278 -17 m 228 -128 q 206 -119 215 -128 q 197 -97 197 -110 q 206 -76 197 -85 q 228 -68 215 -68 q 249 -76 240 -68 q 258 -97 258 -85 q 249 -119 258 -110 q 228 -128 240 -128 z "},"Ù":{"ha":581,"x_min":65,"x_max":547,"o":"m 240 -17 q 169 -10 203 -17 q 112 14 136 -4 q 76 66 88 32 q 74 156 65 100 l 167 821 l 200 821 l 107 157 q 116 63 99 94 q 168 19 133 31 q 243 8 203 8 q 322 19 285 8 q 387 63 360 31 q 422 157 414 94 l 515 821 l 547 821 l 454 156 q 426 66 446 100 q 378 14 407 32 q 313 -10 349 -4 q 240 -17 278 -17 m 379 879 l 250 983 l 297 983 l 410 879 l 379 879 z "},"Ủ":{"ha":581,"x_min":65,"x_max":547,"o":"m 240 -17 q 169 -10 203 -17 q 112 14 136 -4 q 76 66 88 32 q 74 156 65 100 l 167 821 l 200 821 l 107 157 q 116 63 99 94 q 168 19 133 31 q 243 8 203 8 q 322 19 285 8 q 387 63 360 31 q 422 157 414 94 l 515 821 l 547 821 l 454 156 q 426 66 446 100 q 378 14 407 32 q 313 -10 349 -4 q 240 -17 278 -17 m 351 861 l 354 888 q 374 913 357 907 q 406 928 390 919 q 422 958 422 936 l 422 963 q 415 997 422 981 q 382 1013 408 1013 q 335 978 347 1013 l 311 983 q 339 1020 321 1007 q 388 1033 357 1033 q 435 1014 424 1033 q 447 961 447 994 l 447 958 q 437 922 447 933 q 412 904 426 910 q 386 894 397 899 q 375 879 375 889 l 374 861 l 351 861 z "},"Ư":{"ha":581,"x_min":65,"x_max":639,"o":"m 240 -17 q 169 -10 203 -17 q 112 14 136 -4 q 76 66 88 32 q 74 156 65 100 l 167 821 l 200 821 l 107 157 q 116 63 99 94 q 168 19 133 31 q 243 8 203 8 q 322 19 285 8 q 387 63 360 31 q 422 157 414 94 l 515 821 l 547 821 l 454 156 q 426 66 446 100 q 378 14 407 32 q 313 -10 349 -4 q 240 -17 278 -17 m 518 797 l 515 821 l 528 821 q 607 882 599 821 l 610 903 l 639 903 l 638 889 q 599 821 632 846 q 518 797 567 796 z "},"Ứ":{"ha":581,"x_min":65,"x_max":639,"o":"m 240 -17 q 169 -10 203 -17 q 112 14 136 -4 q 76 66 88 32 q 74 156 65 100 l 167 821 l 200 821 l 107 157 q 116 63 99 94 q 168 19 133 31 q 243 8 203 8 q 322 19 285 8 q 387 63 360 31 q 422 157 414 94 l 515 821 l 547 821 l 454 156 q 426 66 446 100 q 378 14 407 32 q 313 -10 349 -4 q 240 -17 278 -17 m 518 797 l 515 821 l 528 821 q 607 882 599 821 l 610 903 l 639 903 l 638 889 q 599 821 632 846 q 518 797 567 796 m 296 879 l 422 983 l 469 983 l 326 879 l 296 879 z "},"Ự":{"ha":581,"x_min":65,"x_max":639,"o":"m 240 -17 q 169 -10 203 -17 q 112 14 136 -4 q 76 66 88 32 q 74 156 65 100 l 167 821 l 200 821 l 107 157 q 116 63 99 94 q 168 19 133 31 q 243 8 203 8 q 322 19 285 8 q 387 63 360 31 q 422 157 414 94 l 515 821 l 547 821 l 454 156 q 426 66 446 100 q 378 14 407 32 q 313 -10 349 -4 q 240 -17 278 -17 m 518 797 l 515 821 l 528 821 q 607 882 599 821 l 610 903 l 639 903 l 638 889 q 599 821 632 846 q 518 797 567 796 m 228 -128 q 206 -119 215 -128 q 197 -97 197 -110 q 206 -76 197 -85 q 228 -68 215 -68 q 249 -76 240 -68 q 258 -97 258 -85 q 249 -119 258 -110 q 228 -128 240 -128 z "},"Ừ":{"ha":581,"x_min":65,"x_max":639,"o":"m 240 -17 q 169 -10 203 -17 q 112 14 136 -4 q 76 66 88 32 q 74 156 65 100 l 167 821 l 200 821 l 107 157 q 116 63 99 94 q 168 19 133 31 q 243 8 203 8 q 322 19 285 8 q 387 63 360 31 q 422 157 414 94 l 515 821 l 547 821 l 454 156 q 426 66 446 100 q 378 14 407 32 q 313 -10 349 -4 q 240 -17 278 -17 m 518 797 l 515 821 l 528 821 q 607 882 599 821 l 610 903 l 639 903 l 638 889 q 599 821 632 846 q 518 797 567 796 m 379 879 l 250 983 l 297 983 l 410 879 l 379 879 z "},"Ử":{"ha":581,"x_min":65,"x_max":639,"o":"m 240 -17 q 169 -10 203 -17 q 112 14 136 -4 q 76 66 88 32 q 74 156 65 100 l 167 821 l 200 821 l 107 157 q 116 63 99 94 q 168 19 133 31 q 243 8 203 8 q 322 19 285 8 q 387 63 360 31 q 422 157 414 94 l 515 821 l 547 821 l 454 156 q 426 66 446 100 q 378 14 407 32 q 313 -10 349 -4 q 240 -17 278 -17 m 518 797 l 515 821 l 528 821 q 607 882 599 821 l 610 903 l 639 903 l 638 889 q 599 821 632 846 q 518 797 567 796 m 351 861 l 354 888 q 374 913 357 907 q 406 928 390 919 q 422 958 422 936 l 422 963 q 415 997 422 981 q 382 1013 408 1013 q 335 978 347 1013 l 311 983 q 339 1020 321 1007 q 388 1033 357 1033 q 435 1014 424 1033 q 447 961 447 994 l 447 958 q 437 922 447 933 q 412 904 426 910 q 386 894 397 899 q 375 879 375 889 l 374 861 l 351 861 z "},"Ữ":{"ha":581,"x_min":65,"x_max":639,"o":"m 240 -17 q 169 -10 203 -17 q 112 14 136 -4 q 76 66 88 32 q 74 156 65 100 l 167 821 l 200 821 l 107 157 q 116 63 99 94 q 168 19 133 31 q 243 8 203 8 q 322 19 285 8 q 387 63 360 31 q 422 157 414 94 l 515 821 l 547 821 l 454 156 q 426 66 446 100 q 378 14 407 32 q 313 -10 349 -4 q 240 -17 278 -17 m 518 797 l 515 821 l 528 821 q 607 882 599 821 l 610 903 l 639 903 l 638 889 q 599 821 632 846 q 518 797 567 796 m 421 890 q 394 895 404 890 q 368 914 385 900 q 346 931 358 921 q 317 940 333 940 q 287 929 300 940 q 265 892 274 918 l 240 892 q 269 944 249 924 q 321 965 290 965 q 351 957 338 965 q 379 938 365 949 q 401 922 392 928 q 425 917 411 917 q 455 926 442 917 q 476 963 468 936 l 501 963 q 472 911 493 932 q 421 890 451 890 z "},"Ű":{"ha":581,"x_min":65,"x_max":547,"o":"m 240 -17 q 169 -10 203 -17 q 112 14 136 -4 q 76 66 88 32 q 74 156 65 100 l 167 821 l 200 821 l 107 157 q 116 63 99 94 q 168 19 133 31 q 243 8 203 8 q 322 19 285 8 q 387 63 360 31 q 422 157 414 94 l 515 821 l 547 821 l 454 156 q 426 66 446 100 q 378 14 407 32 q 313 -10 349 -4 q 240 -17 278 -17 m 297 872 l 361 993 l 403 993 l 318 872 l 297 872 m 372 872 l 436 993 l 478 993 l 393 872 l 372 872 z "},"Ū":{"ha":581,"x_min":65,"x_max":547,"o":"m 240 -17 q 169 -10 203 -17 q 112 14 136 -4 q 76 66 88 32 q 74 156 65 100 l 167 821 l 200 821 l 107 157 q 116 63 99 94 q 168 19 133 31 q 243 8 203 8 q 322 19 285 8 q 387 63 360 31 q 422 157 414 94 l 515 821 l 547 821 l 454 156 q 426 66 446 100 q 378 14 407 32 q 313 -10 349 -4 q 240 -17 278 -17 m 251 910 l 254 933 l 492 933 l 489 910 l 251 910 z "},"Ų":{"ha":581,"x_min":65,"x_max":547,"o":"m 240 -17 q 169 -10 203 -17 q 112 14 136 -4 q 76 66 88 32 q 74 156 65 100 l 167 821 l 200 821 l 107 157 q 116 63 99 94 q 168 19 133 31 q 243 8 203 8 q 322 19 285 8 q 387 63 360 31 q 422 157 414 94 l 515 821 l 547 821 l 454 156 q 426 66 446 100 q 378 14 407 32 q 313 -10 349 -4 q 240 -17 278 -17 m 249 -179 q 194 -159 217 -179 q 176 -104 172 -139 q 213 -38 183 -64 q 268 0 242 -12 l 297 0 q 235 -46 258 -19 q 207 -100 211 -72 q 219 -142 203 -128 q 253 -156 235 -156 q 278 -152 267 -156 q 294 -146 289 -149 l 300 -165 q 277 -175 290 -171 q 249 -179 264 -179 z "},"Ů":{"ha":581,"x_min":65,"x_max":547,"o":"m 240 -17 q 169 -10 203 -17 q 112 14 136 -4 q 76 66 88 32 q 74 156 65 100 l 167 821 l 200 821 l 107 157 q 116 63 99 94 q 168 19 133 31 q 243 8 203 8 q 322 19 285 8 q 387 63 360 31 q 422 157 414 94 l 515 821 l 547 821 l 454 156 q 426 66 446 100 q 378 14 407 32 q 313 -10 349 -4 q 240 -17 278 -17 m 360 846 q 291 874 315 846 q 272 942 267 903 q 310 1010 278 982 q 388 1039 343 1039 q 459 1010 436 1039 q 476 942 482 982 q 436 874 471 903 q 360 846 401 846 m 364 871 q 422 891 399 871 q 449 942 444 911 q 435 994 453 975 q 383 1014 418 1014 q 326 994 349 1014 q 300 942 304 975 q 313 891 296 911 q 364 871 329 871 z "},"Ў":{"ha":444,"x_min":-1,"x_max":472,"o":"m 44 -6 q 19 -3 31 -6 q -1 0 8 -1 l 1 25 q 19 22 8 24 q 43 21 29 21 q 81 28 61 21 q 121 53 101 35 q 153 86 136 67 q 168 132 171 106 l 100 821 l 136 821 l 196 181 l 193 181 l 439 821 l 472 821 l 219 158 q 147 32 185 69 q 44 -6 110 -6 m 290 871 q 235 882 257 871 q 203 910 214 893 q 188 947 192 928 q 185 983 183 967 l 211 983 q 235 917 213 939 q 294 894 257 894 q 364 916 335 894 q 404 983 393 938 l 431 983 q 408 935 425 961 q 363 890 392 908 q 290 871 335 871 z "},"Ũ":{"ha":581,"x_min":65,"x_max":547,"o":"m 240 -17 q 169 -10 203 -17 q 112 14 136 -4 q 76 66 88 32 q 74 156 65 100 l 167 821 l 200 821 l 107 157 q 116 63 99 94 q 168 19 133 31 q 243 8 203 8 q 322 19 285 8 q 387 63 360 31 q 422 157 414 94 l 515 821 l 547 821 l 454 156 q 426 66 446 100 q 378 14 407 32 q 313 -10 349 -4 q 240 -17 278 -17 m 421 890 q 394 895 404 890 q 368 914 385 900 q 346 931 358 921 q 317 940 333 940 q 287 929 300 940 q 265 892 274 918 l 240 892 q 269 944 249 924 q 321 965 290 965 q 351 957 338 965 q 379 938 365 949 q 401 922 392 928 q 425 917 411 917 q 455 926 442 917 q 476 963 468 936 l 501 963 q 472 911 493 932 q 421 890 451 890 z "},"V":{"ha":431,"x_min":101,"x_max":464,"o":"m 151 0 l 101 821 l 132 821 l 179 71 l 174 71 l 432 821 l 464 821 l 179 0 l 151 0 z "},"В":{"ha":578,"x_min":60,"x_max":543,"o":"m 60 0 l 175 821 l 401 821 q 503 791 463 821 q 532 686 543 761 l 518 582 q 496 512 513 542 q 460 464 479 482 q 405 438 435 443 q 358 432 375 432 l 358 436 q 418 430 390 436 q 460 406 446 424 q 482 356 475 385 q 483 290 489 328 l 467 167 q 430 59 457 94 q 363 12 403 24 q 274 0 324 0 l 60 0 m 96 25 l 275 25 q 349 35 317 25 q 403 77 382 46 q 433 171 425 108 l 451 293 q 421 393 463 368 q 314 418 379 418 l 151 418 l 96 25 m 156 444 l 318 444 q 433 481 392 444 q 483 578 475 517 l 499 681 q 476 767 507 739 q 397 796 444 796 l 204 796 l 156 444 z "},"W":{"ha":713,"x_min":101,"x_max":744,"o":"m 118 0 l 101 821 l 132 821 l 149 58 l 411 821 l 435 821 l 481 60 l 714 821 l 744 821 l 494 0 l 457 0 l 411 731 l 158 0 l 118 0 z "},"Ẃ":{"ha":713,"x_min":101,"x_max":744,"o":"m 118 0 l 101 821 l 132 821 l 149 58 l 411 821 l 435 821 l 481 60 l 714 821 l 744 821 l 494 0 l 457 0 l 411 731 l 158 0 l 118 0 m 363 879 l 489 983 l 536 983 l 393 879 l 363 879 z "},"Ŵ":{"ha":713,"x_min":101,"x_max":744,"o":"m 118 0 l 101 821 l 132 821 l 149 58 l 411 821 l 435 821 l 481 60 l 714 821 l 744 821 l 494 0 l 457 0 l 411 731 l 158 0 l 118 0 m 296 872 l 431 986 l 465 986 l 567 872 l 538 872 l 443 963 l 326 872 l 296 872 z "},"Ẅ":{"ha":713,"x_min":101,"x_max":744,"o":"m 118 0 l 101 821 l 132 821 l 149 58 l 411 821 l 435 821 l 481 60 l 714 821 l 744 821 l 494 0 l 457 0 l 411 731 l 158 0 l 118 0 m 382 893 q 360 902 369 893 q 351 924 351 911 q 360 944 351 936 q 382 953 369 953 q 403 944 394 953 q 413 924 413 936 q 403 902 413 911 q 382 893 394 893 m 493 893 q 472 902 481 893 q 463 924 463 911 q 472 944 463 936 q 493 953 481 953 q 515 944 506 953 q 524 924 524 936 q 515 902 524 911 q 493 893 506 893 z "},"Ẁ":{"ha":713,"x_min":101,"x_max":744,"o":"m 118 0 l 101 821 l 132 821 l 149 58 l 411 821 l 435 821 l 481 60 l 714 821 l 744 821 l 494 0 l 457 0 l 411 731 l 158 0 l 118 0 m 446 879 l 317 983 l 364 983 l 476 879 l 446 879 z "},"X":{"ha":399,"x_min":-19,"x_max":435,"o":"m -19 0 l 179 414 l 113 821 l 144 821 l 210 422 l 404 821 l 435 821 l 238 413 l 315 0 l 282 0 l 207 400 l 15 0 l -19 0 z "},"Y":{"ha":411,"x_min":96,"x_max":447,"o":"m 132 0 l 183 368 l 96 821 l 133 821 l 206 417 l 207 407 l 213 417 l 411 821 l 447 821 l 218 367 l 165 0 l 132 0 z "},"Ý":{"ha":411,"x_min":96,"x_max":447,"o":"m 132 0 l 183 368 l 96 821 l 133 821 l 206 417 l 207 407 l 213 417 l 411 821 l 447 821 l 218 367 l 165 0 l 132 0 m 211 879 l 338 983 l 385 983 l 242 879 l 211 879 z "},"Ѣ":{"ha":601,"x_min":88,"x_max":546,"o":"m 125 0 l 239 818 l 272 818 l 243 604 l 392 604 q 494 583 460 604 q 537 521 528 561 q 538 422 546 481 l 506 196 q 485 110 499 147 q 450 49 472 74 q 394 13 428 25 q 310 0 360 0 l 125 0 m 161 25 l 310 25 q 403 48 369 25 q 451 110 436 71 q 474 199 467 150 l 503 413 q 506 492 508 454 q 476 555 503 531 q 385 579 450 579 l 239 579 q 201 301 221 440 q 161 25 181 163 m 88 721 l 97 750 l 483 750 l 476 721 l 88 721 z "},"Ŷ":{"ha":411,"x_min":96,"x_max":447,"o":"m 132 0 l 183 368 l 96 821 l 133 821 l 206 417 l 207 407 l 213 417 l 411 821 l 447 821 l 218 367 l 165 0 l 132 0 m 144 872 l 279 986 l 314 986 l 415 872 l 386 872 l 292 963 l 175 872 l 144 872 z "},"Ÿ":{"ha":411,"x_min":96,"x_max":447,"o":"m 132 0 l 183 368 l 96 821 l 133 821 l 206 417 l 207 407 l 213 417 l 411 821 l 447 821 l 218 367 l 165 0 l 132 0 m 231 893 q 209 902 218 893 q 200 924 200 911 q 209 944 200 936 q 231 953 218 953 q 252 944 243 953 q 261 924 261 936 q 252 902 261 911 q 231 893 243 893 m 342 893 q 320 902 329 893 q 311 924 311 911 q 320 944 311 936 q 342 953 329 953 q 363 944 354 953 q 372 924 372 936 q 363 902 372 911 q 342 893 354 893 z "},"Ỵ":{"ha":411,"x_min":96,"x_max":447,"o":"m 132 0 l 183 368 l 96 821 l 133 821 l 206 417 l 207 407 l 213 417 l 411 821 l 447 821 l 218 367 l 165 0 l 132 0 m 143 -128 q 122 -119 131 -128 q 113 -97 113 -110 q 122 -76 113 -85 q 143 -68 131 -68 q 165 -76 156 -68 q 174 -97 174 -85 q 165 -119 174 -110 q 143 -128 156 -128 z "},"Ы":{"ha":711,"x_min":60,"x_max":669,"o":"m 60 0 l 175 818 l 208 818 l 179 604 l 328 604 q 431 583 397 604 q 474 521 465 561 q 474 422 482 481 l 442 196 q 422 110 435 147 q 386 49 408 74 q 329 13 364 25 q 246 0 294 0 l 60 0 m 99 25 l 247 25 q 340 48 307 25 q 388 110 372 71 q 408 199 403 150 q 424 305 417 251 q 439 413 432 358 q 442 492 446 454 q 413 555 439 531 q 321 579 386 579 l 175 579 q 138 301 157 440 q 99 25 118 163 m 519 0 l 636 821 l 669 821 l 553 0 l 519 0 z "},"Ỳ":{"ha":411,"x_min":96,"x_max":447,"o":"m 132 0 l 183 368 l 96 821 l 133 821 l 206 417 l 207 407 l 213 417 l 411 821 l 447 821 l 218 367 l 165 0 l 132 0 m 294 879 l 165 983 l 213 983 l 325 879 l 294 879 z "},"Ỷ":{"ha":411,"x_min":96,"x_max":447,"o":"m 132 0 l 183 368 l 96 821 l 133 821 l 206 417 l 207 407 l 213 417 l 411 821 l 447 821 l 218 367 l 165 0 l 132 0 m 267 861 l 269 888 q 289 913 272 907 q 322 928 306 919 q 338 958 338 936 l 338 963 q 331 997 338 981 q 297 1013 324 1013 q 250 978 263 1013 l 226 983 q 254 1020 236 1007 q 303 1033 272 1033 q 351 1014 339 1033 q 363 961 363 994 l 363 958 q 352 922 363 933 q 327 904 342 910 q 301 894 313 899 q 290 879 290 889 l 289 861 l 267 861 z "},"Ї":{"ha":251,"x_min":60,"x_max":293,"o":"m 60 0 l 176 821 l 210 821 l 93 0 l 60 0 m 151 893 q 130 902 139 893 q 121 924 121 911 q 130 944 121 936 q 151 953 139 953 q 173 944 164 953 q 182 924 182 936 q 173 902 182 911 q 151 893 164 893 m 263 893 q 241 902 250 893 q 232 924 232 911 q 241 944 232 936 q 263 953 250 953 q 284 944 275 953 q 293 924 293 936 q 284 902 293 911 q 263 893 275 893 z "},"Ỹ":{"ha":411,"x_min":96,"x_max":447,"o":"m 132 0 l 183 368 l 96 821 l 133 821 l 206 417 l 207 407 l 213 417 l 411 821 l 447 821 l 218 367 l 165 0 l 132 0 m 336 890 q 310 895 319 890 q 283 914 300 900 q 261 931 274 921 q 232 940 249 940 q 202 929 215 940 q 181 892 189 918 l 156 892 q 185 944 164 924 q 236 965 206 965 q 267 957 253 965 q 294 938 281 949 q 317 922 307 928 q 340 917 326 917 q 370 926 357 917 q 392 963 383 936 l 417 963 q 388 911 408 932 q 336 890 367 890 z "},"Ѫ":{"ha":890,"x_min":4,"x_max":933,"o":"m 4 0 l 139 314 q 174 379 154 347 q 222 431 193 411 q 296 451 251 451 l 418 451 l 86 793 l 90 821 l 933 821 l 929 793 l 500 451 l 619 451 q 693 431 669 451 q 726 379 717 411 q 740 314 736 347 l 786 0 l 751 0 l 710 310 q 697 367 706 339 q 668 413 688 394 q 613 431 649 431 l 472 431 l 411 0 l 379 0 l 440 431 l 300 431 q 218 392 247 429 q 169 310 189 354 l 39 0 l 4 0 m 460 456 l 885 793 l 129 793 l 460 456 z "},"Z":{"ha":369,"x_min":-19,"x_max":406,"o":"m -19 0 l -14 31 l 363 794 l 110 794 l 114 821 l 406 821 l 401 790 l 19 26 l 294 26 l 289 0 l -19 0 z "},"Ź":{"ha":369,"x_min":-19,"x_max":406,"o":"m -19 0 l -14 31 l 363 794 l 110 794 l 114 821 l 406 821 l 401 790 l 19 26 l 294 26 l 289 0 l -19 0 m 190 879 l 317 983 l 364 983 l 221 879 l 190 879 z "},"Ž":{"ha":369,"x_min":-19,"x_max":410,"o":"m -19 0 l -14 31 l 363 794 l 110 794 l 114 821 l 406 821 l 401 790 l 19 26 l 294 26 l 289 0 l -19 0 m 240 872 l 139 986 l 169 986 l 261 896 l 381 986 l 410 986 l 275 872 l 240 872 z "},"Ż":{"ha":369,"x_min":-19,"x_max":406,"o":"m -19 0 l -14 31 l 363 794 l 110 794 l 114 821 l 406 821 l 401 790 l 19 26 l 294 26 l 289 0 l -19 0 m 267 894 q 245 903 254 894 q 236 925 236 913 q 245 946 236 938 q 267 954 254 954 q 288 946 279 954 q 297 925 297 938 q 288 903 297 913 q 267 894 279 894 z "},"З":{"ha":565,"x_min":51,"x_max":526,"o":"m 231 -11 q 115 17 156 -11 q 63 92 75 44 q 58 194 51 139 l 69 268 l 106 268 l 93 183 q 119 63 83 107 q 233 17 156 19 q 358 60 307 17 q 421 182 410 104 l 431 256 q 401 371 442 329 q 288 415 361 413 l 196 415 l 200 447 l 293 447 q 364 463 329 447 q 425 507 399 478 q 457 555 444 529 q 474 610 469 581 l 479 651 q 456 756 488 713 q 344 799 425 799 q 219 756 264 799 q 167 650 175 713 l 160 590 l 122 590 l 128 639 q 193 776 140 726 q 347 826 246 826 q 488 776 449 826 q 514 639 526 726 l 511 613 q 457 494 501 539 q 358 431 413 450 q 450 365 424 415 q 465 244 476 315 l 458 194 q 426 92 451 139 q 354 17 401 44 q 231 -11 307 -11 z "},"Ж":{"ha":711,"x_min":-35,"x_max":754,"o":"m -35 0 l 272 425 l 92 821 l 129 821 l 306 436 l 350 436 l 404 819 l 439 819 l 385 436 l 428 436 l 714 821 l 754 821 l 458 425 l 646 0 l 604 0 l 425 410 l 382 410 l 324 0 l 289 0 l 346 410 l 301 410 l 6 0 l -35 0 z "},"a":{"ha":486,"x_min":31,"x_max":453,"o":"m 157 -11 q 121 -8 144 -11 q 76 10 97 -4 q 42 58 54 25 q 40 150 31 90 l 103 533 q 141 648 115 613 q 201 692 167 683 q 275 701 236 701 q 359 687 317 701 q 411 632 401 672 l 418 688 l 453 688 l 356 0 l 321 0 l 339 129 q 306 67 328 100 q 247 12 283 35 q 157 -11 211 -11 m 169 14 q 240 36 210 14 q 292 92 271 58 q 328 162 314 125 q 349 228 342 199 q 358 272 357 258 l 403 586 q 390 617 400 596 q 355 658 381 639 q 274 678 329 678 q 190 657 218 678 q 150 601 161 636 q 132 524 139 567 l 74 147 q 76 72 67 100 q 103 33 85 44 q 140 17 121 21 q 169 14 158 14 z "},"а":{"ha":486,"x_min":31,"x_max":453,"o":"m 157 -11 q 121 -8 144 -11 q 76 10 97 -4 q 42 58 54 25 q 40 150 31 90 l 103 533 q 141 648 115 613 q 201 692 167 683 q 275 701 236 701 q 359 687 317 701 q 411 632 401 672 l 418 688 l 453 688 l 356 0 l 321 0 l 339 129 q 306 67 328 100 q 247 12 283 35 q 157 -11 211 -11 m 169 14 q 240 36 210 14 q 292 92 271 58 q 328 162 314 125 q 349 228 342 199 q 358 272 357 258 l 403 586 q 390 617 400 596 q 355 658 381 639 q 274 678 329 678 q 190 657 218 678 q 150 601 161 636 q 132 524 139 567 l 74 147 q 76 72 67 100 q 103 33 85 44 q 140 17 121 21 q 169 14 158 14 z "},"á":{"ha":486,"x_min":31,"x_max":453,"o":"m 157 -11 q 121 -8 144 -11 q 76 10 97 -4 q 42 58 54 25 q 40 150 31 90 l 103 533 q 141 648 115 613 q 201 692 167 683 q 275 701 236 701 q 359 687 317 701 q 411 632 401 672 l 418 688 l 453 688 l 356 0 l 321 0 l 339 129 q 306 67 328 100 q 247 12 283 35 q 157 -11 211 -11 m 169 14 q 240 36 210 14 q 292 92 271 58 q 328 162 314 125 q 349 228 342 199 q 358 272 357 258 l 403 586 q 390 617 400 596 q 355 658 381 639 q 274 678 329 678 q 190 657 218 678 q 150 601 161 636 q 132 524 139 567 l 74 147 q 76 72 67 100 q 103 33 85 44 q 140 17 121 21 q 169 14 158 14 m 274 756 l 360 876 l 404 876 l 294 756 l 274 756 z "},"ă":{"ha":486,"x_min":31,"x_max":453,"o":"m 157 -11 q 121 -8 144 -11 q 76 10 97 -4 q 42 58 54 25 q 40 150 31 90 l 103 533 q 141 648 115 613 q 201 692 167 683 q 275 701 236 701 q 359 687 317 701 q 411 632 401 672 l 418 688 l 453 688 l 356 0 l 321 0 l 339 129 q 306 67 328 100 q 247 12 283 35 q 157 -11 211 -11 m 169 14 q 240 36 210 14 q 292 92 271 58 q 328 162 314 125 q 349 228 342 199 q 358 272 357 258 l 403 586 q 390 617 400 596 q 355 658 381 639 q 274 678 329 678 q 190 657 218 678 q 150 601 161 636 q 132 524 139 567 l 74 147 q 76 72 67 100 q 103 33 85 44 q 140 17 121 21 q 169 14 158 14 m 310 754 q 255 765 276 754 q 222 794 233 776 q 207 831 211 811 q 204 867 203 850 l 231 867 q 254 800 232 822 q 314 778 276 778 q 383 799 354 778 q 424 867 413 821 l 450 867 q 428 818 444 844 q 383 773 411 792 q 310 754 354 754 z "},"ắ":{"ha":486,"x_min":31,"x_max":453,"o":"m 157 -11 q 121 -8 144 -11 q 76 10 97 -4 q 42 58 54 25 q 40 150 31 90 l 103 533 q 141 648 115 613 q 201 692 167 683 q 275 701 236 701 q 359 687 317 701 q 411 632 401 672 l 418 688 l 453 688 l 356 0 l 321 0 l 339 129 q 306 67 328 100 q 247 12 283 35 q 157 -11 211 -11 m 169 14 q 240 36 210 14 q 292 92 271 58 q 328 162 314 125 q 349 228 342 199 q 358 272 357 258 l 403 586 q 390 617 400 596 q 355 658 381 639 q 274 678 329 678 q 190 657 218 678 q 150 601 161 636 q 132 524 139 567 l 74 147 q 76 72 67 100 q 103 33 85 44 q 140 17 121 21 q 169 14 158 14 m 310 754 q 255 765 276 754 q 222 794 233 776 q 207 831 211 811 q 204 867 203 850 l 231 867 q 254 800 232 822 q 314 778 276 778 q 383 799 354 778 q 424 867 413 821 l 450 867 q 428 818 444 844 q 383 773 411 792 q 310 754 354 754 m 300 881 l 386 1001 l 431 1001 l 321 881 l 300 881 z "},"ặ":{"ha":486,"x_min":31,"x_max":453,"o":"m 157 -11 q 121 -8 144 -11 q 76 10 97 -4 q 42 58 54 25 q 40 150 31 90 l 103 533 q 141 648 115 613 q 201 692 167 683 q 275 701 236 701 q 359 687 317 701 q 411 632 401 672 l 418 688 l 453 688 l 356 0 l 321 0 l 339 129 q 306 67 328 100 q 247 12 283 35 q 157 -11 211 -11 m 169 14 q 240 36 210 14 q 292 92 271 58 q 328 162 314 125 q 349 228 342 199 q 358 272 357 258 l 403 586 q 390 617 400 596 q 355 658 381 639 q 274 678 329 678 q 190 657 218 678 q 150 601 161 636 q 132 524 139 567 l 74 147 q 76 72 67 100 q 103 33 85 44 q 140 17 121 21 q 169 14 158 14 m 181 -128 q 159 -119 168 -128 q 150 -97 150 -110 q 159 -76 150 -85 q 181 -68 168 -68 q 202 -76 193 -68 q 211 -97 211 -85 q 202 -119 211 -110 q 181 -128 193 -128 m 310 754 q 255 765 276 754 q 222 794 233 776 q 207 831 211 811 q 204 867 203 850 l 231 867 q 254 800 232 822 q 314 778 276 778 q 383 799 354 778 q 424 867 413 821 l 450 867 q 428 818 444 844 q 383 773 411 792 q 310 754 354 754 z "},"ằ":{"ha":486,"x_min":31,"x_max":453,"o":"m 157 -11 q 121 -8 144 -11 q 76 10 97 -4 q 42 58 54 25 q 40 150 31 90 l 103 533 q 141 648 115 613 q 201 692 167 683 q 275 701 236 701 q 359 687 317 701 q 411 632 401 672 l 418 688 l 453 688 l 356 0 l 321 0 l 339 129 q 306 67 328 100 q 247 12 283 35 q 157 -11 211 -11 m 169 14 q 240 36 210 14 q 292 92 271 58 q 328 162 314 125 q 349 228 342 199 q 358 272 357 258 l 403 586 q 390 617 400 596 q 355 658 381 639 q 274 678 329 678 q 190 657 218 678 q 150 601 161 636 q 132 524 139 567 l 74 147 q 76 72 67 100 q 103 33 85 44 q 140 17 121 21 q 169 14 158 14 m 310 754 q 255 765 276 754 q 222 794 233 776 q 207 831 211 811 q 204 867 203 850 l 231 867 q 254 800 232 822 q 314 778 276 778 q 383 799 354 778 q 424 867 413 821 l 450 867 q 428 818 444 844 q 383 773 411 792 q 310 754 354 754 m 349 881 l 264 1001 l 308 1001 l 369 881 l 349 881 z "},"ẳ":{"ha":486,"x_min":31,"x_max":453,"o":"m 157 -11 q 121 -8 144 -11 q 76 10 97 -4 q 42 58 54 25 q 40 150 31 90 l 103 533 q 141 648 115 613 q 201 692 167 683 q 275 701 236 701 q 359 687 317 701 q 411 632 401 672 l 418 688 l 453 688 l 356 0 l 321 0 l 339 129 q 306 67 328 100 q 247 12 283 35 q 157 -11 211 -11 m 169 14 q 240 36 210 14 q 292 92 271 58 q 328 162 314 125 q 349 228 342 199 q 358 272 357 258 l 403 586 q 390 617 400 596 q 355 658 381 639 q 274 678 329 678 q 190 657 218 678 q 150 601 161 636 q 132 524 139 567 l 74 147 q 76 72 67 100 q 103 33 85 44 q 140 17 121 21 q 169 14 158 14 m 310 754 q 255 765 276 754 q 222 794 233 776 q 207 831 211 811 q 204 867 203 850 l 231 867 q 254 800 232 822 q 314 778 276 778 q 383 799 354 778 q 424 867 413 821 l 450 867 q 428 818 444 844 q 383 773 411 792 q 310 754 354 754 m 321 875 l 324 901 q 343 927 326 921 q 376 942 360 933 q 392 972 392 950 l 392 976 q 385 1010 392 994 q 351 1026 378 1026 q 304 992 317 1026 l 281 997 q 308 1034 290 1021 q 357 1047 326 1047 q 405 1028 393 1047 q 417 975 417 1008 l 417 972 q 406 935 417 947 q 381 918 396 924 q 356 908 367 913 q 344 893 344 903 l 343 875 l 321 875 z "},"ẵ":{"ha":486,"x_min":31,"x_max":475,"o":"m 157 -11 q 121 -8 144 -11 q 76 10 97 -4 q 42 58 54 25 q 40 150 31 90 l 103 533 q 141 648 115 613 q 201 692 167 683 q 275 701 236 701 q 359 687 317 701 q 411 632 401 672 l 418 688 l 453 688 l 356 0 l 321 0 l 339 129 q 306 67 328 100 q 247 12 283 35 q 157 -11 211 -11 m 169 14 q 240 36 210 14 q 292 92 271 58 q 328 162 314 125 q 349 228 342 199 q 358 272 357 258 l 403 586 q 390 617 400 596 q 355 658 381 639 q 274 678 329 678 q 190 657 218 678 q 150 601 161 636 q 132 524 139 567 l 74 147 q 76 72 67 100 q 103 33 85 44 q 140 17 121 21 q 169 14 158 14 m 310 754 q 255 765 276 754 q 222 794 233 776 q 207 831 211 811 q 204 867 203 850 l 231 867 q 254 800 232 822 q 314 778 276 778 q 383 799 354 778 q 424 867 413 821 l 450 867 q 428 818 444 844 q 383 773 411 792 q 310 754 354 754 m 394 897 q 368 902 378 897 q 342 921 358 907 q 319 938 332 928 q 290 947 307 947 q 260 936 274 947 q 239 899 247 925 l 214 899 q 243 951 222 931 q 294 972 264 972 q 325 964 311 972 q 353 944 339 956 q 375 929 365 935 q 399 924 385 924 q 428 933 415 924 q 450 969 442 943 l 475 969 q 446 918 467 939 q 394 897 425 897 z "},"ǎ":{"ha":486,"x_min":31,"x_max":471,"o":"m 157 -11 q 121 -8 144 -11 q 76 10 97 -4 q 42 58 54 25 q 40 150 31 90 l 103 533 q 141 648 115 613 q 201 692 167 683 q 275 701 236 701 q 359 687 317 701 q 411 632 401 672 l 418 688 l 453 688 l 356 0 l 321 0 l 339 129 q 306 67 328 100 q 247 12 283 35 q 157 -11 211 -11 m 169 14 q 240 36 210 14 q 292 92 271 58 q 328 162 314 125 q 349 228 342 199 q 358 272 357 258 l 403 586 q 390 617 400 596 q 355 658 381 639 q 274 678 329 678 q 190 657 218 678 q 150 601 161 636 q 132 524 139 567 l 74 147 q 76 72 67 100 q 103 33 85 44 q 140 17 121 21 q 169 14 158 14 m 301 760 l 200 874 l 231 874 l 322 783 l 442 874 l 471 874 l 336 760 l 301 760 z "},"â":{"ha":486,"x_min":31,"x_max":453,"o":"m 157 -11 q 121 -8 144 -11 q 76 10 97 -4 q 42 58 54 25 q 40 150 31 90 l 103 533 q 141 648 115 613 q 201 692 167 683 q 275 701 236 701 q 359 687 317 701 q 411 632 401 672 l 418 688 l 453 688 l 356 0 l 321 0 l 339 129 q 306 67 328 100 q 247 12 283 35 q 157 -11 211 -11 m 169 14 q 240 36 210 14 q 292 92 271 58 q 328 162 314 125 q 349 228 342 199 q 358 272 357 258 l 403 586 q 390 617 400 596 q 355 658 381 639 q 274 678 329 678 q 190 657 218 678 q 150 601 161 636 q 132 524 139 567 l 74 147 q 76 72 67 100 q 103 33 85 44 q 140 17 121 21 q 169 14 158 14 m 176 760 l 311 874 l 346 874 l 447 760 l 418 760 l 324 850 l 207 760 l 176 760 z "},"ấ":{"ha":486,"x_min":31,"x_max":581,"o":"m 157 -11 q 121 -8 144 -11 q 76 10 97 -4 q 42 58 54 25 q 40 150 31 90 l 103 533 q 141 648 115 613 q 201 692 167 683 q 275 701 236 701 q 359 687 317 701 q 411 632 401 672 l 418 688 l 453 688 l 356 0 l 321 0 l 339 129 q 306 67 328 100 q 247 12 283 35 q 157 -11 211 -11 m 169 14 q 240 36 210 14 q 292 92 271 58 q 328 162 314 125 q 349 228 342 199 q 358 272 357 258 l 403 586 q 390 617 400 596 q 355 658 381 639 q 274 678 329 678 q 190 657 218 678 q 150 601 161 636 q 132 524 139 567 l 74 147 q 76 72 67 100 q 103 33 85 44 q 140 17 121 21 q 169 14 158 14 m 176 760 l 311 874 l 346 874 l 447 760 l 418 760 l 324 850 l 207 760 l 176 760 m 450 828 l 536 949 l 581 949 l 471 828 l 450 828 z "},"ậ":{"ha":486,"x_min":31,"x_max":453,"o":"m 157 -11 q 121 -8 144 -11 q 76 10 97 -4 q 42 58 54 25 q 40 150 31 90 l 103 533 q 141 648 115 613 q 201 692 167 683 q 275 701 236 701 q 359 687 317 701 q 411 632 401 672 l 418 688 l 453 688 l 356 0 l 321 0 l 339 129 q 306 67 328 100 q 247 12 283 35 q 157 -11 211 -11 m 169 14 q 240 36 210 14 q 292 92 271 58 q 328 162 314 125 q 349 228 342 199 q 358 272 357 258 l 403 586 q 390 617 400 596 q 355 658 381 639 q 274 678 329 678 q 190 657 218 678 q 150 601 161 636 q 132 524 139 567 l 74 147 q 76 72 67 100 q 103 33 85 44 q 140 17 121 21 q 169 14 158 14 m 181 -128 q 159 -119 168 -128 q 150 -97 150 -110 q 159 -76 150 -85 q 181 -68 168 -68 q 202 -76 193 -68 q 211 -97 211 -85 q 202 -119 211 -110 q 181 -128 193 -128 m 176 760 l 311 874 l 346 874 l 447 760 l 418 760 l 324 850 l 207 760 l 176 760 z "},"ầ":{"ha":486,"x_min":31,"x_max":519,"o":"m 157 -11 q 121 -8 144 -11 q 76 10 97 -4 q 42 58 54 25 q 40 150 31 90 l 103 533 q 141 648 115 613 q 201 692 167 683 q 275 701 236 701 q 359 687 317 701 q 411 632 401 672 l 418 688 l 453 688 l 356 0 l 321 0 l 339 129 q 306 67 328 100 q 247 12 283 35 q 157 -11 211 -11 m 169 14 q 240 36 210 14 q 292 92 271 58 q 328 162 314 125 q 349 228 342 199 q 358 272 357 258 l 403 586 q 390 617 400 596 q 355 658 381 639 q 274 678 329 678 q 190 657 218 678 q 150 601 161 636 q 132 524 139 567 l 74 147 q 76 72 67 100 q 103 33 85 44 q 140 17 121 21 q 169 14 158 14 m 176 760 l 311 874 l 346 874 l 447 760 l 418 760 l 324 850 l 207 760 l 176 760 m 499 828 l 414 949 l 458 949 l 519 828 l 499 828 z "},"ẩ":{"ha":486,"x_min":31,"x_max":567,"o":"m 157 -11 q 121 -8 144 -11 q 76 10 97 -4 q 42 58 54 25 q 40 150 31 90 l 103 533 q 141 648 115 613 q 201 692 167 683 q 275 701 236 701 q 359 687 317 701 q 411 632 401 672 l 418 688 l 453 688 l 356 0 l 321 0 l 339 129 q 306 67 328 100 q 247 12 283 35 q 157 -11 211 -11 m 169 14 q 240 36 210 14 q 292 92 271 58 q 328 162 314 125 q 349 228 342 199 q 358 272 357 258 l 403 586 q 390 617 400 596 q 355 658 381 639 q 274 678 329 678 q 190 657 218 678 q 150 601 161 636 q 132 524 139 567 l 74 147 q 76 72 67 100 q 103 33 85 44 q 140 17 121 21 q 169 14 158 14 m 176 760 l 311 874 l 346 874 l 447 760 l 418 760 l 324 850 l 207 760 l 176 760 m 471 822 l 474 849 q 493 874 476 868 q 526 889 510 881 q 542 919 542 897 l 542 924 q 535 958 542 942 q 501 974 528 974 q 454 939 467 974 l 431 944 q 458 981 440 968 q 507 994 476 994 q 555 975 543 994 q 567 922 567 956 l 567 919 q 556 883 567 894 q 531 865 546 871 q 506 855 517 860 q 494 840 494 850 l 493 822 l 471 822 z "},"ẫ":{"ha":486,"x_min":31,"x_max":461,"o":"m 157 -11 q 121 -8 144 -11 q 76 10 97 -4 q 42 58 54 25 q 40 150 31 90 l 103 533 q 141 648 115 613 q 201 692 167 683 q 275 701 236 701 q 359 687 317 701 q 411 632 401 672 l 418 688 l 453 688 l 356 0 l 321 0 l 339 129 q 306 67 328 100 q 247 12 283 35 q 157 -11 211 -11 m 169 14 q 240 36 210 14 q 292 92 271 58 q 328 162 314 125 q 349 228 342 199 q 358 272 357 258 l 403 586 q 390 617 400 596 q 355 658 381 639 q 274 678 329 678 q 190 657 218 678 q 150 601 161 636 q 132 524 139 567 l 74 147 q 76 72 67 100 q 103 33 85 44 q 140 17 121 21 q 169 14 158 14 m 176 760 l 311 874 l 346 874 l 447 760 l 418 760 l 324 850 l 207 760 l 176 760 m 381 906 q 354 910 364 906 q 328 929 344 915 q 306 946 318 936 q 276 956 293 956 q 247 944 260 956 q 225 907 233 933 l 200 907 q 229 960 208 939 q 281 981 250 981 q 311 972 297 981 q 339 953 325 964 q 361 938 351 943 q 385 932 371 932 q 415 942 401 932 q 436 978 428 951 l 461 978 q 432 926 453 947 q 381 906 411 906 z "},"´":{"ha":114,"x_min":58,"x_max":189,"o":"m 58 756 l 144 876 l 189 876 l 79 756 l 58 756 z "},"́":{"ha":0,"x_min":58,"x_max":189,"o":"m 58 756 l 144 876 l 189 876 l 79 756 l 58 756 z "},"ä":{"ha":486,"x_min":31,"x_max":453,"o":"m 157 -11 q 121 -8 144 -11 q 76 10 97 -4 q 42 58 54 25 q 40 150 31 90 l 103 533 q 141 648 115 613 q 201 692 167 683 q 275 701 236 701 q 359 687 317 701 q 411 632 401 672 l 418 688 l 453 688 l 356 0 l 321 0 l 339 129 q 306 67 328 100 q 247 12 283 35 q 157 -11 211 -11 m 169 14 q 240 36 210 14 q 292 92 271 58 q 328 162 314 125 q 349 228 342 199 q 358 272 357 258 l 403 586 q 390 617 400 596 q 355 658 381 639 q 274 678 329 678 q 190 657 218 678 q 150 601 161 636 q 132 524 139 567 l 74 147 q 76 72 67 100 q 103 33 85 44 q 140 17 121 21 q 169 14 158 14 m 261 779 q 240 788 249 779 q 231 810 231 797 q 240 831 231 822 q 261 839 249 839 q 283 831 274 839 q 292 810 292 822 q 283 788 292 797 q 261 779 274 779 m 372 779 q 351 788 360 779 q 342 810 342 797 q 351 831 342 822 q 372 839 360 839 q 394 831 385 839 q 403 810 403 822 q 394 788 403 797 q 372 779 385 779 z "},"ạ":{"ha":486,"x_min":31,"x_max":453,"o":"m 157 -11 q 121 -8 144 -11 q 76 10 97 -4 q 42 58 54 25 q 40 150 31 90 l 103 533 q 141 648 115 613 q 201 692 167 683 q 275 701 236 701 q 359 687 317 701 q 411 632 401 672 l 418 688 l 453 688 l 356 0 l 321 0 l 339 129 q 306 67 328 100 q 247 12 283 35 q 157 -11 211 -11 m 169 14 q 240 36 210 14 q 292 92 271 58 q 328 162 314 125 q 349 228 342 199 q 358 272 357 258 l 403 586 q 390 617 400 596 q 355 658 381 639 q 274 678 329 678 q 190 657 218 678 q 150 601 161 636 q 132 524 139 567 l 74 147 q 76 72 67 100 q 103 33 85 44 q 140 17 121 21 q 169 14 158 14 m 181 -128 q 159 -119 168 -128 q 150 -97 150 -110 q 159 -76 150 -85 q 181 -68 168 -68 q 202 -76 193 -68 q 211 -97 211 -85 q 202 -119 211 -110 q 181 -128 193 -128 z "},"æ":{"ha":768,"x_min":35,"x_max":754,"o":"m 164 -4 q 119 0 143 -4 q 74 19 94 4 q 44 67 54 35 q 43 157 35 100 l 49 206 q 106 313 58 271 q 221 389 153 356 q 319 442 279 418 q 382 488 360 465 q 407 536 404 511 l 413 575 q 403 640 419 618 q 358 669 386 661 q 297 676 329 676 q 185 636 215 676 q 144 522 154 596 l 136 464 l 104 464 l 113 525 q 138 616 119 576 q 196 678 157 656 q 301 701 235 701 q 401 681 372 701 q 435 629 431 661 q 435 560 440 597 l 368 81 l 356 119 q 275 24 325 51 q 164 -4 225 -4 m 174 22 q 301 75 256 22 q 361 218 347 128 l 397 469 q 326 415 372 439 q 231 367 279 392 q 128 296 167 332 q 82 200 90 260 l 76 158 q 82 64 67 93 q 124 28 97 35 q 174 22 150 22 m 499 -3 q 421 4 451 -3 q 374 29 390 11 q 353 81 357 47 q 357 168 349 115 l 408 535 q 463 665 421 629 q 599 701 504 701 q 723 666 692 701 q 740 535 754 631 l 717 364 l 417 364 l 389 165 q 399 53 376 82 q 501 25 421 25 q 586 38 556 25 q 633 84 617 51 q 657 175 649 117 l 665 239 l 699 239 l 690 178 q 669 89 682 124 q 633 34 656 54 q 578 6 611 14 q 499 -3 546 -3 m 419 390 l 686 390 l 707 533 q 697 642 718 608 q 593 676 675 676 q 482 642 513 676 q 440 533 451 608 l 419 390 z "},"à":{"ha":486,"x_min":31,"x_max":453,"o":"m 157 -11 q 121 -8 144 -11 q 76 10 97 -4 q 42 58 54 25 q 40 150 31 90 l 103 533 q 141 648 115 613 q 201 692 167 683 q 275 701 236 701 q 359 687 317 701 q 411 632 401 672 l 418 688 l 453 688 l 356 0 l 321 0 l 339 129 q 306 67 328 100 q 247 12 283 35 q 157 -11 211 -11 m 169 14 q 240 36 210 14 q 292 92 271 58 q 328 162 314 125 q 349 228 342 199 q 358 272 357 258 l 403 586 q 390 617 400 596 q 355 658 381 639 q 274 678 329 678 q 190 657 218 678 q 150 601 161 636 q 132 524 139 567 l 74 147 q 76 72 67 100 q 103 33 85 44 q 140 17 121 21 q 169 14 158 14 m 322 756 l 238 876 l 282 876 l 343 756 l 322 756 z "},"ả":{"ha":486,"x_min":31,"x_max":453,"o":"m 157 -11 q 121 -8 144 -11 q 76 10 97 -4 q 42 58 54 25 q 40 150 31 90 l 103 533 q 141 648 115 613 q 201 692 167 683 q 275 701 236 701 q 359 687 317 701 q 411 632 401 672 l 418 688 l 453 688 l 356 0 l 321 0 l 339 129 q 306 67 328 100 q 247 12 283 35 q 157 -11 211 -11 m 169 14 q 240 36 210 14 q 292 92 271 58 q 328 162 314 125 q 349 228 342 199 q 358 272 357 258 l 403 586 q 390 617 400 596 q 355 658 381 639 q 274 678 329 678 q 190 657 218 678 q 150 601 161 636 q 132 524 139 567 l 74 147 q 76 72 67 100 q 103 33 85 44 q 140 17 121 21 q 169 14 158 14 m 294 750 l 297 776 q 317 802 300 796 q 349 817 333 808 q 365 847 365 825 l 365 851 q 358 885 365 869 q 325 901 351 901 q 278 867 290 901 l 254 872 q 282 909 264 896 q 331 922 300 922 q 378 903 367 922 q 390 850 390 883 l 390 847 q 380 810 390 822 q 355 793 369 799 q 329 783 340 788 q 318 768 318 778 l 317 750 l 294 750 z "},"ā":{"ha":486,"x_min":31,"x_max":453,"o":"m 157 -11 q 121 -8 144 -11 q 76 10 97 -4 q 42 58 54 25 q 40 150 31 90 l 103 533 q 141 648 115 613 q 201 692 167 683 q 275 701 236 701 q 359 687 317 701 q 411 632 401 672 l 418 688 l 453 688 l 356 0 l 321 0 l 339 129 q 306 67 328 100 q 247 12 283 35 q 157 -11 211 -11 m 169 14 q 240 36 210 14 q 292 92 271 58 q 328 162 314 125 q 349 228 342 199 q 358 272 357 258 l 403 586 q 390 617 400 596 q 355 658 381 639 q 274 678 329 678 q 190 657 218 678 q 150 601 161 636 q 132 524 139 567 l 74 147 q 76 72 67 100 q 103 33 85 44 q 140 17 121 21 q 169 14 158 14 m 197 792 l 200 815 l 438 815 l 435 792 l 197 792 z "},"&":{"ha":685,"x_min":42,"x_max":622,"o":"m 218 -12 q 101 17 140 -12 q 51 99 61 47 q 50 217 42 150 q 107 365 64 311 q 218 439 150 419 q 198 483 207 451 q 196 560 189 515 q 250 664 206 625 q 381 703 294 703 q 453 697 422 703 q 502 685 483 692 q 528 672 521 678 l 522 640 q 497 650 518 643 q 444 664 475 657 q 378 671 414 671 q 290 649 322 671 q 244 595 257 628 q 233 526 231 563 q 250 460 236 490 q 281 411 257 446 q 333 336 304 376 q 385 264 361 296 q 417 222 410 232 l 440 388 l 622 388 l 617 358 l 469 358 q 458 276 463 307 q 451 227 454 246 q 444 188 449 208 q 519 94 485 135 q 572 38 554 53 l 568 -3 q 515 43 551 1 q 433 142 478 85 q 376 43 413 76 q 297 -1 339 10 q 218 -12 256 -12 m 221 15 q 346 58 297 15 q 408 174 394 101 q 308 306 357 242 q 235 408 260 371 q 137 350 176 394 q 85 214 97 306 q 109 64 71 113 q 221 15 147 15 z "},"ą":{"ha":486,"x_min":31,"x_max":453,"o":"m 157 -11 q 121 -8 144 -11 q 76 10 97 -4 q 42 58 54 25 q 40 150 31 90 l 103 533 q 141 648 115 613 q 201 692 167 683 q 275 701 236 701 q 359 687 317 701 q 411 632 401 672 l 418 688 l 453 688 l 356 0 l 321 0 l 339 129 q 306 67 328 100 q 247 12 283 35 q 157 -11 211 -11 m 169 14 q 240 36 210 14 q 292 92 271 58 q 328 162 314 125 q 349 228 342 199 q 358 272 357 258 l 403 586 q 390 617 400 596 q 355 658 381 639 q 274 678 329 678 q 190 657 218 678 q 150 601 161 636 q 132 524 139 567 l 74 147 q 76 72 67 100 q 103 33 85 44 q 140 17 121 21 q 169 14 158 14 m 310 -179 q 256 -159 278 -179 q 238 -104 233 -139 q 274 -38 244 -64 q 329 0 303 -12 l 358 0 q 296 -46 319 -19 q 268 -100 272 -72 q 280 -142 264 -128 q 314 -156 296 -156 q 339 -152 328 -156 q 356 -146 350 -149 l 361 -165 q 338 -175 351 -171 q 310 -179 325 -179 z "},"≈":{"ha":638,"x_min":42,"x_max":596,"o":"m 461 468 q 378 481 418 468 q 297 508 338 494 q 207 521 256 521 q 143 503 169 521 q 114 464 117 486 l 82 464 q 114 517 93 499 q 162 542 135 535 q 215 550 189 550 q 299 538 260 550 q 382 513 339 525 q 478 500 425 500 q 533 517 508 500 q 561 554 558 533 l 596 554 q 564 501 586 521 q 515 475 542 482 q 461 468 488 468 m 421 182 q 339 196 379 182 q 257 223 299 210 q 167 236 215 236 q 103 219 129 236 q 74 178 76 201 l 42 178 q 74 231 53 213 q 123 258 96 250 q 176 265 150 265 q 260 253 221 265 q 343 228 300 240 q 439 215 386 215 q 494 232 469 215 q 521 269 518 249 l 556 269 q 524 217 546 236 q 474 190 501 197 q 421 182 447 182 z "},"å":{"ha":486,"x_min":31,"x_max":453,"o":"m 157 -11 q 121 -8 144 -11 q 76 10 97 -4 q 42 58 54 25 q 40 150 31 90 l 103 533 q 141 648 115 613 q 201 692 167 683 q 275 701 236 701 q 359 687 317 701 q 411 632 401 672 l 418 688 l 453 688 l 356 0 l 321 0 l 339 129 q 306 67 328 100 q 247 12 283 35 q 157 -11 211 -11 m 169 14 q 240 36 210 14 q 292 92 271 58 q 328 162 314 125 q 349 228 342 199 q 358 272 357 258 l 403 586 q 390 617 400 596 q 355 658 381 639 q 274 678 329 678 q 190 657 218 678 q 150 601 161 636 q 132 524 139 567 l 74 147 q 76 72 67 100 q 103 33 85 44 q 140 17 121 21 q 169 14 158 14 m 310 757 q 241 785 265 757 q 222 853 217 814 q 260 922 228 893 q 338 950 293 950 q 409 922 386 950 q 426 853 432 893 q 386 785 421 814 q 310 757 351 757 m 314 782 q 372 802 349 782 q 399 853 394 822 q 385 906 403 886 q 333 925 368 925 q 276 906 299 925 q 250 853 254 886 q 263 802 246 822 q 314 782 279 782 z "},"^":{"ha":521,"x_min":51,"x_max":435,"o":"m 51 688 l 265 918 l 290 918 l 435 688 l 394 688 l 268 876 l 94 688 l 51 688 z "},"~":{"ha":638,"x_min":63,"x_max":575,"o":"m 440 708 q 358 722 399 708 q 276 748 318 735 q 186 761 235 761 q 123 744 149 761 q 94 704 97 726 l 63 704 q 94 758 72 739 q 142 784 115 776 q 196 792 169 792 q 280 779 240 792 q 363 753 319 767 q 458 740 406 740 q 514 757 489 740 q 540 794 539 774 l 575 794 q 544 742 565 761 q 494 716 522 724 q 440 708 467 708 z "},"*":{"ha":739,"x_min":75,"x_max":675,"o":"m 169 158 l 131 189 l 356 421 l 75 492 l 100 543 l 361 429 l 382 728 l 438 728 l 372 429 l 667 543 l 675 493 l 376 421 l 535 190 l 488 160 l 365 411 l 169 158 z "},"@":{"ha":972,"x_min":49,"x_max":928,"o":"m 419 -89 q 177 -38 260 -89 q 72 110 94 13 q 68 349 49 208 q 215 699 100 574 q 546 824 329 824 q 756 782 667 824 q 886 649 844 740 q 907 411 928 558 q 872 266 897 336 q 802 150 846 196 q 693 104 758 104 q 639 119 658 104 q 612 158 619 135 q 603 205 604 182 q 604 242 603 228 l 619 251 q 527 164 581 189 q 421 139 474 139 q 322 167 357 139 q 299 269 288 194 q 325 338 304 310 q 390 388 346 365 q 504 431 433 410 q 565 449 539 439 q 610 471 592 460 q 631 493 625 481 q 640 521 638 506 q 619 581 644 557 q 528 606 593 606 q 419 579 454 606 q 378 503 385 553 l 371 461 l 339 461 l 346 501 q 372 574 351 544 q 431 619 392 604 q 535 635 471 635 q 626 619 594 635 q 669 573 658 604 q 674 494 681 542 l 638 242 q 649 158 631 185 q 703 132 668 132 q 772 160 738 132 q 833 251 806 189 q 875 413 861 313 q 863 613 892 526 q 758 749 835 700 q 553 799 682 799 q 333 755 425 799 q 183 612 240 711 q 101 344 125 513 q 100 138 83 218 q 161 14 117 57 q 273 -46 206 -29 q 424 -62 340 -62 q 491 -58 450 -62 q 579 -47 532 -54 q 671 -28 626 -39 q 749 -1 715 -17 l 743 -35 q 670 -58 717 -44 q 560 -80 624 -71 q 419 -89 497 -89 m 436 167 q 522 188 483 167 q 583 238 560 208 q 611 296 607 268 l 632 446 q 578 425 614 436 q 504 401 542 414 q 409 363 444 381 q 356 322 374 344 q 332 260 338 299 q 351 188 325 208 q 436 167 378 167 z "},"ã":{"ha":486,"x_min":31,"x_max":453,"o":"m 157 -11 q 121 -8 144 -11 q 76 10 97 -4 q 42 58 54 25 q 40 150 31 90 l 103 533 q 141 648 115 613 q 201 692 167 683 q 275 701 236 701 q 359 687 317 701 q 411 632 401 672 l 418 688 l 453 688 l 356 0 l 321 0 l 339 129 q 306 67 328 100 q 247 12 283 35 q 157 -11 211 -11 m 169 14 q 240 36 210 14 q 292 92 271 58 q 328 162 314 125 q 349 228 342 199 q 358 272 357 258 l 403 586 q 390 617 400 596 q 355 658 381 639 q 274 678 329 678 q 190 657 218 678 q 150 601 161 636 q 132 524 139 567 l 74 147 q 76 72 67 100 q 103 33 85 44 q 140 17 121 21 q 169 14 158 14 m 368 772 q 342 777 351 772 q 315 796 332 782 q 293 813 306 803 q 264 822 281 822 q 234 811 247 822 q 213 774 221 800 l 188 774 q 217 826 196 806 q 268 847 238 847 q 299 839 285 847 q 326 819 313 831 q 349 804 339 810 q 372 799 358 799 q 402 808 389 799 q 424 844 415 818 l 449 844 q 419 793 440 814 q 368 772 399 772 z "},"b":{"ha":493,"x_min":40,"x_max":454,"o":"m 208 -10 q 113 12 140 -10 q 78 65 86 33 l 65 0 l 40 0 l 164 875 l 196 875 l 163 644 q 217 685 182 669 q 310 701 253 701 q 399 685 368 701 q 442 644 429 669 q 454 586 454 618 q 450 521 454 554 l 401 174 q 388 108 397 140 q 358 49 378 75 q 303 6 339 22 q 208 -10 267 -10 m 211 18 q 312 43 281 18 q 353 106 343 68 q 369 183 364 144 l 415 507 q 422 566 419 536 q 416 620 424 596 q 383 659 408 644 q 304 674 357 674 q 210 653 242 674 q 166 600 178 632 q 149 532 154 568 l 106 224 q 98 154 101 190 q 101 87 94 118 q 133 37 107 56 q 211 18 158 18 z "},"\\":{"ha":656,"x_min":136,"x_max":515,"o":"m 481 -64 l 136 876 l 172 876 l 515 -64 l 481 -64 z "},"|":{"ha":257,"x_min":26,"x_max":231,"o":"m 26 -340 l 199 876 l 231 876 l 58 -340 l 26 -340 z "},"б":{"ha":489,"x_min":38,"x_max":442,"o":"m 194 -10 q 90 13 125 -10 q 46 80 54 36 q 46 186 38 124 l 117 694 q 153 795 126 763 q 218 839 179 828 q 306 850 257 850 q 346 852 328 850 q 378 858 364 854 q 403 866 392 861 q 422 876 414 871 q 438 886 431 881 q 437 874 438 881 q 433 857 436 868 q 401 835 433 850 q 313 819 368 819 l 288 819 q 227 810 256 819 q 178 774 199 801 q 149 692 158 746 l 129 557 q 188 603 147 585 q 288 622 228 622 q 390 600 356 622 q 433 537 424 578 q 433 438 442 496 l 399 189 q 379 103 392 140 q 344 41 367 67 q 285 3 321 15 q 194 -10 249 -10 m 197 15 q 297 40 263 15 q 345 103 331 64 q 367 189 360 143 l 400 431 q 403 510 407 474 q 374 571 400 547 q 282 594 347 594 q 193 580 226 594 q 144 542 160 565 q 122 496 128 519 q 114 454 117 472 l 78 189 q 74 103 71 143 q 105 40 78 64 q 197 15 132 15 z "},"{":{"ha":403,"x_min":69,"x_max":371,"o":"m 215 -190 q 133 -160 164 -182 q 89 -101 101 -137 q 83 -17 76 -65 q 106 53 89 19 q 143 119 122 86 q 181 185 164 151 q 203 257 197 219 q 188 312 207 289 q 136 349 168 335 q 69 364 104 363 l 72 379 q 142 393 107 382 q 204 427 178 404 q 235 485 231 450 q 233 556 240 522 q 213 621 225 589 q 194 687 201 653 q 192 760 186 721 q 219 842 199 810 q 278 892 240 874 q 371 922 315 911 l 367 892 q 302 874 331 886 q 254 836 274 863 q 228 760 235 810 q 228 686 222 719 q 246 622 235 653 q 263 559 257 592 q 264 485 269 526 q 248 442 261 464 q 210 403 235 421 q 150 372 186 385 q 217 322 199 353 q 232 257 236 290 q 210 181 226 214 q 174 119 193 149 q 140 57 156 89 q 118 -17 124 25 q 122 -97 111 -67 q 159 -141 133 -126 q 218 -161 185 -156 l 215 -190 z "},"}":{"ha":403,"x_min":32,"x_max":333,"o":"m 32 -190 l 35 -161 q 100 -141 71 -156 q 149 -97 129 -126 q 176 -17 169 -67 q 175 57 182 25 q 158 119 168 89 q 141 181 147 149 q 140 257 135 214 q 172 322 144 290 q 256 372 200 353 q 204 403 224 385 q 177 442 185 421 q 172 485 169 464 q 194 559 178 526 q 229 622 210 592 q 265 686 249 653 q 286 760 281 719 q 281 836 293 810 q 244 874 269 863 q 183 892 218 886 l 188 922 q 272 892 240 911 q 316 842 304 874 q 321 760 328 810 q 298 687 315 721 q 260 621 281 653 q 224 556 240 589 q 201 485 207 522 q 217 427 197 450 q 269 393 236 404 q 333 379 301 382 l 332 364 q 261 349 297 363 q 199 312 225 335 q 169 257 174 289 q 172 185 164 219 q 191 119 179 151 q 210 53 203 86 q 213 -17 218 19 q 183 -101 206 -65 q 122 -160 160 -137 q 32 -190 85 -182 z "},"[":{"ha":374,"x_min":3,"x_max":371,"o":"m 3 -79 l 136 875 l 371 875 l 368 850 l 164 850 l 38 -54 l 242 -54 l 238 -79 l 3 -79 z "},"]":{"ha":374,"x_min":3,"x_max":371,"o":"m 3 -79 l 6 -54 l 210 -54 l 336 850 l 132 850 l 136 875 l 371 875 l 238 -79 l 3 -79 z "},"˘":{"ha":246,"x_min":72,"x_max":319,"o":"m 179 754 q 124 765 146 754 q 92 794 103 776 q 76 831 81 811 q 74 867 72 850 l 100 867 q 124 800 101 822 q 183 778 146 778 q 253 799 224 778 q 293 867 282 821 l 319 867 q 297 818 314 844 q 252 773 281 792 q 179 754 224 754 z "},"̆":{"ha":0,"x_min":72,"x_max":319,"o":"m 179 754 q 124 765 146 754 q 92 794 103 776 q 76 831 81 811 q 74 867 72 850 l 100 867 q 124 800 101 822 q 183 778 146 778 q 253 799 224 778 q 293 867 282 821 l 319 867 q 297 818 314 844 q 252 773 281 792 q 179 754 224 754 z "},"¦":{"ha":306,"x_min":64,"x_max":243,"o":"m 64 -237 l 129 232 l 161 232 l 96 -237 l 64 -237 m 150 383 l 211 813 l 243 813 l 183 383 l 150 383 z "},"•":{"ha":571,"x_min":96,"x_max":475,"o":"m 286 199 q 190 224 233 199 q 122 293 147 250 q 96 389 96 336 q 122 484 96 442 q 190 552 147 526 q 286 578 233 578 q 381 552 339 578 q 449 484 424 526 q 475 389 475 442 q 449 293 475 336 q 381 224 424 250 q 286 199 339 199 z "},"c":{"ha":464,"x_min":36,"x_max":442,"o":"m 186 -12 q 108 -4 139 -12 q 60 24 76 4 q 40 80 43 44 q 43 168 36 115 l 94 535 q 150 666 108 631 q 286 701 192 701 q 410 666 379 701 q 428 535 442 631 l 417 454 l 383 454 l 394 533 q 385 642 406 608 q 282 676 364 676 q 170 642 201 676 q 128 533 139 608 l 76 165 q 86 49 65 82 q 188 15 107 15 q 300 49 269 15 q 343 165 331 82 l 354 240 l 388 240 l 378 168 q 347 58 368 97 q 288 3 326 19 q 186 -12 249 -12 z "},"ć":{"ha":464,"x_min":36,"x_max":442,"o":"m 186 -12 q 108 -4 139 -12 q 60 24 76 4 q 40 80 43 44 q 43 168 36 115 l 94 535 q 150 666 108 631 q 286 701 192 701 q 410 666 379 701 q 428 535 442 631 l 417 454 l 383 454 l 394 533 q 385 642 406 608 q 282 676 364 676 q 170 642 201 676 q 128 533 139 608 l 76 165 q 86 49 65 82 q 188 15 107 15 q 300 49 269 15 q 343 165 331 82 l 354 240 l 388 240 l 378 168 q 347 58 368 97 q 288 3 326 19 q 186 -12 249 -12 m 253 756 l 339 876 l 383 876 l 274 756 l 253 756 z "},"ˇ":{"ha":271,"x_min":75,"x_max":346,"o":"m 176 760 l 75 874 l 106 874 l 197 783 l 317 874 l 346 874 l 211 760 l 176 760 z "},"̌":{"ha":0,"x_min":75,"x_max":346,"o":"m 176 760 l 75 874 l 106 874 l 197 783 l 317 874 l 346 874 l 211 760 l 176 760 z "},"č":{"ha":464,"x_min":36,"x_max":450,"o":"m 186 -12 q 108 -4 139 -12 q 60 24 76 4 q 40 80 43 44 q 43 168 36 115 l 94 535 q 150 666 108 631 q 286 701 192 701 q 410 666 379 701 q 428 535 442 631 l 417 454 l 383 454 l 394 533 q 385 642 406 608 q 282 676 364 676 q 170 642 201 676 q 128 533 139 608 l 76 165 q 86 49 65 82 q 188 15 107 15 q 300 49 269 15 q 343 165 331 82 l 354 240 l 388 240 l 378 168 q 347 58 368 97 q 288 3 326 19 q 186 -12 249 -12 m 281 760 l 179 874 l 210 874 l 301 783 l 421 874 l 450 874 l 315 760 l 281 760 z "},"ç":{"ha":464,"x_min":36,"x_max":442,"o":"m 186 -12 q 108 -4 139 -12 q 60 24 76 4 q 40 80 43 44 q 43 168 36 115 l 94 535 q 150 666 108 631 q 286 701 192 701 q 410 666 379 701 q 428 535 442 631 l 417 454 l 383 454 l 394 533 q 385 642 406 608 q 282 676 364 676 q 170 642 201 676 q 128 533 139 608 l 76 165 q 86 49 65 82 q 188 15 107 15 q 300 49 269 15 q 343 165 331 82 l 354 240 l 388 240 l 378 168 q 347 58 368 97 q 288 3 326 19 q 186 -12 249 -12 m 158 -186 q 127 -181 140 -186 q 103 -169 114 -175 l 114 -150 q 136 -160 121 -156 q 160 -165 151 -165 q 208 -151 192 -165 q 226 -119 225 -137 q 183 -75 233 -75 q 162 -79 174 -75 q 139 -90 150 -83 l 124 -81 l 179 0 l 203 0 l 154 -69 l 147 -68 q 171 -59 158 -61 q 193 -57 183 -57 q 240 -76 225 -57 q 253 -115 256 -94 q 224 -167 249 -147 q 158 -186 199 -186 z "},"ċ":{"ha":464,"x_min":36,"x_max":442,"o":"m 186 -12 q 108 -4 139 -12 q 60 24 76 4 q 40 80 43 44 q 43 168 36 115 l 94 535 q 150 666 108 631 q 286 701 192 701 q 410 666 379 701 q 428 535 442 631 l 417 454 l 383 454 l 394 533 q 385 642 406 608 q 282 676 364 676 q 170 642 201 676 q 128 533 139 608 l 76 165 q 86 49 65 82 q 188 15 107 15 q 300 49 269 15 q 343 165 331 82 l 354 240 l 388 240 l 378 168 q 347 58 368 97 q 288 3 326 19 q 186 -12 249 -12 m 297 779 q 276 788 285 779 q 267 810 267 797 q 276 831 267 822 q 297 839 285 839 q 319 831 310 839 q 328 810 328 822 q 319 788 328 797 q 297 779 310 779 z "},"¸":{"ha":142,"x_min":-72,"x_max":81,"o":"m -17 -183 q -48 -178 -35 -183 q -72 -167 -61 -172 l -61 -147 q -39 -158 -54 -153 q -15 -162 -24 -162 q 33 -149 17 -162 q 51 -117 50 -135 q 8 -72 58 -72 q -13 -76 -1 -72 q -36 -87 -25 -81 l -51 -78 l 4 3 l 28 3 l -21 -67 l -28 -65 q -4 -56 -17 -58 q 18 -54 8 -54 q 65 -73 50 -54 q 78 -112 81 -92 q 49 -164 74 -144 q -17 -183 24 -183 z "},"̧":{"ha":0,"x_min":-79,"x_max":74,"o":"m -24 -183 q -55 -178 -42 -183 q -79 -167 -68 -172 l -68 -147 q -46 -158 -61 -153 q -22 -162 -31 -162 q 26 -149 10 -162 q 44 -117 43 -135 q 1 -72 51 -72 q -20 -76 -8 -72 q -43 -87 -32 -81 l -58 -78 l -3 3 l 21 3 l -28 -67 l -35 -65 q -11 -56 -24 -58 q 11 -54 1 -54 q 58 -73 43 -54 q 71 -112 74 -92 q 42 -164 67 -144 q -24 -183 17 -183 z "},"¢":{"ha":463,"x_min":35,"x_max":435,"o":"m 149 -86 l 171 69 q 96 81 128 69 q 49 126 64 93 q 43 222 35 158 l 100 632 q 133 728 110 696 q 192 772 157 760 q 271 785 228 783 l 288 896 l 317 896 l 300 785 q 373 770 342 782 q 419 726 404 758 q 425 632 435 694 l 411 528 l 379 528 l 394 629 q 390 717 403 689 q 348 753 376 744 q 281 763 319 763 q 211 753 242 763 q 160 717 181 744 q 132 629 140 689 l 75 226 q 79 138 67 167 q 120 101 92 110 q 188 92 149 92 q 260 101 229 92 q 310 138 290 110 q 338 226 329 167 l 349 306 l 379 306 l 367 222 q 335 126 358 158 q 276 81 311 93 q 200 69 242 69 l 178 -86 l 149 -86 z "},"ч":{"ha":453,"x_min":42,"x_max":413,"o":"m 282 0 l 322 288 q 268 233 306 257 q 176 210 231 210 q 79 235 108 210 q 46 302 50 260 q 49 397 42 344 l 90 688 l 124 688 l 81 394 q 90 278 71 318 q 185 238 108 238 q 281 271 246 238 q 329 336 315 304 l 378 688 l 413 688 l 315 0 l 282 0 z "},"ˆ":{"ha":271,"x_min":58,"x_max":329,"o":"m 58 760 l 193 874 l 228 874 l 329 760 l 300 760 l 206 850 l 89 760 l 58 760 z "},"̂":{"ha":0,"x_min":58,"x_max":329,"o":"m 58 760 l 193 874 l 228 874 l 329 760 l 300 760 l 206 850 l 89 760 l 58 760 z "},":":{"ha":206,"x_min":25,"x_max":146,"o":"m 107 390 q 86 399 94 390 q 79 421 78 408 q 92 442 82 433 q 115 451 103 451 q 137 442 128 451 q 143 421 146 433 q 131 399 142 408 q 107 390 119 390 m 54 -7 q 33 2 42 -7 q 26 24 25 11 q 40 45 29 36 q 63 54 50 54 q 84 45 75 54 q 90 24 93 36 q 78 2 89 11 q 54 -7 67 -7 z "},",":{"ha":218,"x_min":1,"x_max":103,"o":"m 1 -137 q 33 -87 15 -115 q 54 -37 51 -60 q 53 -13 57 -21 q 46 1 50 -6 q 42 21 42 7 q 50 41 42 32 q 72 50 58 50 q 94 42 86 50 q 103 18 103 33 q 90 -32 103 -4 q 58 -87 76 -60 q 21 -137 39 -114 l 1 -137 z "},"̦":{"ha":0,"x_min":-86,"x_max":-6,"o":"m -86 -185 q -53 -133 -64 -154 q -42 -101 -42 -111 q -45 -90 -42 -94 q -53 -81 -49 -86 q -57 -65 -57 -75 q -49 -49 -57 -57 q -31 -40 -42 -40 q -12 -47 -19 -40 q -6 -65 -6 -54 q -15 -100 -6 -79 q -39 -143 -25 -121 q -68 -185 -53 -165 l -86 -185 z "},"̒":{"ha":0,"x_min":63,"x_max":143,"o":"m 143 903 q 110 851 121 872 q 99 819 99 829 q 103 809 99 814 q 110 799 107 804 q 114 783 114 793 q 106 767 114 775 q 88 758 99 758 q 69 766 76 758 q 63 783 63 774 q 72 818 63 797 q 97 862 82 839 q 125 903 111 885 l 143 903 z "},"©":{"ha":833,"x_min":53,"x_max":861,"o":"m 403 43 q 213 96 294 43 q 92 237 132 149 q 68 433 53 325 q 119 584 79 514 q 220 708 160 654 q 356 791 281 761 q 511 821 431 821 q 700 769 619 821 q 821 628 781 717 q 846 433 861 540 q 794 282 835 353 q 694 157 754 211 q 558 73 633 103 q 403 43 483 43 m 406 65 q 552 94 482 65 q 679 175 622 124 q 774 292 736 226 q 821 433 811 358 q 799 616 836 533 q 685 748 761 699 q 508 797 610 797 q 364 769 433 797 q 237 690 294 740 q 142 574 179 640 q 93 433 104 508 q 102 292 83 358 q 164 175 121 226 q 269 94 207 124 q 406 65 331 65 m 424 219 q 366 225 389 219 q 331 243 343 231 q 317 278 319 256 q 319 333 314 300 l 358 561 q 399 643 368 621 q 499 665 429 665 q 589 643 567 665 q 601 561 611 621 l 593 511 l 569 511 l 578 561 q 569 628 585 607 q 496 650 554 650 q 413 628 436 650 q 382 561 390 607 l 344 331 q 350 258 335 279 q 425 238 365 238 q 506 258 483 238 q 539 331 529 279 l 547 378 l 571 378 l 564 333 q 542 264 557 289 q 498 229 526 239 q 424 219 469 219 z "},"¤":{"ha":589,"x_min":68,"x_max":521,"o":"m 104 201 l 78 228 l 161 310 q 128 360 140 333 q 117 414 117 386 q 160 526 117 475 l 68 617 l 92 642 l 188 546 q 288 578 236 578 q 394 543 340 578 l 486 633 l 510 608 l 421 519 q 460 414 460 469 q 422 315 460 361 l 521 215 l 494 190 l 394 292 q 341 265 368 275 q 288 256 314 256 q 186 285 231 256 l 104 201 m 288 290 q 380 327 342 290 q 418 414 418 364 q 380 506 418 468 q 288 544 342 544 q 194 508 231 544 q 158 414 158 471 q 194 327 158 364 q 288 290 231 290 z "},"d":{"ha":493,"x_min":39,"x_max":479,"o":"m 181 -11 q 93 4 124 -11 q 51 46 63 19 q 39 106 39 72 q 44 174 39 139 l 93 521 q 115 606 100 565 q 168 674 129 647 q 283 701 207 701 q 372 685 340 701 q 415 644 403 669 l 447 875 l 479 875 l 356 0 l 332 0 l 338 65 q 308 27 326 44 q 258 -1 289 10 q 181 -11 228 -11 m 185 14 q 271 33 239 14 q 319 84 303 53 q 342 152 335 115 q 354 222 350 189 q 379 404 367 314 q 406 586 392 494 q 393 625 404 604 q 356 661 382 646 q 282 676 331 676 q 181 651 213 676 q 140 586 150 625 q 125 507 131 547 l 79 182 q 73 122 75 151 q 78 67 71 92 q 110 28 86 43 q 185 14 135 14 z "},"†":{"ha":490,"x_min":90,"x_max":449,"o":"m 156 -172 l 247 479 l 90 479 l 94 510 l 251 510 l 294 813 l 326 813 l 285 510 l 449 510 l 444 479 l 279 479 l 188 -172 l 156 -172 z "},"‡":{"ha":492,"x_min":57,"x_max":449,"o":"m 156 -172 l 214 238 l 57 238 l 61 269 l 218 269 l 247 479 l 90 479 l 96 510 l 251 510 l 294 814 l 328 814 l 285 510 l 449 510 l 444 479 l 279 479 l 251 269 l 415 269 l 411 238 l 246 238 l 188 -172 l 156 -172 z "},"ď":{"ha":493,"x_min":39,"x_max":585,"o":"m 181 -11 q 93 4 124 -11 q 51 46 63 19 q 39 106 39 72 q 44 174 39 139 l 93 521 q 115 606 100 565 q 168 674 129 647 q 283 701 207 701 q 372 685 340 701 q 415 644 403 669 l 447 875 l 479 875 l 356 0 l 332 0 l 338 65 q 308 27 326 44 q 258 -1 289 10 q 181 -11 228 -11 m 185 14 q 271 33 239 14 q 319 84 303 53 q 342 152 335 115 q 354 222 350 189 q 379 404 367 314 q 406 586 392 494 q 393 625 404 604 q 356 661 382 646 q 282 676 331 676 q 181 651 213 676 q 140 586 150 625 q 125 507 131 547 l 79 182 q 73 122 75 151 q 78 67 71 92 q 110 28 86 43 q 185 14 135 14 m 513 742 l 556 904 l 585 904 l 532 742 l 513 742 z "},"đ":{"ha":479,"x_min":39,"x_max":522,"o":"m 239 772 l 243 799 l 522 799 l 518 772 l 239 772 m 181 -11 q 93 4 124 -11 q 51 46 63 19 q 39 106 39 72 q 44 174 39 139 l 93 521 q 115 606 100 565 q 168 674 129 647 q 283 701 207 701 q 372 685 340 701 q 415 644 403 669 l 447 875 l 479 875 l 356 0 l 332 0 l 338 65 q 308 27 326 44 q 258 -1 289 10 q 181 -11 228 -11 m 185 14 q 271 33 239 14 q 319 84 303 53 q 342 152 335 115 q 354 222 350 189 q 379 404 367 314 q 406 586 392 494 q 393 625 404 604 q 356 661 382 646 q 282 676 331 676 q 181 651 213 676 q 140 586 150 625 q 125 507 131 547 l 79 182 q 73 122 75 151 q 78 67 71 92 q 110 28 86 43 q 185 14 135 14 z "},"д":{"ha":654,"x_min":-24,"x_max":586,"o":"m -24 -142 l 0 25 l 72 25 q 106 38 92 28 q 133 71 121 49 q 153 129 144 93 l 285 686 l 568 686 l 476 25 l 586 25 l 561 -142 l 529 -142 l 549 -1 l 28 -1 l 8 -142 l -24 -142 m 139 25 l 440 25 l 529 658 l 313 658 l 194 161 q 176 88 188 129 q 139 25 164 47 z "},"°":{"ha":444,"x_min":60,"x_max":382,"o":"m 201 521 q 91 565 122 521 q 68 669 60 608 q 118 776 76 732 q 246 821 160 821 q 333 801 303 821 q 372 747 363 781 q 376 672 382 713 q 324 564 367 607 q 201 521 281 521 m 206 543 q 301 578 264 543 q 346 671 338 613 q 327 761 353 722 q 240 800 301 800 q 146 764 183 800 q 100 669 108 728 q 123 578 92 613 q 206 543 154 543 z "},"¨":{"ha":172,"x_min":65,"x_max":238,"o":"m 96 779 q 74 788 83 779 q 65 810 65 797 q 74 831 65 822 q 96 839 83 839 q 117 831 108 839 q 126 810 126 822 q 117 788 126 797 q 96 779 108 779 m 207 779 q 185 788 194 779 q 176 810 176 797 q 185 831 176 822 q 207 839 194 839 q 228 831 219 839 q 238 810 238 822 q 228 788 238 797 q 207 779 219 779 z "},"̈":{"ha":0,"x_min":65,"x_max":238,"o":"m 96 779 q 74 788 83 779 q 65 810 65 797 q 74 831 65 822 q 96 839 83 839 q 117 831 108 839 q 126 810 126 822 q 117 788 126 797 q 96 779 108 779 m 207 779 q 185 788 194 779 q 176 810 176 797 q 185 831 176 822 q 207 839 194 839 q 228 831 219 839 q 238 810 238 822 q 228 788 238 797 q 207 779 219 779 z "},"÷":{"ha":492,"x_min":69,"x_max":426,"o":"m 69 392 l 74 421 l 426 421 l 422 392 l 69 392 m 211 142 q 190 150 197 142 q 183 172 182 158 q 194 193 185 185 q 218 201 204 201 q 240 193 231 201 q 247 172 249 185 q 234 150 246 158 q 211 142 222 142 m 272 585 q 251 593 260 585 q 244 615 243 601 q 257 637 247 628 q 281 646 267 646 q 302 637 293 646 q 308 615 311 628 q 296 593 307 601 q 272 585 285 585 z "},"∕":{"ha":367,"x_min":-125,"x_max":518,"o":"m -125 -161 l 482 974 l 518 974 l -90 -161 l -125 -161 z "},"ђ":{"ha":525,"x_min":50,"x_max":472,"o":"m 232 -131 q 190 -125 208 -131 q 156 -111 171 -119 q 163 -100 160 -106 q 171 -89 165 -94 q 197 -101 182 -96 q 235 -106 211 -106 q 339 -53 308 -106 q 383 92 369 -1 l 433 446 q 428 515 436 485 q 394 563 421 544 q 313 581 367 581 q 216 557 250 581 q 166 498 182 533 q 145 426 150 463 q 136 365 140 390 l 83 0 l 50 0 l 156 743 l 79 743 l 83 768 l 158 768 l 174 875 l 207 875 l 192 768 l 331 768 l 328 743 l 189 743 l 157 522 q 219 581 178 558 q 318 604 261 604 q 421 582 388 604 q 463 519 454 560 q 464 421 472 478 l 417 89 q 387 -32 407 13 q 342 -97 367 -76 q 288 -124 317 -118 q 232 -131 260 -131 z "},"$":{"ha":469,"x_min":21,"x_max":429,"o":"m 156 -85 l 178 75 q 49 117 76 75 q 35 260 21 158 l 42 314 l 74 314 l 67 261 q 60 183 61 219 q 85 124 60 146 q 179 101 110 101 q 274 124 243 101 q 315 180 304 147 q 331 240 326 213 l 335 269 q 332 332 340 304 q 299 382 324 360 q 231 422 275 404 q 149 465 183 443 q 100 520 115 488 q 92 603 85 553 l 97 646 q 150 746 107 707 q 278 785 193 785 l 300 943 l 322 943 l 300 785 q 400 742 371 781 q 417 615 429 703 l 407 551 l 375 551 l 383 611 q 368 728 396 697 q 276 758 340 758 q 168 724 200 758 q 129 638 136 689 l 125 610 q 131 538 119 567 q 174 489 143 510 q 253 446 204 468 q 322 408 293 428 q 364 356 351 389 q 368 263 376 322 l 365 239 q 345 168 360 204 q 297 106 331 132 q 200 76 264 81 l 178 -85 l 156 -85 z "},"˙":{"ha":61,"x_min":65,"x_max":126,"o":"m 96 779 q 74 788 83 779 q 65 810 65 797 q 74 831 65 822 q 96 839 83 839 q 117 831 108 839 q 126 810 126 822 q 117 788 126 797 q 96 779 108 779 z "},"̇":{"ha":0,"x_min":65,"x_max":126,"o":"m 96 779 q 74 788 83 779 q 65 810 65 797 q 74 831 65 822 q 96 839 83 839 q 117 831 108 839 q 126 810 126 822 q 117 788 126 797 q 96 779 108 779 z "},"̣":{"ha":0,"x_min":-61,"x_max":0,"o":"m -31 -128 q -52 -119 -43 -128 q -61 -97 -61 -110 q -52 -76 -61 -85 q -31 -68 -43 -68 q -9 -76 -18 -68 q 0 -97 0 -85 q -9 -119 0 -110 q -31 -128 -18 -128 z "},"↓":{"ha":700,"x_min":68,"x_max":632,"o":"m 351 0 l 68 283 l 86 301 l 339 51 l 336 978 l 364 978 l 364 51 l 617 301 l 632 283 l 351 0 z "},"ѕ":{"ha":463,"x_min":33,"x_max":435,"o":"m 185 -8 q 88 8 121 -8 q 44 52 56 25 q 35 112 33 79 q 42 176 38 144 l 49 231 l 82 231 l 75 178 q 69 100 69 136 q 93 42 68 64 q 188 19 118 19 q 281 42 250 19 q 323 97 311 64 q 339 157 335 129 l 343 186 q 340 249 349 221 q 308 299 332 276 q 238 339 283 321 q 157 382 190 360 q 109 437 124 404 q 100 519 94 469 l 106 563 q 132 635 111 604 q 192 684 153 667 q 288 701 231 701 q 376 685 343 701 q 422 632 410 669 q 425 532 435 594 l 415 468 l 383 468 l 392 528 q 376 643 403 613 q 285 674 349 674 q 176 639 208 674 q 138 554 144 604 l 133 526 q 140 455 128 483 q 182 406 151 426 q 261 363 213 385 q 330 325 301 344 q 371 272 358 306 q 376 179 383 239 l 374 156 q 353 81 369 118 q 299 17 338 43 q 185 -8 260 -8 z "},"џ":{"ha":535,"x_min":40,"x_max":494,"o":"m 181 -157 l 203 0 l 40 0 l 138 688 l 171 688 l 78 26 l 365 26 l 460 688 l 494 688 l 397 0 l 233 0 l 211 -157 l 181 -157 z "},"e":{"ha":467,"x_min":33,"x_max":457,"o":"m 186 -12 q 89 3 124 -12 q 44 58 54 19 q 43 168 33 97 l 94 535 q 156 664 108 631 q 292 697 204 697 q 424 654 392 697 q 435 510 457 611 q 378 412 421 449 q 282 355 336 375 q 177 326 228 335 q 97 313 126 317 l 76 167 q 85 49 64 82 q 188 15 107 15 q 301 49 269 15 q 343 167 332 82 l 353 240 l 386 240 l 376 168 q 347 58 367 97 q 288 3 326 19 q 186 -12 250 -12 m 101 343 q 184 356 138 347 q 276 384 231 365 q 354 434 321 403 q 399 513 388 465 q 397 631 418 590 q 293 672 376 672 q 176 640 214 672 q 128 532 139 608 l 101 343 z "},"é":{"ha":467,"x_min":33,"x_max":457,"o":"m 186 -12 q 89 3 124 -12 q 44 58 54 19 q 43 168 33 97 l 94 535 q 156 664 108 631 q 292 697 204 697 q 424 654 392 697 q 435 510 457 611 q 378 412 421 449 q 282 355 336 375 q 177 326 228 335 q 97 313 126 317 l 76 167 q 85 49 64 82 q 188 15 107 15 q 301 49 269 15 q 343 167 332 82 l 353 240 l 386 240 l 376 168 q 347 58 367 97 q 288 3 326 19 q 186 -12 250 -12 m 101 343 q 184 356 138 347 q 276 384 231 365 q 354 434 321 403 q 399 513 388 465 q 397 631 418 590 q 293 672 376 672 q 176 640 214 672 q 128 532 139 608 l 101 343 m 254 756 l 340 876 l 385 876 l 275 756 l 254 756 z "},"ě":{"ha":467,"x_min":33,"x_max":457,"o":"m 186 -12 q 89 3 124 -12 q 44 58 54 19 q 43 168 33 97 l 94 535 q 156 664 108 631 q 292 697 204 697 q 424 654 392 697 q 435 510 457 611 q 378 412 421 449 q 282 355 336 375 q 177 326 228 335 q 97 313 126 317 l 76 167 q 85 49 64 82 q 188 15 107 15 q 301 49 269 15 q 343 167 332 82 l 353 240 l 386 240 l 376 168 q 347 58 367 97 q 288 3 326 19 q 186 -12 250 -12 m 101 343 q 184 356 138 347 q 276 384 231 365 q 354 434 321 403 q 399 513 388 465 q 397 631 418 590 q 293 672 376 672 q 176 640 214 672 q 128 532 139 608 l 101 343 m 282 760 l 181 874 l 211 874 l 303 783 l 422 874 l 451 874 l 317 760 l 282 760 z "},"ê":{"ha":467,"x_min":33,"x_max":457,"o":"m 186 -12 q 89 3 124 -12 q 44 58 54 19 q 43 168 33 97 l 94 535 q 156 664 108 631 q 292 697 204 697 q 424 654 392 697 q 435 510 457 611 q 378 412 421 449 q 282 355 336 375 q 177 326 228 335 q 97 313 126 317 l 76 167 q 85 49 64 82 q 188 15 107 15 q 301 49 269 15 q 343 167 332 82 l 353 240 l 386 240 l 376 168 q 347 58 367 97 q 288 3 326 19 q 186 -12 250 -12 m 101 343 q 184 356 138 347 q 276 384 231 365 q 354 434 321 403 q 399 513 388 465 q 397 631 418 590 q 293 672 376 672 q 176 640 214 672 q 128 532 139 608 l 101 343 m 157 760 l 292 874 l 326 874 l 428 760 l 399 760 l 304 850 l 188 760 l 157 760 z "},"ế":{"ha":467,"x_min":33,"x_max":561,"o":"m 186 -12 q 89 3 124 -12 q 44 58 54 19 q 43 168 33 97 l 94 535 q 156 664 108 631 q 292 697 204 697 q 424 654 392 697 q 435 510 457 611 q 378 412 421 449 q 282 355 336 375 q 177 326 228 335 q 97 313 126 317 l 76 167 q 85 49 64 82 q 188 15 107 15 q 301 49 269 15 q 343 167 332 82 l 353 240 l 386 240 l 376 168 q 347 58 367 97 q 288 3 326 19 q 186 -12 250 -12 m 101 343 q 184 356 138 347 q 276 384 231 365 q 354 434 321 403 q 399 513 388 465 q 397 631 418 590 q 293 672 376 672 q 176 640 214 672 q 128 532 139 608 l 101 343 m 157 760 l 292 874 l 326 874 l 428 760 l 399 760 l 304 850 l 188 760 l 157 760 m 431 828 l 517 949 l 561 949 l 451 828 l 431 828 z "},"ệ":{"ha":467,"x_min":33,"x_max":457,"o":"m 186 -12 q 89 3 124 -12 q 44 58 54 19 q 43 168 33 97 l 94 535 q 156 664 108 631 q 292 697 204 697 q 424 654 392 697 q 435 510 457 611 q 378 412 421 449 q 282 355 336 375 q 177 326 228 335 q 97 313 126 317 l 76 167 q 85 49 64 82 q 188 15 107 15 q 301 49 269 15 q 343 167 332 82 l 353 240 l 386 240 l 376 168 q 347 58 367 97 q 288 3 326 19 q 186 -12 250 -12 m 101 343 q 184 356 138 347 q 276 384 231 365 q 354 434 321 403 q 399 513 388 465 q 397 631 418 590 q 293 672 376 672 q 176 640 214 672 q 128 532 139 608 l 101 343 m 171 -128 q 149 -119 158 -128 q 140 -97 140 -110 q 149 -76 140 -85 q 171 -68 158 -68 q 192 -76 183 -68 q 201 -97 201 -85 q 192 -119 201 -110 q 171 -128 183 -128 m 157 760 l 292 874 l 326 874 l 428 760 l 399 760 l 304 850 l 188 760 l 157 760 z "},"ề":{"ha":467,"x_min":33,"x_max":500,"o":"m 186 -12 q 89 3 124 -12 q 44 58 54 19 q 43 168 33 97 l 94 535 q 156 664 108 631 q 292 697 204 697 q 424 654 392 697 q 435 510 457 611 q 378 412 421 449 q 282 355 336 375 q 177 326 228 335 q 97 313 126 317 l 76 167 q 85 49 64 82 q 188 15 107 15 q 301 49 269 15 q 343 167 332 82 l 353 240 l 386 240 l 376 168 q 347 58 367 97 q 288 3 326 19 q 186 -12 250 -12 m 101 343 q 184 356 138 347 q 276 384 231 365 q 354 434 321 403 q 399 513 388 465 q 397 631 418 590 q 293 672 376 672 q 176 640 214 672 q 128 532 139 608 l 101 343 m 157 760 l 292 874 l 326 874 l 428 760 l 399 760 l 304 850 l 188 760 l 157 760 m 479 828 l 394 949 l 439 949 l 500 828 l 479 828 z "},"ể":{"ha":467,"x_min":33,"x_max":547,"o":"m 186 -12 q 89 3 124 -12 q 44 58 54 19 q 43 168 33 97 l 94 535 q 156 664 108 631 q 292 697 204 697 q 424 654 392 697 q 435 510 457 611 q 378 412 421 449 q 282 355 336 375 q 177 326 228 335 q 97 313 126 317 l 76 167 q 85 49 64 82 q 188 15 107 15 q 301 49 269 15 q 343 167 332 82 l 353 240 l 386 240 l 376 168 q 347 58 367 97 q 288 3 326 19 q 186 -12 250 -12 m 101 343 q 184 356 138 347 q 276 384 231 365 q 354 434 321 403 q 399 513 388 465 q 397 631 418 590 q 293 672 376 672 q 176 640 214 672 q 128 532 139 608 l 101 343 m 157 760 l 292 874 l 326 874 l 428 760 l 399 760 l 304 850 l 188 760 l 157 760 m 451 822 l 454 849 q 474 874 457 868 q 506 889 490 881 q 522 919 522 897 l 522 924 q 515 958 522 942 q 482 974 508 974 q 435 939 447 974 l 411 944 q 439 981 421 968 q 488 994 457 994 q 535 975 524 994 q 547 922 547 956 l 547 919 q 537 883 547 894 q 512 865 526 871 q 486 855 497 860 q 475 840 475 850 l 474 822 l 451 822 z "},"ễ":{"ha":467,"x_min":33,"x_max":457,"o":"m 186 -12 q 89 3 124 -12 q 44 58 54 19 q 43 168 33 97 l 94 535 q 156 664 108 631 q 292 697 204 697 q 424 654 392 697 q 435 510 457 611 q 378 412 421 449 q 282 355 336 375 q 177 326 228 335 q 97 313 126 317 l 76 167 q 85 49 64 82 q 188 15 107 15 q 301 49 269 15 q 343 167 332 82 l 353 240 l 386 240 l 376 168 q 347 58 367 97 q 288 3 326 19 q 186 -12 250 -12 m 101 343 q 184 356 138 347 q 276 384 231 365 q 354 434 321 403 q 399 513 388 465 q 397 631 418 590 q 293 672 376 672 q 176 640 214 672 q 128 532 139 608 l 101 343 m 157 760 l 292 874 l 326 874 l 428 760 l 399 760 l 304 850 l 188 760 l 157 760 m 361 906 q 335 910 344 906 q 308 929 325 915 q 286 946 299 936 q 257 956 274 956 q 227 944 240 956 q 206 907 214 933 l 181 907 q 210 960 189 939 q 261 981 231 981 q 292 972 278 981 q 319 953 306 964 q 342 938 332 943 q 365 932 351 932 q 395 942 382 932 q 417 978 408 951 l 442 978 q 413 926 433 947 q 361 906 392 906 z "},"ë":{"ha":467,"x_min":33,"x_max":457,"o":"m 186 -12 q 89 3 124 -12 q 44 58 54 19 q 43 168 33 97 l 94 535 q 156 664 108 631 q 292 697 204 697 q 424 654 392 697 q 435 510 457 611 q 378 412 421 449 q 282 355 336 375 q 177 326 228 335 q 97 313 126 317 l 76 167 q 85 49 64 82 q 188 15 107 15 q 301 49 269 15 q 343 167 332 82 l 353 240 l 386 240 l 376 168 q 347 58 367 97 q 288 3 326 19 q 186 -12 250 -12 m 101 343 q 184 356 138 347 q 276 384 231 365 q 354 434 321 403 q 399 513 388 465 q 397 631 418 590 q 293 672 376 672 q 176 640 214 672 q 128 532 139 608 l 101 343 m 242 779 q 220 788 229 779 q 211 810 211 797 q 220 831 211 822 q 242 839 229 839 q 263 831 254 839 q 272 810 272 822 q 263 788 272 797 q 242 779 254 779 m 353 779 q 331 788 340 779 q 322 810 322 797 q 331 831 322 822 q 353 839 340 839 q 374 831 365 839 q 383 810 383 822 q 374 788 383 797 q 353 779 365 779 z "},"ė":{"ha":467,"x_min":33,"x_max":457,"o":"m 186 -12 q 89 3 124 -12 q 44 58 54 19 q 43 168 33 97 l 94 535 q 156 664 108 631 q 292 697 204 697 q 424 654 392 697 q 435 510 457 611 q 378 412 421 449 q 282 355 336 375 q 177 326 228 335 q 97 313 126 317 l 76 167 q 85 49 64 82 q 188 15 107 15 q 301 49 269 15 q 343 167 332 82 l 353 240 l 386 240 l 376 168 q 347 58 367 97 q 288 3 326 19 q 186 -12 250 -12 m 101 343 q 184 356 138 347 q 276 384 231 365 q 354 434 321 403 q 399 513 388 465 q 397 631 418 590 q 293 672 376 672 q 176 640 214 672 q 128 532 139 608 l 101 343 m 299 779 q 277 788 286 779 q 268 810 268 797 q 277 831 268 822 q 299 839 286 839 q 320 831 311 839 q 329 810 329 822 q 320 788 329 797 q 299 779 311 779 z "},"ẹ":{"ha":467,"x_min":33,"x_max":457,"o":"m 186 -12 q 89 3 124 -12 q 44 58 54 19 q 43 168 33 97 l 94 535 q 156 664 108 631 q 292 697 204 697 q 424 654 392 697 q 435 510 457 611 q 378 412 421 449 q 282 355 336 375 q 177 326 228 335 q 97 313 126 317 l 76 167 q 85 49 64 82 q 188 15 107 15 q 301 49 269 15 q 343 167 332 82 l 353 240 l 386 240 l 376 168 q 347 58 367 97 q 288 3 326 19 q 186 -12 250 -12 m 101 343 q 184 356 138 347 q 276 384 231 365 q 354 434 321 403 q 399 513 388 465 q 397 631 418 590 q 293 672 376 672 q 176 640 214 672 q 128 532 139 608 l 101 343 m 171 -128 q 149 -119 158 -128 q 140 -97 140 -110 q 149 -76 140 -85 q 171 -68 158 -68 q 192 -76 183 -68 q 201 -97 201 -85 q 192 -119 201 -110 q 171 -128 183 -128 z "},"ф":{"ha":811,"x_min":33,"x_max":767,"o":"m 317 -161 l 350 67 q 291 11 329 32 q 188 -10 253 -10 q 61 42 89 -10 q 47 189 33 94 l 85 461 q 113 561 93 519 q 172 625 132 603 q 282 647 213 647 q 376 626 343 647 q 419 568 410 606 l 456 821 l 489 821 l 453 571 q 513 627 474 607 q 613 647 553 647 q 716 625 682 647 q 758 561 750 603 q 758 461 767 519 l 721 189 q 665 42 707 94 q 525 -10 624 -10 q 428 11 461 -10 q 383 68 394 32 l 350 -161 l 317 -161 m 194 15 q 294 42 260 15 q 345 109 329 69 q 365 185 361 149 l 403 449 q 406 526 408 486 q 376 594 403 567 q 281 622 349 622 q 183 598 217 622 q 137 536 150 574 q 118 456 124 499 l 81 190 q 78 103 74 143 q 108 40 82 64 q 194 15 135 15 m 525 15 q 617 40 585 15 q 665 103 650 64 q 688 190 681 143 l 725 456 q 728 536 731 499 q 699 598 725 574 q 608 622 672 622 q 510 597 546 622 q 460 536 475 572 q 439 464 444 500 l 400 188 q 399 110 394 150 q 433 43 404 71 q 525 15 461 15 z "},"è":{"ha":467,"x_min":33,"x_max":457,"o":"m 186 -12 q 89 3 124 -12 q 44 58 54 19 q 43 168 33 97 l 94 535 q 156 664 108 631 q 292 697 204 697 q 424 654 392 697 q 435 510 457 611 q 378 412 421 449 q 282 355 336 375 q 177 326 228 335 q 97 313 126 317 l 76 167 q 85 49 64 82 q 188 15 107 15 q 301 49 269 15 q 343 167 332 82 l 353 240 l 386 240 l 376 168 q 347 58 367 97 q 288 3 326 19 q 186 -12 250 -12 m 101 343 q 184 356 138 347 q 276 384 231 365 q 354 434 321 403 q 399 513 388 465 q 397 631 418 590 q 293 672 376 672 q 176 640 214 672 q 128 532 139 608 l 101 343 m 303 756 l 218 876 l 263 876 l 324 756 l 303 756 z "},"ẻ":{"ha":467,"x_min":33,"x_max":457,"o":"m 186 -12 q 89 3 124 -12 q 44 58 54 19 q 43 168 33 97 l 94 535 q 156 664 108 631 q 292 697 204 697 q 424 654 392 697 q 435 510 457 611 q 378 412 421 449 q 282 355 336 375 q 177 326 228 335 q 97 313 126 317 l 76 167 q 85 49 64 82 q 188 15 107 15 q 301 49 269 15 q 343 167 332 82 l 353 240 l 386 240 l 376 168 q 347 58 367 97 q 288 3 326 19 q 186 -12 250 -12 m 101 343 q 184 356 138 347 q 276 384 231 365 q 354 434 321 403 q 399 513 388 465 q 397 631 418 590 q 293 672 376 672 q 176 640 214 672 q 128 532 139 608 l 101 343 m 275 750 l 278 776 q 297 802 281 796 q 330 817 314 808 q 346 847 346 825 l 346 851 q 339 885 346 869 q 306 901 332 901 q 258 867 271 901 l 235 872 q 263 909 244 896 q 311 922 281 922 q 359 903 347 922 q 371 850 371 883 l 371 847 q 360 810 371 822 q 335 793 350 799 q 310 783 321 788 q 299 768 299 778 l 297 750 l 275 750 z "},"л":{"ha":519,"x_min":-21,"x_max":479,"o":"m -21 0 l -17 25 q 17 35 3 25 q 43 67 32 44 q 63 128 54 90 l 188 686 l 479 686 l 382 0 l 347 0 l 440 658 l 217 658 l 93 115 q 82 82 89 101 q 63 44 75 63 q 33 13 51 25 q -11 0 14 0 l -21 0 z "},"…":{"ha":542,"x_min":22,"x_max":429,"o":"m 51 -7 q 31 2 39 -7 q 24 24 22 11 q 37 45 26 36 q 60 54 47 54 q 81 45 72 54 q 88 24 90 36 q 75 2 86 11 q 51 -7 64 -7 m 225 -8 q 204 1 213 -8 q 197 22 196 10 q 210 44 200 35 q 233 53 221 53 q 255 44 246 53 q 261 22 264 35 q 249 1 260 10 q 225 -8 238 -8 m 390 -8 q 369 1 378 -8 q 363 22 361 10 q 376 44 365 35 q 399 53 386 53 q 420 44 411 53 q 426 22 429 35 q 414 1 425 10 q 390 -8 403 -8 z "},"м":{"ha":628,"x_min":19,"x_max":608,"o":"m 19 0 l 117 688 l 149 688 l 275 51 l 581 688 l 608 688 l 511 0 l 479 0 l 560 575 l 282 0 l 250 0 l 135 575 l 53 0 l 19 0 z "},"ē":{"ha":467,"x_min":33,"x_max":457,"o":"m 186 -12 q 89 3 124 -12 q 44 58 54 19 q 43 168 33 97 l 94 535 q 156 664 108 631 q 292 697 204 697 q 424 654 392 697 q 435 510 457 611 q 378 412 421 449 q 282 355 336 375 q 177 326 228 335 q 97 313 126 317 l 76 167 q 85 49 64 82 q 188 15 107 15 q 301 49 269 15 q 343 167 332 82 l 353 240 l 386 240 l 376 168 q 347 58 367 97 q 288 3 326 19 q 186 -12 250 -12 m 101 343 q 184 356 138 347 q 276 384 231 365 q 354 434 321 403 q 399 513 388 465 q 397 631 418 590 q 293 672 376 672 q 176 640 214 672 q 128 532 139 608 l 101 343 m 178 792 l 181 815 l 418 815 l 415 792 l 178 792 z "},"—":{"ha":776,"x_min":26,"x_max":750,"o":"m 26 338 l 29 367 l 750 367 l 747 338 l 26 338 z "},"∅":{"ha":565,"x_min":10,"x_max":632,"o":"m 10 92 l 532 779 l 564 779 l 40 92 l 10 92 m 225 -17 q 134 9 172 -17 q 83 88 96 35 q 93 222 71 142 l 199 593 q 308 774 232 715 q 467 832 385 832 q 590 773 549 832 q 599 593 632 714 l 493 222 q 429 87 471 140 q 334 8 388 33 q 225 -17 281 -17 m 233 8 q 369 65 306 8 q 460 222 432 121 l 564 592 q 561 751 593 694 q 458 807 529 807 q 324 751 388 807 q 231 592 260 694 l 128 222 q 131 65 99 121 q 233 8 164 8 z "},"н":{"ha":489,"x_min":19,"x_max":469,"o":"m 19 0 l 117 688 l 150 688 l 106 378 l 392 378 l 436 688 l 469 688 l 372 0 l 339 0 l 389 350 l 103 350 l 53 0 l 19 0 z "},"–":{"ha":443,"x_min":26,"x_max":417,"o":"m 26 338 l 29 367 l 417 367 l 413 338 l 26 338 z "},"ŋ":{"ha":503,"x_min":40,"x_max":456,"o":"m 199 -153 q 183 -152 192 -153 q 171 -150 174 -151 l 174 -128 q 180 -128 175 -128 q 192 -130 185 -129 q 204 -131 199 -131 q 296 -112 261 -131 q 340 -31 331 -94 l 415 504 q 422 565 419 535 q 417 619 425 594 q 384 658 410 643 q 306 672 358 672 q 226 654 256 672 q 179 612 196 636 q 154 567 163 588 l 74 0 l 40 0 l 138 688 l 163 688 l 160 619 q 226 682 183 665 q 311 699 268 699 q 401 683 369 699 q 444 640 432 667 q 456 581 456 614 q 451 517 456 549 l 374 -32 q 342 -111 367 -85 q 281 -145 318 -137 q 199 -153 244 -153 z "},"ę":{"ha":467,"x_min":33,"x_max":457,"o":"m 186 -12 q 89 3 124 -12 q 44 58 54 19 q 43 168 33 97 l 94 535 q 156 664 108 631 q 292 697 204 697 q 424 654 392 697 q 435 510 457 611 q 378 412 421 449 q 282 355 336 375 q 177 326 228 335 q 97 313 126 317 l 76 167 q 85 49 64 82 q 188 15 107 15 q 301 49 269 15 q 343 167 332 82 l 353 240 l 386 240 l 376 168 q 347 58 367 97 q 288 3 326 19 q 186 -12 250 -12 m 101 343 q 184 356 138 347 q 276 384 231 365 q 354 434 321 403 q 399 513 388 465 q 397 631 418 590 q 293 672 376 672 q 176 640 214 672 q 128 532 139 608 l 101 343 m 200 -179 q 146 -159 168 -179 q 128 -104 124 -139 q 164 -38 135 -64 q 219 0 193 -12 l 249 0 q 186 -46 210 -19 q 158 -100 163 -72 q 170 -142 154 -128 q 204 -156 186 -156 q 229 -152 218 -156 q 246 -146 240 -149 l 251 -165 q 228 -175 242 -171 q 200 -179 215 -179 z "},"=":{"ha":553,"x_min":46,"x_max":507,"o":"m 89 543 l 93 574 l 507 574 l 503 543 l 89 543 m 46 240 l 50 272 l 464 272 l 460 240 l 46 240 z "},"р":{"ha":494,"x_min":19,"x_max":457,"o":"m 19 -161 l 138 688 l 163 688 l 158 622 q 209 676 176 654 q 310 697 242 697 q 419 670 388 697 q 453 602 450 643 q 450 517 457 561 l 401 174 q 381 87 396 129 q 328 17 367 44 q 211 -10 289 -10 q 124 6 156 -10 q 81 47 92 22 l 51 -161 l 19 -161 m 213 18 q 313 43 282 18 q 355 106 344 68 q 371 183 365 144 l 415 504 q 422 563 419 533 q 416 617 424 593 q 383 656 408 642 q 304 671 357 671 q 221 651 251 671 q 174 601 190 632 q 151 535 158 571 q 140 465 144 499 l 99 171 q 95 95 93 131 q 123 39 97 60 q 213 18 149 18 z "},"э":{"ha":490,"x_min":39,"x_max":451,"o":"m 199 -10 q 101 5 136 -10 q 53 46 67 19 q 40 106 40 72 q 44 179 39 140 l 53 239 l 86 239 l 79 186 q 76 101 74 140 q 105 39 78 63 q 201 15 132 15 q 305 40 272 15 q 349 104 338 65 q 367 183 361 143 l 388 336 l 168 336 l 171 361 l 390 361 l 411 504 q 417 563 415 533 q 410 618 419 593 q 374 658 401 643 q 294 674 347 674 q 191 650 225 674 q 144 588 157 626 q 124 501 131 549 l 117 450 l 83 450 l 92 510 q 115 603 99 561 q 173 672 131 646 q 299 699 215 699 q 394 682 361 699 q 439 638 426 665 q 451 578 451 611 q 446 513 450 546 l 399 176 q 378 89 393 132 q 322 18 363 46 q 199 -10 282 -10 z "},"с":{"ha":464,"x_min":36,"x_max":442,"o":"m 186 -12 q 108 -4 139 -12 q 60 24 76 4 q 40 80 43 44 q 43 168 36 115 l 94 535 q 150 666 108 631 q 286 701 192 701 q 410 666 379 701 q 428 535 442 631 l 417 454 l 383 454 l 394 533 q 385 642 406 608 q 282 676 364 676 q 170 642 201 676 q 128 533 139 608 l 76 165 q 86 49 65 82 q 188 15 107 15 q 300 49 269 15 q 343 165 331 82 l 354 240 l 388 240 l 378 168 q 347 58 368 97 q 288 3 326 19 q 186 -12 249 -12 z "},"ð":{"ha":481,"x_min":33,"x_max":496,"o":"m 179 -11 q 128 -8 156 -11 q 78 10 101 -4 q 44 58 56 25 q 42 151 33 92 l 93 518 q 132 633 106 597 q 196 678 158 669 q 275 688 233 688 q 356 675 315 688 q 407 626 396 663 q 417 773 417 714 q 391 863 417 832 q 293 893 365 893 q 219 886 254 893 q 164 874 185 879 l 168 899 q 223 912 189 903 q 299 921 257 921 q 422 881 389 921 q 453 764 456 842 q 435 569 451 686 l 383 214 q 368 139 379 178 q 335 66 357 100 q 275 10 313 32 q 179 -11 238 -11 m 182 14 q 277 45 243 14 q 328 122 311 76 q 351 211 344 168 l 401 572 q 393 601 403 579 q 356 644 383 624 q 272 664 328 664 q 186 644 215 664 q 145 590 157 624 q 126 511 133 556 l 75 146 q 78 72 68 99 q 108 33 89 44 q 147 17 126 21 q 182 14 168 14 m 258 758 l 244 779 l 482 961 l 496 939 l 258 758 z "},"ẽ":{"ha":467,"x_min":33,"x_max":457,"o":"m 186 -12 q 89 3 124 -12 q 44 58 54 19 q 43 168 33 97 l 94 535 q 156 664 108 631 q 292 697 204 697 q 424 654 392 697 q 435 510 457 611 q 378 412 421 449 q 282 355 336 375 q 177 326 228 335 q 97 313 126 317 l 76 167 q 85 49 64 82 q 188 15 107 15 q 301 49 269 15 q 343 167 332 82 l 353 240 l 386 240 l 376 168 q 347 58 367 97 q 288 3 326 19 q 186 -12 250 -12 m 101 343 q 184 356 138 347 q 276 384 231 365 q 354 434 321 403 q 399 513 388 465 q 397 631 418 590 q 293 672 376 672 q 176 640 214 672 q 128 532 139 608 l 101 343 m 349 772 q 322 777 332 772 q 296 796 313 782 q 274 813 286 803 q 244 822 261 822 q 215 811 228 822 q 193 774 201 800 l 168 774 q 197 826 176 806 q 249 847 218 847 q 279 839 265 847 q 307 819 293 831 q 329 804 319 810 q 353 799 339 799 q 383 808 369 799 q 404 844 396 818 l 429 844 q 400 793 421 814 q 349 772 379 772 z "},"€":{"ha":619,"x_min":57,"x_max":597,"o":"m 299 -17 q 204 -4 246 -17 q 143 47 163 8 q 135 167 124 86 l 157 332 l 57 332 l 71 356 l 161 356 l 175 458 l 75 458 l 89 482 l 179 482 l 203 651 q 245 770 214 732 q 322 820 276 808 q 419 832 367 832 q 515 819 474 832 q 577 769 557 807 q 586 651 597 731 l 581 614 l 546 614 l 551 649 q 545 753 561 719 q 495 798 529 788 q 415 808 461 808 q 332 798 369 808 q 269 753 294 788 q 233 649 244 719 l 211 482 l 432 482 l 417 458 l 208 458 l 194 356 l 360 356 l 346 332 l 189 332 l 167 168 q 172 63 157 97 q 222 19 188 29 q 303 8 257 8 q 387 19 350 8 q 449 63 424 29 q 483 168 474 97 l 494 238 l 528 238 l 517 167 q 475 46 506 85 q 399 -5 444 7 q 299 -17 354 -17 z "},"!":{"ha":203,"x_min":10,"x_max":179,"o":"m 67 271 l 92 497 l 144 875 l 179 875 l 125 499 l 85 271 l 67 271 m 39 -7 q 17 2 25 -7 q 11 25 10 11 q 24 45 14 36 q 47 54 33 54 q 69 45 60 54 q 76 25 79 36 q 63 2 75 11 q 39 -7 51 -7 z "},"¡":{"ha":203,"x_min":24,"x_max":193,"o":"m 113 414 l 131 414 l 108 186 l 58 -190 l 24 -190 l 75 188 l 113 414 m 161 692 q 183 683 174 692 q 190 660 193 674 q 177 640 189 649 q 153 631 165 631 q 131 640 139 631 q 125 660 124 649 q 138 683 128 674 q 161 692 149 692 z "},"f":{"ha":294,"x_min":40,"x_max":369,"o":"m 40 0 l 131 635 l 88 635 l 90 661 l 133 661 l 147 758 q 168 826 153 799 q 209 869 183 854 q 271 883 235 883 q 308 883 289 883 q 343 881 326 882 q 369 878 360 879 l 367 850 q 335 853 367 850 q 267 857 303 857 q 205 824 225 857 q 179 754 185 790 l 165 661 l 339 661 l 336 635 l 163 635 l 72 0 l 40 0 z "},"ﬁ":{"ha":496,"x_min":40,"x_max":492,"o":"m 40 0 l 131 635 l 88 635 l 90 661 l 133 661 l 147 758 q 168 826 153 799 q 209 869 183 854 q 271 883 235 883 q 308 883 289 883 q 343 881 326 882 q 369 878 360 879 l 367 850 q 335 853 367 850 q 267 857 303 857 q 205 824 225 857 q 179 754 185 790 l 165 661 l 339 661 l 336 635 l 163 635 l 72 0 l 40 0 m 326 0 l 424 688 l 456 688 l 358 0 l 326 0 m 461 779 q 440 788 449 779 q 431 810 431 797 q 440 831 431 822 q 461 839 449 839 q 483 831 474 839 q 492 810 492 822 q 483 788 492 797 q 461 779 474 779 z "},"ﬂ":{"ha":504,"x_min":40,"x_max":492,"o":"m 40 0 l 131 635 l 88 635 l 90 661 l 133 661 l 147 758 q 168 826 153 799 q 209 869 183 854 q 271 883 235 883 q 308 883 289 883 q 343 881 326 882 q 369 878 360 879 l 367 850 q 335 853 367 850 q 267 857 303 857 q 205 824 225 857 q 179 754 185 790 l 165 661 l 339 661 l 336 635 l 163 635 l 72 0 l 40 0 m 335 0 l 460 883 l 492 883 l 367 0 l 335 0 z "},"ƒ":{"ha":392,"x_min":-215,"x_max":447,"o":"m -122 -206 q -160 -204 -140 -206 q -194 -201 -179 -203 q -215 -200 -210 -200 l -210 -174 l -119 -179 q -64 -163 -86 -179 q -28 -123 -42 -147 q -8 -75 -15 -99 l 163 571 l 99 571 l 104 594 l 168 594 l 210 747 q 258 840 226 807 q 349 874 290 874 q 376 874 363 874 q 403 873 390 874 q 428 871 417 872 q 447 868 439 869 l 440 844 q 405 848 431 847 q 349 849 379 849 q 276 815 300 849 q 242 746 253 782 l 199 594 l 354 594 l 350 571 l 194 571 l 24 -78 q -26 -172 8 -137 q -122 -206 -61 -206 z "},"⁴":{"ha":317,"x_min":18,"x_max":301,"o":"m 199 328 l 213 429 l 18 429 l 22 454 l 275 821 l 300 821 l 249 453 l 301 453 l 297 429 l 244 429 l 231 328 l 199 328 m 53 453 l 217 453 l 257 744 l 53 453 z "},"⁄":{"ha":417,"x_min":-146,"x_max":449,"o":"m -146 0 l 413 813 l 449 813 l -112 0 l -146 0 z "},"₣":{"ha":528,"x_min":43,"x_max":531,"o":"m 78 0 l 110 226 l 43 226 l 46 250 l 114 250 l 194 821 l 531 821 l 526 794 l 224 794 l 174 446 l 407 446 l 404 419 l 171 419 l 147 250 l 290 250 l 288 226 l 144 226 l 111 0 l 78 0 z "},"g":{"ha":478,"x_min":39,"x_max":450,"o":"m 143 -161 q 115 -160 131 -161 q 84 -157 99 -158 q 59 -154 69 -156 q 44 -151 49 -153 l 47 -126 q 90 -132 63 -128 q 142 -136 117 -136 q 185 -134 158 -136 q 242 -117 213 -132 q 294 -68 271 -103 q 326 32 318 -33 l 339 124 q 301 69 325 90 q 248 38 278 47 q 182 28 218 28 q 133 31 160 28 q 84 49 107 35 q 50 97 61 64 q 47 190 39 131 l 94 529 q 129 638 106 603 q 190 685 153 674 q 274 697 226 697 q 332 691 303 697 q 383 670 361 685 q 410 628 406 656 l 424 683 l 450 683 l 358 26 q 328 -67 350 -31 q 276 -124 307 -104 q 211 -153 246 -144 q 143 -161 176 -161 m 188 54 q 283 85 249 54 q 333 161 317 115 q 356 251 350 207 l 403 583 q 387 622 399 601 q 349 658 375 643 q 274 674 322 674 q 172 642 206 674 q 128 528 139 611 l 81 186 q 84 112 74 139 q 114 73 94 85 q 153 58 133 61 q 188 54 174 54 z "},"ğ":{"ha":478,"x_min":39,"x_max":450,"o":"m 143 -161 q 115 -160 131 -161 q 84 -157 99 -158 q 59 -154 69 -156 q 44 -151 49 -153 l 47 -126 q 90 -132 63 -128 q 142 -136 117 -136 q 185 -134 158 -136 q 242 -117 213 -132 q 294 -68 271 -103 q 326 32 318 -33 l 339 124 q 301 69 325 90 q 248 38 278 47 q 182 28 218 28 q 133 31 160 28 q 84 49 107 35 q 50 97 61 64 q 47 190 39 131 l 94 529 q 129 638 106 603 q 190 685 153 674 q 274 697 226 697 q 332 691 303 697 q 383 670 361 685 q 410 628 406 656 l 424 683 l 450 683 l 358 26 q 328 -67 350 -31 q 276 -124 307 -104 q 211 -153 246 -144 q 143 -161 176 -161 m 188 54 q 283 85 249 54 q 333 161 317 115 q 356 251 350 207 l 403 583 q 387 622 399 601 q 349 658 375 643 q 274 674 322 674 q 172 642 206 674 q 128 528 139 611 l 81 186 q 84 112 74 139 q 114 73 94 85 q 153 58 133 61 q 188 54 174 54 m 294 754 q 240 765 261 754 q 207 794 218 776 q 192 831 196 811 q 189 867 188 850 l 215 867 q 239 800 217 822 q 299 778 261 778 q 368 799 339 778 q 408 867 397 821 l 435 867 q 413 818 429 844 q 367 773 396 792 q 294 754 339 754 z "},"ģ":{"ha":478,"x_min":39,"x_max":450,"o":"m 356 903 q 322 851 333 872 q 311 819 311 829 q 315 809 311 814 q 323 799 319 804 q 326 783 326 793 q 319 767 326 775 q 300 758 311 758 q 282 766 289 758 q 275 783 275 774 q 285 818 275 797 q 309 862 294 839 q 338 903 324 885 l 356 903 m 143 -161 q 115 -160 131 -161 q 84 -157 99 -158 q 59 -154 69 -156 q 44 -151 49 -153 l 47 -126 q 90 -132 63 -128 q 142 -136 117 -136 q 185 -134 158 -136 q 242 -117 213 -132 q 294 -68 271 -103 q 326 32 318 -33 l 339 124 q 301 69 325 90 q 248 38 278 47 q 182 28 218 28 q 133 31 160 28 q 84 49 107 35 q 50 97 61 64 q 47 190 39 131 l 94 529 q 129 638 106 603 q 190 685 153 674 q 274 697 226 697 q 332 691 303 697 q 383 670 361 685 q 410 628 406 656 l 424 683 l 450 683 l 358 26 q 328 -67 350 -31 q 276 -124 307 -104 q 211 -153 246 -144 q 143 -161 176 -161 m 188 54 q 283 85 249 54 q 333 161 317 115 q 356 251 350 207 l 403 583 q 387 622 399 601 q 349 658 375 643 q 274 674 322 674 q 172 642 206 674 q 128 528 139 611 l 81 186 q 84 112 74 139 q 114 73 94 85 q 153 58 133 61 q 188 54 174 54 z "},"ġ":{"ha":478,"x_min":39,"x_max":450,"o":"m 143 -161 q 115 -160 131 -161 q 84 -157 99 -158 q 59 -154 69 -156 q 44 -151 49 -153 l 47 -126 q 90 -132 63 -128 q 142 -136 117 -136 q 185 -134 158 -136 q 242 -117 213 -132 q 294 -68 271 -103 q 326 32 318 -33 l 339 124 q 301 69 325 90 q 248 38 278 47 q 182 28 218 28 q 133 31 160 28 q 84 49 107 35 q 50 97 61 64 q 47 190 39 131 l 94 529 q 129 638 106 603 q 190 685 153 674 q 274 697 226 697 q 332 691 303 697 q 383 670 361 685 q 410 628 406 656 l 424 683 l 450 683 l 358 26 q 328 -67 350 -31 q 276 -124 307 -104 q 211 -153 246 -144 q 143 -161 176 -161 m 188 54 q 283 85 249 54 q 333 161 317 115 q 356 251 350 207 l 403 583 q 387 622 399 601 q 349 658 375 643 q 274 674 322 674 q 172 642 206 674 q 128 528 139 611 l 81 186 q 84 112 74 139 q 114 73 94 85 q 153 58 133 61 q 188 54 174 54 m 303 779 q 281 788 290 779 q 272 810 272 797 q 281 831 272 822 q 303 839 290 839 q 324 831 315 839 q 333 810 333 822 q 324 788 333 797 q 303 779 315 779 z "},"г":{"ha":392,"x_min":40,"x_max":436,"o":"m 40 0 l 138 688 l 436 688 l 431 660 l 167 660 l 75 0 l 40 0 z "},"ß":{"ha":482,"x_min":-124,"x_max":499,"o":"m -56 -204 q -92 -202 -71 -204 q -124 -199 -112 -200 q -123 -193 -124 -196 q -122 -187 -122 -190 q -122 -181 -122 -183 q -121 -175 -121 -178 l -101 -178 q -85 -180 -94 -179 q -61 -181 -75 -181 q 11 -151 -10 -181 q 38 -82 32 -122 l 142 658 l 99 658 l 103 688 l 147 688 l 151 725 q 177 811 160 778 q 233 860 194 844 q 340 876 271 876 q 460 847 422 876 q 488 740 499 817 l 469 608 q 434 514 461 550 q 379 475 407 478 l 378 469 q 417 451 399 467 q 444 408 435 436 q 447 339 454 381 l 424 168 q 389 60 414 96 q 326 12 364 24 q 240 0 289 0 l 131 0 l 135 26 l 243 26 q 313 38 282 26 q 364 81 343 49 q 393 176 385 113 l 415 332 q 406 410 422 382 q 357 448 389 438 q 286 458 325 458 l 224 458 l 226 485 l 304 485 q 401 521 374 485 q 439 618 429 557 l 456 738 q 433 823 463 794 q 336 851 404 851 q 245 833 276 851 q 202 787 214 814 q 186 733 190 760 l 72 -76 q 58 -131 68 -107 q 33 -171 49 -154 q -4 -196 18 -187 q -56 -204 -26 -204 z "},"ѓ":{"ha":392,"x_min":40,"x_max":436,"o":"m 40 0 l 138 688 l 436 688 l 431 660 l 167 660 l 75 0 l 40 0 m 267 756 l 353 876 l 397 876 l 288 756 l 267 756 z "},"`":{"ha":122,"x_min":75,"x_max":181,"o":"m 160 756 l 75 876 l 119 876 l 181 756 l 160 756 z "},"̀":{"ha":0,"x_min":75,"x_max":181,"o":"m 160 756 l 75 876 l 119 876 l 181 756 l 160 756 z "},">":{"ha":492,"x_min":49,"x_max":413,"o":"m 49 214 l 54 258 l 372 453 l 110 650 l 115 693 l 413 472 l 406 435 l 49 214 z "},"≥":{"ha":492,"x_min":32,"x_max":456,"o":"m 57 214 l 68 258 l 413 453 l 178 650 l 189 693 l 456 472 l 444 435 l 57 214 m 32 -1 l 40 28 l 356 28 l 349 -1 l 32 -1 z "},"«":{"ha":607,"x_min":67,"x_max":574,"o":"m 447 157 l 315 394 l 532 654 l 574 654 l 358 394 l 489 157 l 447 157 m 199 157 l 67 394 l 285 654 l 325 654 l 111 394 l 240 157 l 199 157 z "},"»":{"ha":607,"x_min":49,"x_max":538,"o":"m 297 157 l 493 394 l 351 654 l 392 654 l 538 394 l 339 157 l 297 157 m 49 157 l 246 394 l 104 654 l 144 654 l 289 394 l 90 157 l 49 157 z "},"‹":{"ha":357,"x_min":67,"x_max":324,"o":"m 199 157 l 67 394 l 283 654 l 324 654 l 111 394 l 240 157 l 199 157 z "},"›":{"ha":357,"x_min":47,"x_max":288,"o":"m 47 157 l 244 394 l 104 654 l 144 654 l 288 394 l 89 157 l 47 157 z "},"h":{"ha":503,"x_min":42,"x_max":457,"o":"m 42 0 l 164 875 l 197 875 l 164 642 q 222 683 186 668 q 311 699 257 699 q 401 683 369 699 q 444 640 432 667 q 456 582 457 614 q 451 517 456 550 l 379 0 l 346 0 l 417 504 q 423 558 421 529 q 417 613 425 588 q 383 656 408 639 q 306 672 358 672 q 225 656 257 672 q 177 619 193 640 q 157 583 161 599 l 75 0 l 42 0 z "},"х":{"ha":397,"x_min":-31,"x_max":418,"o":"m -31 0 q 10 110 -18 53 q 74 222 39 168 q 140 314 108 275 q 190 367 172 353 q 149 420 169 383 q 113 505 128 457 q 90 601 97 553 q 86 688 82 650 l 119 688 q 128 574 117 635 q 163 465 140 514 q 210 396 185 417 q 253 439 226 404 q 308 520 281 474 q 358 612 336 567 q 385 688 379 657 l 418 688 q 382 592 407 643 q 327 492 357 540 q 269 410 297 444 q 226 367 242 376 q 263 321 243 357 q 302 232 283 285 q 333 119 321 179 q 343 0 344 58 l 310 0 q 301 100 311 47 q 275 201 292 153 q 240 285 258 250 q 207 333 222 321 q 152 276 190 321 q 72 160 114 231 q 3 0 31 90 l -31 0 z "},"ъ":{"ha":518,"x_min":49,"x_max":457,"o":"m 54 0 l 147 661 l 49 661 l 54 688 l 186 688 l 156 471 l 304 471 q 406 449 372 471 q 449 388 440 428 q 449 289 457 347 l 436 196 q 416 110 429 147 q 380 49 403 74 q 323 13 357 25 q 239 0 289 0 l 54 0 m 92 25 l 240 25 q 333 48 300 25 q 381 110 365 71 q 403 196 396 149 l 414 279 q 418 359 421 321 q 390 422 415 397 q 299 446 364 446 l 153 446 l 92 25 z "},"ħ":{"ha":481,"x_min":42,"x_max":457,"o":"m 50 776 l 53 801 l 265 801 l 263 776 l 50 776 m 42 0 l 164 875 l 197 875 l 164 642 q 222 683 186 668 q 311 699 257 699 q 401 683 369 699 q 444 640 432 667 q 456 582 457 614 q 451 517 456 550 l 379 0 l 346 0 l 417 504 q 423 558 421 529 q 417 613 425 588 q 383 656 408 639 q 306 672 358 672 q 225 656 257 672 q 177 619 193 640 q 157 583 161 599 l 75 0 l 42 0 z "},"̉":{"ha":0,"x_min":78,"x_max":214,"o":"m 118 750 l 121 776 q 140 802 124 796 q 173 817 157 808 q 189 847 189 825 l 189 851 q 182 885 189 869 q 149 901 175 901 q 101 867 114 901 l 78 872 q 106 909 88 896 q 154 922 124 922 q 202 903 190 922 q 214 850 214 883 l 214 847 q 203 810 214 822 q 178 793 193 799 q 153 783 164 788 q 142 768 142 778 l 140 750 l 118 750 z "},"̛":{"ha":0,"x_min":47,"x_max":171,"o":"m 50 653 l 47 676 l 60 676 q 139 738 131 676 l 142 758 l 171 758 l 169 744 q 131 676 164 701 q 50 653 99 651 z "},"˝":{"ha":164,"x_min":58,"x_max":239,"o":"m 58 756 l 122 876 l 164 876 l 79 756 l 58 756 m 133 756 l 197 876 l 239 876 l 154 756 l 133 756 z "},"̋":{"ha":0,"x_min":58,"x_max":239,"o":"m 58 756 l 122 876 l 164 876 l 79 756 l 58 756 m 133 756 l 197 876 l 239 876 l 154 756 l 133 756 z "},"-":{"ha":414,"x_min":67,"x_max":347,"o":"m 67 338 l 71 367 l 347 367 l 344 338 l 67 338 z "},"i":{"ha":210,"x_min":40,"x_max":206,"o":"m 40 0 l 138 688 l 169 688 l 72 0 l 40 0 m 175 779 q 153 788 163 779 q 144 810 144 797 q 153 831 144 822 q 175 839 163 839 q 197 831 188 839 q 206 810 206 822 q 197 788 206 797 q 175 779 188 779 z "},"і":{"ha":210,"x_min":40,"x_max":206,"o":"m 40 0 l 138 688 l 169 688 l 72 0 l 40 0 m 175 779 q 153 788 163 779 q 144 810 144 797 q 153 831 144 822 q 175 839 163 839 q 197 831 188 839 q 206 810 206 822 q 197 788 206 797 q 175 779 188 779 z "},"я":{"ha":515,"x_min":19,"x_max":494,"o":"m 19 0 l 146 249 q 188 311 164 285 q 240 340 211 338 q 139 383 171 343 q 117 501 107 424 l 124 549 q 183 657 135 626 q 294 688 232 688 l 494 688 l 397 0 l 363 0 l 410 336 l 290 335 q 223 301 251 333 q 167 215 194 268 l 60 0 l 19 0 m 282 361 l 414 361 l 456 661 l 283 661 q 203 635 240 661 q 157 551 165 608 l 150 499 q 176 394 140 426 q 282 361 211 361 z "},"í":{"ha":210,"x_min":40,"x_max":261,"o":"m 40 0 l 138 688 l 169 688 l 72 0 l 40 0 m 131 756 l 217 876 l 261 876 l 151 756 l 131 756 z "},"ǐ":{"ha":210,"x_min":40,"x_max":328,"o":"m 40 0 l 138 688 l 169 688 l 72 0 l 40 0 m 158 760 l 57 874 l 88 874 l 179 783 l 299 874 l 328 874 l 193 760 l 158 760 z "},"î":{"ha":210,"x_min":33,"x_max":304,"o":"m 40 0 l 138 688 l 169 688 l 72 0 l 40 0 m 33 760 l 168 874 l 203 874 l 304 760 l 275 760 l 181 850 l 64 760 l 33 760 z "},"ï":{"ha":210,"x_min":40,"x_max":260,"o":"m 40 0 l 138 688 l 169 688 l 72 0 l 40 0 m 118 779 q 97 788 106 779 q 88 810 88 797 q 97 831 88 822 q 118 839 106 839 q 140 831 131 839 q 149 810 149 822 q 140 788 149 797 q 118 779 131 779 m 229 779 q 208 788 217 779 q 199 810 199 797 q 208 831 199 822 q 229 839 217 839 q 251 831 242 839 q 260 810 260 822 q 251 788 260 797 q 229 779 242 779 z "},"ị":{"ha":210,"x_min":17,"x_max":206,"o":"m 40 0 l 138 688 l 169 688 l 72 0 l 40 0 m 175 779 q 153 788 163 779 q 144 810 144 797 q 153 831 144 822 q 175 839 163 839 q 197 831 188 839 q 206 810 206 822 q 197 788 206 797 q 175 779 188 779 m 47 -128 q 26 -119 35 -128 q 17 -97 17 -110 q 26 -76 17 -85 q 47 -68 35 -68 q 69 -76 60 -68 q 78 -97 78 -85 q 69 -119 78 -110 q 47 -128 60 -128 z "},"ı":{"ha":210,"x_min":40,"x_max":169,"o":"m 40 0 l 138 688 l 169 688 l 72 0 l 40 0 z "},"е":{"ha":467,"x_min":33,"x_max":457,"o":"m 186 -12 q 89 3 124 -12 q 44 58 54 19 q 43 168 33 97 l 94 535 q 156 664 108 631 q 292 697 204 697 q 424 654 392 697 q 435 510 457 611 q 378 412 421 449 q 282 355 336 375 q 177 326 228 335 q 97 313 126 317 l 76 167 q 85 49 64 82 q 188 15 107 15 q 301 49 269 15 q 343 167 332 82 l 353 240 l 386 240 l 376 168 q 347 58 367 97 q 288 3 326 19 q 186 -12 250 -12 m 101 343 q 184 356 138 347 q 276 384 231 365 q 354 434 321 403 q 399 513 388 465 q 397 631 418 590 q 293 672 376 672 q 176 640 214 672 q 128 532 139 608 l 101 343 z "},"ѐ":{"ha":467,"x_min":33,"x_max":457,"o":"m 186 -12 q 89 3 124 -12 q 44 58 54 19 q 43 168 33 97 l 94 535 q 156 664 108 631 q 292 697 204 697 q 424 654 392 697 q 435 510 457 611 q 378 412 421 449 q 282 355 336 375 q 177 326 228 335 q 97 313 126 317 l 76 167 q 85 49 64 82 q 188 15 107 15 q 301 49 269 15 q 343 167 332 82 l 353 240 l 386 240 l 376 168 q 347 58 367 97 q 288 3 326 19 q 186 -12 250 -12 m 101 343 q 184 356 138 347 q 276 384 231 365 q 354 434 321 403 q 399 513 388 465 q 397 631 418 590 q 293 672 376 672 q 176 640 214 672 q 128 532 139 608 l 101 343 m 303 756 l 218 876 l 263 876 l 324 756 l 303 756 z "},"ì":{"ha":210,"x_min":40,"x_max":200,"o":"m 40 0 l 138 688 l 169 688 l 72 0 l 40 0 m 179 756 l 94 876 l 139 876 l 200 756 l 179 756 z "},"ỉ":{"ha":210,"x_min":40,"x_max":247,"o":"m 40 0 l 138 688 l 169 688 l 72 0 l 40 0 m 151 750 l 154 776 q 174 802 157 796 q 206 817 190 808 q 222 847 222 825 l 222 851 q 215 885 222 869 q 182 901 208 901 q 135 867 147 901 l 111 872 q 139 909 121 896 q 188 922 157 922 q 235 903 224 922 q 247 850 247 883 l 247 847 q 237 810 247 822 q 212 793 226 799 q 186 783 197 788 q 175 768 175 778 l 174 750 l 151 750 z "},"и":{"ha":528,"x_min":40,"x_max":488,"o":"m 40 0 l 138 686 l 171 686 l 83 65 l 453 686 l 488 686 l 390 0 l 358 0 l 446 625 q 261 313 353 468 q 74 0 169 157 l 40 0 z "},"ѝ":{"ha":528,"x_min":40,"x_max":488,"o":"m 40 0 l 138 686 l 171 686 l 83 65 l 453 686 l 488 686 l 390 0 l 358 0 l 446 625 q 261 313 353 468 q 74 0 169 157 l 40 0 m 333 756 l 249 876 l 293 876 l 354 756 l 333 756 z "},"й":{"ha":528,"x_min":40,"x_max":488,"o":"m 40 0 l 138 686 l 171 686 l 83 65 l 453 686 l 488 686 l 390 0 l 358 0 l 446 625 q 261 313 353 468 q 74 0 169 157 l 40 0 m 321 754 q 266 765 288 754 q 233 794 244 776 q 218 831 222 811 q 215 867 214 850 l 242 867 q 265 800 243 822 q 325 778 288 778 q 394 799 365 778 q 435 867 424 821 l 461 867 q 439 818 456 844 q 394 773 422 792 q 321 754 365 754 z "},"ī":{"ha":210,"x_min":40,"x_max":294,"o":"m 40 0 l 138 688 l 169 688 l 72 0 l 40 0 m 54 792 l 57 815 l 294 815 l 292 792 l 54 792 z "},"∞":{"ha":1000,"x_min":53,"x_max":944,"o":"m 204 142 q 90 189 128 142 q 67 333 53 236 q 125 472 79 418 q 258 526 171 526 q 338 512 304 526 q 408 460 371 497 q 504 356 446 422 q 631 462 583 425 q 715 513 678 499 q 796 526 751 526 q 913 472 882 526 q 933 333 944 418 q 875 196 921 250 q 743 142 829 142 q 665 157 699 142 q 592 210 631 172 q 497 314 554 247 q 371 208 419 246 q 285 156 322 171 q 204 142 249 142 m 207 172 q 326 213 267 172 q 474 336 386 253 q 410 406 442 369 q 341 469 378 443 q 254 494 304 494 q 148 447 186 494 q 100 332 110 400 q 115 220 90 268 q 207 172 139 172 m 746 172 q 850 217 810 172 q 900 335 890 261 q 885 448 910 400 q 793 496 860 496 q 742 490 764 496 q 693 467 719 483 q 628 418 667 450 q 526 333 589 386 q 611 240 578 275 q 675 188 644 204 q 746 172 706 172 z "},"∫":{"ha":528,"x_min":-203,"x_max":575,"o":"m -107 -400 q -154 -397 -129 -399 q -203 -394 -179 -396 l -194 -368 l -106 -372 q -28 -339 -57 -372 q 11 -271 1 -306 l 333 753 q 365 821 346 793 q 412 863 383 849 q 479 876 440 876 q 528 874 503 875 q 575 871 553 872 l 568 844 l 479 849 q 401 815 428 849 q 364 746 375 782 l 40 -278 q 8 -344 28 -317 q -39 -386 -11 -372 q -107 -400 -67 -400 z "},"ё":{"ha":467,"x_min":33,"x_max":457,"o":"m 186 -12 q 89 3 124 -12 q 44 58 54 19 q 43 168 33 97 l 94 535 q 156 664 108 631 q 292 697 204 697 q 424 654 392 697 q 435 510 457 611 q 378 412 421 449 q 282 355 336 375 q 177 326 228 335 q 97 313 126 317 l 76 167 q 85 49 64 82 q 188 15 107 15 q 301 49 269 15 q 343 167 332 82 l 353 240 l 386 240 l 376 168 q 347 58 367 97 q 288 3 326 19 q 186 -12 250 -12 m 101 343 q 184 356 138 347 q 276 384 231 365 q 354 434 321 403 q 399 513 388 465 q 397 631 418 590 q 293 672 376 672 q 176 640 214 672 q 128 532 139 608 l 101 343 m 242 779 q 220 788 229 779 q 211 810 211 797 q 220 831 211 822 q 242 839 229 839 q 263 831 254 839 q 272 810 272 822 q 263 788 272 797 q 242 779 254 779 m 353 779 q 331 788 340 779 q 322 810 322 797 q 331 831 322 822 q 353 839 340 839 q 374 831 365 839 q 383 810 383 822 q 374 788 383 797 q 353 779 365 779 z "},"į":{"ha":210,"x_min":-50,"x_max":206,"o":"m 40 0 l 138 688 l 169 688 l 72 0 l 40 0 m 175 779 q 153 788 163 779 q 144 810 144 797 q 153 831 144 822 q 175 839 163 839 q 197 831 188 839 q 206 810 206 822 q 197 788 206 797 q 175 779 188 779 m 26 -179 q -28 -159 -6 -179 q -46 -104 -50 -139 q -10 -38 -39 -64 q 46 0 19 -12 l 75 0 q 13 -46 36 -19 q -15 -100 -11 -72 q -3 -142 -19 -128 q 31 -156 13 -156 q 56 -152 44 -156 q 72 -146 67 -149 l 78 -165 q 55 -175 68 -171 q 26 -179 42 -179 z "},"ĩ":{"ha":210,"x_min":40,"x_max":306,"o":"m 40 0 l 138 688 l 169 688 l 72 0 l 40 0 m 225 772 q 199 777 208 772 q 172 796 189 782 q 150 813 163 803 q 121 822 138 822 q 91 811 104 822 q 69 774 78 800 l 44 774 q 74 826 53 806 q 125 847 94 847 q 156 839 142 847 q 183 819 169 831 q 206 804 196 810 q 229 799 215 799 q 259 808 246 799 q 281 844 272 818 l 306 844 q 276 793 297 814 q 225 772 256 772 z "},"ю":{"ha":792,"x_min":19,"x_max":753,"o":"m 506 -10 q 414 6 446 -10 q 370 49 382 22 q 358 108 358 75 q 364 174 358 140 l 411 517 q 433 603 418 561 q 487 672 447 644 q 606 699 526 699 q 696 683 664 699 q 740 640 728 667 q 752 582 753 614 q 747 517 751 550 l 700 174 q 678 87 693 129 q 624 17 663 44 q 506 -10 585 -10 m 19 0 l 117 688 l 150 688 l 106 378 l 394 378 l 392 350 l 103 350 l 53 0 l 19 0 m 508 15 q 604 40 572 15 q 649 102 636 64 q 668 181 663 140 l 714 511 q 717 588 719 550 q 691 649 715 625 q 603 674 667 674 q 507 649 539 674 q 463 588 475 625 q 444 511 450 550 l 397 181 q 393 102 392 140 q 419 40 394 64 q 508 15 444 15 z "},"j":{"ha":176,"x_min":-153,"x_max":185,"o":"m -126 -153 q -141 -152 -132 -153 q -153 -150 -150 -151 l -149 -128 q -140 -130 -149 -129 q -121 -131 -131 -131 q -26 -112 -62 -131 q 19 -31 10 -94 l 119 688 l 151 688 l 50 -32 q 18 -112 43 -86 q -44 -145 -7 -137 q -126 -153 -82 -153 m 154 779 q 133 788 142 779 q 124 810 124 797 q 133 831 124 822 q 154 839 142 839 q 176 831 167 839 q 185 810 185 822 q 176 788 185 797 q 154 779 167 779 z "},"ȷ":{"ha":176,"x_min":-153,"x_max":151,"o":"m -126 -153 q -141 -152 -132 -153 q -153 -150 -150 -151 l -149 -128 q -140 -130 -149 -129 q -121 -131 -131 -131 q -26 -112 -62 -131 q 19 -31 10 -94 l 119 688 l 151 688 l 50 -32 q 18 -112 43 -86 q -44 -145 -7 -137 q -126 -153 -82 -153 z "},"ј":{"ha":176,"x_min":-153,"x_max":185,"o":"m -126 -153 q -141 -152 -132 -153 q -153 -150 -150 -151 l -149 -128 q -140 -130 -149 -129 q -121 -131 -131 -131 q -26 -112 -62 -131 q 19 -31 10 -94 l 119 688 l 151 688 l 50 -32 q 18 -112 43 -86 q -44 -145 -7 -137 q -126 -153 -82 -153 m 154 779 q 133 788 142 779 q 124 810 124 797 q 133 831 124 822 q 154 839 142 839 q 176 831 167 839 q 185 810 185 822 q 176 788 185 797 q 154 779 167 779 z "},"k":{"ha":422,"x_min":40,"x_max":440,"o":"m 40 0 l 165 883 l 197 883 l 72 0 l 40 0 m 313 0 l 163 400 l 406 688 l 440 688 l 199 401 l 347 0 l 313 0 z "},"к":{"ha":444,"x_min":40,"x_max":461,"o":"m 40 0 l 138 688 l 171 688 l 122 340 q 239 503 175 432 q 363 615 303 574 q 461 663 422 657 l 458 635 q 381 597 419 622 q 310 538 343 572 q 261 486 283 514 q 217 429 239 458 l 364 0 l 326 0 l 189 396 q 145 333 167 367 q 114 283 124 299 l 74 0 l 40 0 z "},"ķ":{"ha":422,"x_min":40,"x_max":440,"o":"m 40 0 l 165 883 l 197 883 l 72 0 l 40 0 m 313 0 l 163 400 l 406 688 l 440 688 l 199 401 l 347 0 l 313 0 m 131 -185 q 164 -133 153 -154 q 175 -101 175 -111 q 172 -90 175 -94 q 164 -81 168 -86 q 160 -65 160 -75 q 167 -49 160 -57 q 186 -40 175 -40 q 204 -47 197 -40 q 211 -65 211 -54 q 201 -100 211 -79 q 178 -143 192 -121 q 149 -185 164 -165 l 131 -185 z "},"ќ":{"ha":444,"x_min":40,"x_max":461,"o":"m 40 0 l 138 688 l 171 688 l 122 340 q 239 503 175 432 q 363 615 303 574 q 461 663 422 657 l 458 635 q 381 597 419 622 q 310 538 343 572 q 261 486 283 514 q 217 429 239 458 l 364 0 l 326 0 l 189 396 q 145 333 167 367 q 114 283 124 299 l 74 0 l 40 0 m 282 756 l 368 876 l 413 876 l 303 756 l 282 756 z "},"l":{"ha":210,"x_min":40,"x_max":197,"o":"m 40 0 l 165 883 l 197 883 l 72 0 l 40 0 z "},"ĺ":{"ha":210,"x_min":40,"x_max":292,"o":"m 40 0 l 165 883 l 197 883 l 72 0 l 40 0 m 118 933 l 244 1038 l 292 1038 l 149 933 l 118 933 z "},"ľ":{"ha":210,"x_min":40,"x_max":303,"o":"m 40 0 l 165 883 l 197 883 l 72 0 l 40 0 m 231 729 l 274 892 l 303 892 l 250 729 l 231 729 z "},"ļ":{"ha":210,"x_min":-10,"x_max":197,"o":"m 40 0 l 165 883 l 197 883 l 72 0 l 40 0 m -10 -185 q 24 -133 13 -154 q 35 -101 35 -111 q 31 -90 35 -94 q 24 -81 28 -86 q 19 -65 19 -75 q 27 -49 19 -57 q 46 -40 35 -40 q 64 -47 57 -40 q 71 -65 71 -54 q 61 -100 71 -79 q 38 -143 51 -121 q 8 -185 24 -165 l -10 -185 z "},"←":{"ha":1118,"x_min":68,"x_max":1046,"o":"m 353 124 l 68 404 l 353 688 l 371 671 l 119 419 l 1046 419 l 1046 392 l 119 393 l 371 142 l 353 124 z "},"↔":{"ha":1318,"x_min":68,"x_max":1249,"o":"m 357 71 l 68 353 l 357 635 l 375 617 l 125 365 l 1192 365 l 942 617 l 961 635 l 1249 353 l 961 71 l 942 88 l 1193 339 l 125 339 l 375 88 l 357 71 z "},"<":{"ha":492,"x_min":79,"x_max":443,"o":"m 375 214 l 79 435 l 85 472 l 443 693 l 436 650 l 118 453 l 382 258 l 375 214 z "},"≤":{"ha":465,"x_min":33,"x_max":435,"o":"m 367 214 l 72 435 l 76 472 l 435 693 l 429 650 l 111 453 l 374 258 l 367 214 m 350 -1 l 33 -1 l 35 28 l 350 28 l 350 -1 z "},"љ":{"ha":810,"x_min":-21,"x_max":749,"o":"m -21 0 l -17 25 q 17 35 3 25 q 43 67 32 44 q 63 128 54 90 l 188 686 l 479 686 l 449 471 l 596 471 q 703 447 671 471 q 742 383 736 424 q 740 289 749 342 l 732 229 q 714 137 725 179 q 681 64 703 94 q 624 17 660 33 q 532 0 589 0 l 347 0 l 440 658 l 217 658 l 93 115 q 82 82 89 101 q 63 44 75 63 q 33 13 51 25 q -11 0 14 0 l -21 0 m 386 25 l 533 25 q 626 48 594 25 q 674 110 658 71 q 694 196 689 149 l 707 279 q 710 359 713 321 q 681 422 707 397 q 590 446 656 446 l 446 446 l 386 25 z "},"¬":{"ha":774,"x_min":83,"x_max":724,"o":"m 657 290 l 690 532 l 83 532 l 88 560 l 724 560 l 686 290 l 657 290 z "},"ſ":{"ha":296,"x_min":-135,"x_max":424,"o":"m -37 -204 q -92 -203 -64 -204 q -135 -199 -119 -201 l -132 -171 l -100 -175 q -68 -177 -85 -176 q -33 -178 -51 -178 q 28 -143 8 -176 q 54 -75 49 -110 l 147 583 l 104 583 l 107 611 l 150 611 l 172 758 q 192 826 178 799 q 233 869 207 854 q 296 883 260 883 q 363 879 333 883 q 424 868 393 875 l 415 843 q 359 853 388 849 q 292 857 331 857 q 229 823 250 857 q 203 753 208 789 l 86 -76 q 65 -145 81 -117 q 24 -189 50 -174 q -37 -204 -1 -204 z "},"◊":{"ha":644,"x_min":68,"x_max":576,"o":"m 301 -49 l 68 406 l 301 858 l 343 858 l 576 406 l 343 -49 l 301 -49 m 324 -11 l 532 407 l 324 815 l 113 407 l 324 -11 z "},"ł":{"ha":376,"x_min":36,"x_max":294,"o":"m 108 0 l 144 254 l 36 208 l 39 239 l 150 285 l 233 883 l 264 883 l 182 300 l 294 347 l 290 318 l 178 269 l 139 0 l 108 0 z "},"m":{"ha":786,"x_min":42,"x_max":749,"o":"m 42 0 l 138 688 l 164 688 l 160 619 q 224 677 179 657 q 308 697 268 697 q 411 676 379 697 q 446 606 443 654 q 512 672 471 646 q 606 697 553 697 q 725 655 701 697 q 735 515 749 613 l 663 0 l 629 0 l 701 524 q 702 617 711 586 q 667 659 693 649 q 599 669 642 669 q 499 632 543 669 q 443 539 454 594 l 368 0 l 335 0 l 410 531 q 408 622 418 592 q 370 660 397 651 q 303 669 343 669 q 210 638 246 669 q 154 565 174 607 l 75 0 l 42 0 z "},"¯":{"ha":239,"x_min":64,"x_max":304,"o":"m 64 792 l 67 815 l 304 815 l 301 792 l 64 792 z "},"̄":{"ha":0,"x_min":65,"x_max":306,"o":"m 65 792 l 68 815 l 306 815 l 303 792 l 65 792 z "},"µ":{"ha":471,"x_min":7,"x_max":464,"o":"m 7 -179 l 129 688 l 163 688 l 83 122 q 121 44 90 72 q 208 15 151 15 q 276 24 246 15 q 326 65 306 33 q 357 164 347 97 l 431 688 l 464 688 l 392 172 q 365 68 383 108 q 310 9 346 28 q 208 -10 274 -10 q 128 7 167 -10 q 75 68 89 24 l 35 -179 l 7 -179 z "},"−":{"ha":556,"x_min":67,"x_max":485,"o":"m 67 331 l 74 367 l 485 367 l 479 331 l 67 331 z "},"×":{"ha":474,"x_min":60,"x_max":415,"o":"m 357 196 l 233 339 l 82 207 l 60 233 l 210 365 l 88 507 l 118 533 l 239 390 l 393 525 l 415 499 l 264 365 l 385 221 l 357 196 z "},"n":{"ha":503,"x_min":42,"x_max":456,"o":"m 42 0 l 138 688 l 163 688 l 160 619 q 226 682 183 665 q 311 699 268 699 q 401 683 369 699 q 444 640 432 667 q 455 582 456 614 q 450 517 454 550 l 379 0 l 346 0 l 417 504 q 423 563 421 533 q 417 617 425 593 q 384 655 410 640 q 306 669 358 669 q 226 652 257 669 q 179 611 196 635 q 154 567 163 588 l 75 0 l 42 0 z "},"ń":{"ha":503,"x_min":42,"x_max":456,"o":"m 42 0 l 138 688 l 163 688 l 160 619 q 226 682 183 665 q 311 699 268 699 q 401 683 369 699 q 444 640 432 667 q 455 582 456 614 q 450 517 454 550 l 379 0 l 346 0 l 417 504 q 423 563 421 533 q 417 617 425 593 q 384 655 410 640 q 306 669 358 669 q 226 652 257 669 q 179 611 196 635 q 154 567 163 588 l 75 0 l 42 0 m 282 756 l 368 876 l 413 876 l 303 756 l 282 756 z "},"ň":{"ha":503,"x_min":42,"x_max":479,"o":"m 42 0 l 138 688 l 163 688 l 160 619 q 226 682 183 665 q 311 699 268 699 q 401 683 369 699 q 444 640 432 667 q 455 582 456 614 q 450 517 454 550 l 379 0 l 346 0 l 417 504 q 423 563 421 533 q 417 617 425 593 q 384 655 410 640 q 306 669 358 669 q 226 652 257 669 q 179 611 196 635 q 154 567 163 588 l 75 0 l 42 0 m 310 760 l 208 874 l 239 874 l 331 783 l 450 874 l 479 874 l 344 760 l 310 760 z "},"ņ":{"ha":503,"x_min":42,"x_max":456,"o":"m 42 0 l 138 688 l 163 688 l 160 619 q 226 682 183 665 q 311 699 268 699 q 401 683 369 699 q 444 640 432 667 q 455 582 456 614 q 450 517 454 550 l 379 0 l 346 0 l 417 504 q 423 563 421 533 q 417 617 425 593 q 384 655 410 640 q 306 669 358 669 q 226 652 257 669 q 179 611 196 635 q 154 567 163 588 l 75 0 l 42 0 m 146 -185 q 179 -133 168 -154 q 190 -101 190 -111 q 187 -90 190 -94 q 179 -81 183 -86 q 175 -65 175 -75 q 183 -49 175 -57 q 201 -40 190 -40 q 219 -47 213 -40 q 226 -65 226 -54 q 217 -100 226 -79 q 193 -143 207 -121 q 164 -185 179 -165 l 146 -185 z "},"њ":{"ha":801,"x_min":19,"x_max":740,"o":"m 19 0 l 117 688 l 150 688 l 106 378 l 392 378 l 436 688 l 469 688 l 439 471 l 588 471 q 694 447 661 471 q 734 383 728 424 q 732 289 740 342 l 724 229 q 706 137 717 179 q 673 64 694 94 q 615 17 651 33 q 522 0 579 0 l 339 0 l 389 350 l 103 350 l 53 0 l 19 0 m 375 25 l 524 25 q 616 48 583 25 q 664 110 649 71 q 686 196 679 149 l 697 279 q 701 359 704 321 q 673 422 699 397 q 582 446 647 446 l 436 446 l 375 25 z "},"↗":{"ha":838,"x_min":67,"x_max":768,"o":"m 88 119 l 67 140 l 722 796 l 368 797 l 368 819 l 768 822 l 768 422 l 742 422 l 740 778 l 88 119 z "},"↖":{"ha":840,"x_min":69,"x_max":772,"o":"m 753 118 l 97 774 l 97 419 l 71 419 l 69 821 l 471 819 l 471 793 l 117 793 l 772 138 l 753 118 z "},"≠":{"ha":551,"x_min":25,"x_max":532,"o":"m 25 -1 l 186 240 l 53 240 l 58 272 l 206 272 l 383 543 l 96 543 l 101 574 l 403 574 l 499 722 l 532 722 l 435 574 l 513 574 l 508 543 l 414 543 l 235 272 l 471 272 l 465 240 l 215 240 l 57 -1 l 25 -1 z "},"ñ":{"ha":503,"x_min":42,"x_max":457,"o":"m 42 0 l 138 688 l 163 688 l 160 619 q 226 682 183 665 q 311 699 268 699 q 401 683 369 699 q 444 640 432 667 q 455 582 456 614 q 450 517 454 550 l 379 0 l 346 0 l 417 504 q 423 563 421 533 q 417 617 425 593 q 384 655 410 640 q 306 669 358 669 q 226 652 257 669 q 179 611 196 635 q 154 567 163 588 l 75 0 l 42 0 m 376 772 q 350 777 360 772 q 324 796 340 782 q 301 813 314 803 q 272 822 289 822 q 242 811 256 822 q 221 774 229 800 l 196 774 q 225 826 204 806 q 276 847 246 847 q 307 839 293 847 q 335 819 321 831 q 357 804 347 810 q 381 799 367 799 q 410 808 397 799 q 432 844 424 818 l 457 844 q 428 793 449 814 q 376 772 407 772 z "},"#":{"ha":936,"x_min":68,"x_max":868,"o":"m 182 0 l 269 276 l 68 276 l 75 299 l 276 299 l 357 557 l 156 557 l 164 579 l 365 579 l 433 796 l 453 796 l 386 579 l 646 579 l 713 796 l 735 796 l 667 579 l 868 579 l 860 557 l 658 557 l 578 299 l 779 299 l 772 276 l 571 276 l 485 0 l 463 0 l 550 276 l 290 276 l 203 0 l 182 0 m 297 299 l 557 299 l 638 557 l 378 557 l 297 299 z "},"o":{"ha":472,"x_min":39,"x_max":433,"o":"m 188 -10 q 96 6 128 -10 q 51 49 64 22 q 40 108 39 75 q 44 174 40 140 l 92 517 q 114 603 99 561 q 169 672 129 644 q 288 699 208 699 q 378 683 346 699 q 422 640 410 667 q 433 582 433 614 q 428 517 432 550 l 381 174 q 359 87 375 129 q 304 17 343 44 q 188 -10 265 -10 m 190 18 q 286 42 254 18 q 331 104 318 67 q 349 181 343 142 l 394 510 q 399 585 400 549 q 372 647 397 622 q 283 671 347 671 q 188 647 219 671 q 143 585 156 622 q 125 510 131 549 l 79 181 q 75 104 74 142 q 101 42 76 67 q 190 18 126 18 z "},"о":{"ha":472,"x_min":39,"x_max":433,"o":"m 188 -10 q 96 6 128 -10 q 51 49 64 22 q 40 108 39 75 q 44 174 40 140 l 92 517 q 114 603 99 561 q 169 672 129 644 q 288 699 208 699 q 378 683 346 699 q 422 640 410 667 q 433 582 433 614 q 428 517 432 550 l 381 174 q 359 87 375 129 q 304 17 343 44 q 188 -10 265 -10 m 190 18 q 286 42 254 18 q 331 104 318 67 q 349 181 343 142 l 394 510 q 399 585 400 549 q 372 647 397 622 q 283 671 347 671 q 188 647 219 671 q 143 585 156 622 q 125 510 131 549 l 79 181 q 75 104 74 142 q 101 42 76 67 q 190 18 126 18 z "},"ó":{"ha":472,"x_min":39,"x_max":433,"o":"m 188 -10 q 96 6 128 -10 q 51 49 64 22 q 40 108 39 75 q 44 174 40 140 l 92 517 q 114 603 99 561 q 169 672 129 644 q 288 699 208 699 q 378 683 346 699 q 422 640 410 667 q 433 582 433 614 q 428 517 432 550 l 381 174 q 359 87 375 129 q 304 17 343 44 q 188 -10 265 -10 m 190 18 q 286 42 254 18 q 331 104 318 67 q 349 181 343 142 l 394 510 q 399 585 400 549 q 372 647 397 622 q 283 671 347 671 q 188 647 219 671 q 143 585 156 622 q 125 510 131 549 l 79 181 q 75 104 74 142 q 101 42 76 67 q 190 18 126 18 m 257 756 l 343 876 l 388 876 l 278 756 l 257 756 z "},"ǒ":{"ha":472,"x_min":39,"x_max":454,"o":"m 188 -10 q 96 6 128 -10 q 51 49 64 22 q 40 108 39 75 q 44 174 40 140 l 92 517 q 114 603 99 561 q 169 672 129 644 q 288 699 208 699 q 378 683 346 699 q 422 640 410 667 q 433 582 433 614 q 428 517 432 550 l 381 174 q 359 87 375 129 q 304 17 343 44 q 188 -10 265 -10 m 190 18 q 286 42 254 18 q 331 104 318 67 q 349 181 343 142 l 394 510 q 399 585 400 549 q 372 647 397 622 q 283 671 347 671 q 188 647 219 671 q 143 585 156 622 q 125 510 131 549 l 79 181 q 75 104 74 142 q 101 42 76 67 q 190 18 126 18 m 285 760 l 183 874 l 214 874 l 306 783 l 425 874 l 454 874 l 319 760 l 285 760 z "},"ô":{"ha":472,"x_min":39,"x_max":433,"o":"m 188 -10 q 96 6 128 -10 q 51 49 64 22 q 40 108 39 75 q 44 174 40 140 l 92 517 q 114 603 99 561 q 169 672 129 644 q 288 699 208 699 q 378 683 346 699 q 422 640 410 667 q 433 582 433 614 q 428 517 432 550 l 381 174 q 359 87 375 129 q 304 17 343 44 q 188 -10 265 -10 m 190 18 q 286 42 254 18 q 331 104 318 67 q 349 181 343 142 l 394 510 q 399 585 400 549 q 372 647 397 622 q 283 671 347 671 q 188 647 219 671 q 143 585 156 622 q 125 510 131 549 l 79 181 q 75 104 74 142 q 101 42 76 67 q 190 18 126 18 m 160 760 l 294 874 l 329 874 l 431 760 l 401 760 l 307 850 l 190 760 l 160 760 z "},"ố":{"ha":472,"x_min":39,"x_max":564,"o":"m 188 -10 q 96 6 128 -10 q 51 49 64 22 q 40 108 39 75 q 44 174 40 140 l 92 517 q 114 603 99 561 q 169 672 129 644 q 288 699 208 699 q 378 683 346 699 q 422 640 410 667 q 433 582 433 614 q 428 517 432 550 l 381 174 q 359 87 375 129 q 304 17 343 44 q 188 -10 265 -10 m 190 18 q 286 42 254 18 q 331 104 318 67 q 349 181 343 142 l 394 510 q 399 585 400 549 q 372 647 397 622 q 283 671 347 671 q 188 647 219 671 q 143 585 156 622 q 125 510 131 549 l 79 181 q 75 104 74 142 q 101 42 76 67 q 190 18 126 18 m 160 760 l 294 874 l 329 874 l 431 760 l 401 760 l 307 850 l 190 760 l 160 760 m 433 828 l 519 949 l 564 949 l 454 828 l 433 828 z "},"ộ":{"ha":472,"x_min":39,"x_max":433,"o":"m 188 -10 q 96 6 128 -10 q 51 49 64 22 q 40 108 39 75 q 44 174 40 140 l 92 517 q 114 603 99 561 q 169 672 129 644 q 288 699 208 699 q 378 683 346 699 q 422 640 410 667 q 433 582 433 614 q 428 517 432 550 l 381 174 q 359 87 375 129 q 304 17 343 44 q 188 -10 265 -10 m 190 18 q 286 42 254 18 q 331 104 318 67 q 349 181 343 142 l 394 510 q 399 585 400 549 q 372 647 397 622 q 283 671 347 671 q 188 647 219 671 q 143 585 156 622 q 125 510 131 549 l 79 181 q 75 104 74 142 q 101 42 76 67 q 190 18 126 18 m 174 -128 q 152 -119 161 -128 q 143 -97 143 -110 q 152 -76 143 -85 q 174 -68 161 -68 q 195 -76 186 -68 q 204 -97 204 -85 q 195 -119 204 -110 q 174 -128 186 -128 m 160 760 l 294 874 l 329 874 l 431 760 l 401 760 l 307 850 l 190 760 l 160 760 z "},"ồ":{"ha":472,"x_min":39,"x_max":503,"o":"m 188 -10 q 96 6 128 -10 q 51 49 64 22 q 40 108 39 75 q 44 174 40 140 l 92 517 q 114 603 99 561 q 169 672 129 644 q 288 699 208 699 q 378 683 346 699 q 422 640 410 667 q 433 582 433 614 q 428 517 432 550 l 381 174 q 359 87 375 129 q 304 17 343 44 q 188 -10 265 -10 m 190 18 q 286 42 254 18 q 331 104 318 67 q 349 181 343 142 l 394 510 q 399 585 400 549 q 372 647 397 622 q 283 671 347 671 q 188 647 219 671 q 143 585 156 622 q 125 510 131 549 l 79 181 q 75 104 74 142 q 101 42 76 67 q 190 18 126 18 m 160 760 l 294 874 l 329 874 l 431 760 l 401 760 l 307 850 l 190 760 l 160 760 m 482 828 l 397 949 l 442 949 l 503 828 l 482 828 z "},"ổ":{"ha":472,"x_min":39,"x_max":550,"o":"m 188 -10 q 96 6 128 -10 q 51 49 64 22 q 40 108 39 75 q 44 174 40 140 l 92 517 q 114 603 99 561 q 169 672 129 644 q 288 699 208 699 q 378 683 346 699 q 422 640 410 667 q 433 582 433 614 q 428 517 432 550 l 381 174 q 359 87 375 129 q 304 17 343 44 q 188 -10 265 -10 m 190 18 q 286 42 254 18 q 331 104 318 67 q 349 181 343 142 l 394 510 q 399 585 400 549 q 372 647 397 622 q 283 671 347 671 q 188 647 219 671 q 143 585 156 622 q 125 510 131 549 l 79 181 q 75 104 74 142 q 101 42 76 67 q 190 18 126 18 m 160 760 l 294 874 l 329 874 l 431 760 l 401 760 l 307 850 l 190 760 l 160 760 m 454 822 l 457 849 q 476 874 460 868 q 509 889 493 881 q 525 919 525 897 l 525 924 q 518 958 525 942 q 485 974 511 974 q 438 939 450 974 l 414 944 q 442 981 424 968 q 490 994 460 994 q 538 975 526 994 q 550 922 550 956 l 550 919 q 540 883 550 894 q 515 865 529 871 q 489 855 500 860 q 478 840 478 850 l 476 822 l 454 822 z "},"ỗ":{"ha":472,"x_min":39,"x_max":444,"o":"m 188 -10 q 96 6 128 -10 q 51 49 64 22 q 40 108 39 75 q 44 174 40 140 l 92 517 q 114 603 99 561 q 169 672 129 644 q 288 699 208 699 q 378 683 346 699 q 422 640 410 667 q 433 582 433 614 q 428 517 432 550 l 381 174 q 359 87 375 129 q 304 17 343 44 q 188 -10 265 -10 m 190 18 q 286 42 254 18 q 331 104 318 67 q 349 181 343 142 l 394 510 q 399 585 400 549 q 372 647 397 622 q 283 671 347 671 q 188 647 219 671 q 143 585 156 622 q 125 510 131 549 l 79 181 q 75 104 74 142 q 101 42 76 67 q 190 18 126 18 m 160 760 l 294 874 l 329 874 l 431 760 l 401 760 l 307 850 l 190 760 l 160 760 m 364 906 q 338 910 347 906 q 311 929 328 915 q 289 946 301 936 q 260 956 276 956 q 230 944 243 956 q 208 907 217 933 l 183 907 q 213 960 192 939 q 264 981 233 981 q 294 972 281 981 q 322 953 308 964 q 344 938 335 943 q 368 932 354 932 q 398 942 385 932 q 419 978 411 951 l 444 978 q 415 926 436 947 q 364 906 394 906 z "},"ö":{"ha":472,"x_min":39,"x_max":433,"o":"m 188 -10 q 96 6 128 -10 q 51 49 64 22 q 40 108 39 75 q 44 174 40 140 l 92 517 q 114 603 99 561 q 169 672 129 644 q 288 699 208 699 q 378 683 346 699 q 422 640 410 667 q 433 582 433 614 q 428 517 432 550 l 381 174 q 359 87 375 129 q 304 17 343 44 q 188 -10 265 -10 m 190 18 q 286 42 254 18 q 331 104 318 67 q 349 181 343 142 l 394 510 q 399 585 400 549 q 372 647 397 622 q 283 671 347 671 q 188 647 219 671 q 143 585 156 622 q 125 510 131 549 l 79 181 q 75 104 74 142 q 101 42 76 67 q 190 18 126 18 m 244 779 q 223 788 232 779 q 214 810 214 797 q 223 831 214 822 q 244 839 232 839 q 266 831 257 839 q 275 810 275 822 q 266 788 275 797 q 244 779 257 779 m 356 779 q 334 788 343 779 q 325 810 325 797 q 334 831 325 822 q 356 839 343 839 q 377 831 368 839 q 386 810 386 822 q 377 788 386 797 q 356 779 368 779 z "},"ọ":{"ha":472,"x_min":39,"x_max":433,"o":"m 188 -10 q 96 6 128 -10 q 51 49 64 22 q 40 108 39 75 q 44 174 40 140 l 92 517 q 114 603 99 561 q 169 672 129 644 q 288 699 208 699 q 378 683 346 699 q 422 640 410 667 q 433 582 433 614 q 428 517 432 550 l 381 174 q 359 87 375 129 q 304 17 343 44 q 188 -10 265 -10 m 190 18 q 286 42 254 18 q 331 104 318 67 q 349 181 343 142 l 394 510 q 399 585 400 549 q 372 647 397 622 q 283 671 347 671 q 188 647 219 671 q 143 585 156 622 q 125 510 131 549 l 79 181 q 75 104 74 142 q 101 42 76 67 q 190 18 126 18 m 174 -128 q 152 -119 161 -128 q 143 -97 143 -110 q 152 -76 143 -85 q 174 -68 161 -68 q 195 -76 186 -68 q 204 -97 204 -85 q 195 -119 204 -110 q 174 -128 186 -128 z "}}}
